%
M48
M72
T01C0.0320
T02C0.0354
T03C0.0394
T04C0.0433
T05C0.1299
%
T01
X13549Y4408
X13549Y2408
T02
X6057Y2893
X7072Y2389
X7072Y3404
X6057Y3885
X7065Y4385
X6061Y4885
X7057Y5377
X6057Y5881
X21435Y5885
X22450Y5381
X21435Y4869
X22450Y4389
X21443Y3889
X22446Y3389
X21450Y2897
X22450Y2393
T03
X18419Y2582
X17419Y2582
X15820Y2621
X14820Y2621
X15769Y8129
X15769Y9129
X15769Y10129
X15769Y11129
X15746Y12408
X15746Y13408
X15746Y14408
X15746Y15408
X12466Y15460
X12466Y14460
X12466Y13460
X12466Y12460
X12431Y11184
X12431Y10184
X12431Y9184
X12431Y8184
X9171Y8113
X9171Y9113
X9171Y10113
X9171Y11113
X9194Y12397
X9194Y13397
X9194Y14397
X9194Y15397
X5848Y15428
X5848Y14428
X5848Y13428
X5848Y12428
X5840Y11113
X5840Y10113
X5840Y9113
X5840Y8113
X2427Y8113
X2427Y9113
X2427Y10113
X2427Y11113
X2435Y12456
X2435Y13456
X2435Y14456
X2435Y15456
X19198Y15412
X19198Y14412
X19198Y13412
X19198Y12412
X19191Y11058
X19191Y10058
X19191Y9058
X19191Y8058
X22679Y8058
X22679Y9058
X22679Y10058
X22679Y11058
X22639Y12483
X22639Y13483
X22639Y14483
X22639Y15483
X25994Y15463
X25994Y14463
X25994Y13463
X25994Y12463
X26092Y11034
X26092Y10034
X26092Y9034
X26092Y8034
T04
X10793Y6243
X12683Y5062
X10793Y3881
T05
X24950Y1900
X24950Y6389
X3557Y6373
X3557Y1885
M30
