G75*
%MOIN*%
%OFA0B0*%
%FSLAX24Y24*%
%IPPOS*%
%LPD*%
%AMOC8*
5,1,8,0,0,1.08239X$1,22.5*
%
%ADD10R,0.0514X0.0514*%
%ADD11R,0.0945X0.0945*%
%ADD12R,0.0512X0.0591*%
%ADD13R,0.0472X0.0472*%
%ADD14OC8,0.0480*%
%ADD15C,0.0860*%
%ADD16C,0.0554*%
%ADD17R,0.0591X0.0512*%
%ADD18C,0.0120*%
%ADD19C,0.0500*%
%ADD20C,0.0060*%
%ADD21C,0.0160*%
%ADD22C,0.0400*%
%ADD23C,0.0560*%
D10*
X006057Y002893D03*
X007072Y002389D03*
X007072Y003404D03*
X006057Y003885D03*
X007065Y004385D03*
X006061Y004885D03*
X007057Y005377D03*
X006057Y005881D03*
X021435Y005885D03*
X022450Y005381D03*
X021435Y004869D03*
X022450Y004389D03*
X021443Y003889D03*
X022446Y003389D03*
X021450Y002897D03*
X022450Y002393D03*
D11*
X015683Y006668D03*
X013950Y006668D03*
D12*
X016982Y006145D03*
X017730Y006145D03*
D13*
X018895Y006271D03*
X018895Y005444D03*
D14*
X013549Y004408D03*
X013549Y002408D03*
D15*
X011223Y003881D02*
X010363Y003881D01*
X012683Y004632D02*
X012683Y005492D01*
X011223Y006243D02*
X010363Y006243D01*
D16*
X009448Y008113D02*
X008894Y008113D01*
X008894Y009113D02*
X009448Y009113D01*
X009448Y010113D02*
X008894Y010113D01*
X008894Y011113D02*
X009448Y011113D01*
X009471Y012397D02*
X008918Y012397D01*
X008918Y013397D02*
X009471Y013397D01*
X009471Y014397D02*
X008918Y014397D01*
X008918Y015397D02*
X009471Y015397D01*
X012189Y015460D02*
X012743Y015460D01*
X012743Y014460D02*
X012189Y014460D01*
X012189Y013460D02*
X012743Y013460D01*
X012743Y012460D02*
X012189Y012460D01*
X012154Y011184D02*
X012708Y011184D01*
X012708Y010184D02*
X012154Y010184D01*
X012154Y009184D02*
X012708Y009184D01*
X012708Y008184D02*
X012154Y008184D01*
X015492Y008129D02*
X016046Y008129D01*
X016046Y009129D02*
X015492Y009129D01*
X015492Y010129D02*
X016046Y010129D01*
X016046Y011129D02*
X015492Y011129D01*
X015469Y012408D02*
X016023Y012408D01*
X016023Y013408D02*
X015469Y013408D01*
X015469Y014408D02*
X016023Y014408D01*
X016023Y015408D02*
X015469Y015408D01*
X018922Y015412D02*
X019475Y015412D01*
X019475Y014412D02*
X018922Y014412D01*
X018922Y013412D02*
X019475Y013412D01*
X019475Y012412D02*
X018922Y012412D01*
X018914Y011058D02*
X019467Y011058D01*
X019467Y010058D02*
X018914Y010058D01*
X018914Y009058D02*
X019467Y009058D01*
X019467Y008058D02*
X018914Y008058D01*
X022402Y008058D02*
X022956Y008058D01*
X022956Y009058D02*
X022402Y009058D01*
X022402Y010058D02*
X022956Y010058D01*
X022956Y011058D02*
X022402Y011058D01*
X022363Y012483D02*
X022916Y012483D01*
X022916Y013483D02*
X022363Y013483D01*
X022363Y014483D02*
X022916Y014483D01*
X022916Y015483D02*
X022363Y015483D01*
X025717Y015463D02*
X026271Y015463D01*
X026271Y014463D02*
X025717Y014463D01*
X025717Y013463D02*
X026271Y013463D01*
X026271Y012463D02*
X025717Y012463D01*
X025815Y011034D02*
X026369Y011034D01*
X026369Y010034D02*
X025815Y010034D01*
X025815Y009034D02*
X026369Y009034D01*
X026369Y008034D02*
X025815Y008034D01*
X018419Y002858D02*
X018419Y002305D01*
X017419Y002305D02*
X017419Y002858D01*
X015820Y002898D02*
X015820Y002344D01*
X014820Y002344D02*
X014820Y002898D01*
X006117Y008113D02*
X005563Y008113D01*
X005563Y009113D02*
X006117Y009113D01*
X006117Y010113D02*
X005563Y010113D01*
X005563Y011113D02*
X006117Y011113D01*
X006125Y012428D02*
X005571Y012428D01*
X005571Y013428D02*
X006125Y013428D01*
X006125Y014428D02*
X005571Y014428D01*
X005571Y015428D02*
X006125Y015428D01*
X002711Y015456D02*
X002158Y015456D01*
X002158Y014456D02*
X002711Y014456D01*
X002711Y013456D02*
X002158Y013456D01*
X002158Y012456D02*
X002711Y012456D01*
X002704Y011113D02*
X002150Y011113D01*
X002150Y010113D02*
X002704Y010113D01*
X002704Y009113D02*
X002150Y009113D01*
X002150Y008113D02*
X002704Y008113D01*
D17*
X008470Y005200D03*
X008470Y004452D03*
X019887Y003664D03*
X019887Y002916D03*
D18*
X020222Y002916D01*
X020596Y002542D01*
X020596Y001834D01*
X020872Y001558D01*
X022761Y001558D01*
X023194Y001991D01*
X023194Y004196D01*
X022998Y004393D01*
X022454Y004393D01*
X022450Y004389D01*
X026655Y004389D01*
X027722Y005456D01*
X027722Y014078D01*
X027289Y014511D01*
X026041Y014511D01*
X025994Y014463D01*
X025817Y013487D02*
X025793Y013463D01*
X025994Y013463D01*
X025817Y013487D02*
X026659Y013487D01*
X027171Y012975D01*
X027171Y007542D01*
X026817Y007345D01*
X021226Y007345D01*
X020635Y006597D01*
X020635Y004314D01*
X020439Y004511D01*
X017761Y004511D01*
X017419Y004168D01*
X017419Y002582D01*
X018419Y002582D02*
X018419Y003278D01*
X018785Y003645D01*
X019868Y003645D01*
X019887Y003664D01*
X020635Y003999D02*
X020635Y004314D01*
X020635Y003999D02*
X020746Y003889D01*
X021443Y003889D01*
X018895Y006271D02*
X018769Y006145D01*
X017730Y006145D01*
X016982Y006145D02*
X016982Y006432D01*
X016580Y006834D01*
X015848Y006834D01*
X012013Y004708D02*
X011620Y005180D01*
X008490Y005180D01*
X008470Y005200D01*
X008470Y004452D02*
X008403Y004385D01*
X007065Y004385D01*
X001864Y004385D01*
X001694Y003885D02*
X005045Y003885D01*
X004730Y003570D01*
X004730Y002897D01*
X006226Y001400D01*
X014218Y001400D01*
X014820Y002003D01*
X014820Y002621D01*
X015820Y002621D02*
X015820Y003145D01*
X015478Y003487D01*
X012446Y003487D01*
X012013Y003841D01*
X012013Y004708D01*
X006057Y003885D02*
X005045Y003885D01*
X007446Y011558D02*
X006856Y012149D01*
X006856Y012582D01*
X006502Y012936D01*
X004238Y012936D01*
X003746Y013428D01*
X002462Y013428D01*
X007446Y011558D02*
X008124Y011676D01*
X024179Y011676D01*
X024454Y011282D01*
X024454Y009629D01*
X025049Y009034D01*
X026092Y009034D01*
D19*
X015754Y006597D02*
X015754Y005771D01*
X015281Y005298D01*
X014021Y005298D01*
X013549Y004826D01*
X013549Y004408D01*
X015754Y006597D02*
X015683Y006668D01*
D20*
X016124Y007101D01*
X017124Y006101D01*
X016982Y006145D01*
X009171Y009113D02*
X009124Y009101D01*
X008124Y010101D01*
X008124Y011676D01*
X002624Y010101D02*
X002427Y010113D01*
X002624Y010101D02*
X001624Y011101D01*
X001624Y014101D01*
X002124Y014601D01*
X002435Y014456D01*
D21*
X000380Y016274D02*
X000403Y000381D01*
X028190Y000381D01*
X028167Y015949D01*
X028158Y016274D01*
X000380Y016274D01*
X000380Y016268D02*
X028159Y016268D01*
X028163Y016110D02*
X000381Y016110D01*
X000381Y015951D02*
X028167Y015951D01*
X028168Y015793D02*
X026559Y015793D01*
X026555Y015797D02*
X026500Y015837D01*
X026438Y015868D01*
X026373Y015890D01*
X026305Y015900D01*
X026012Y015900D01*
X026012Y015482D01*
X025975Y015482D01*
X025975Y015445D01*
X025280Y015445D01*
X025280Y015429D01*
X025291Y015361D01*
X025312Y015296D01*
X025343Y015235D01*
X025384Y015179D01*
X025432Y015130D01*
X025488Y015090D01*
X025549Y015059D01*
X025615Y015037D01*
X025682Y015027D01*
X025975Y015027D01*
X025975Y015445D01*
X026012Y015445D01*
X026012Y015027D01*
X026305Y015027D01*
X026373Y015037D01*
X026438Y015059D01*
X026500Y015090D01*
X026555Y015130D01*
X026604Y015179D01*
X026644Y015235D01*
X026675Y015296D01*
X026697Y015361D01*
X026707Y015429D01*
X026707Y015445D01*
X026012Y015445D01*
X026012Y015482D01*
X026707Y015482D01*
X026707Y015498D01*
X026697Y015566D01*
X026675Y015631D01*
X026644Y015692D01*
X026604Y015748D01*
X026555Y015797D01*
X026674Y015634D02*
X028168Y015634D01*
X028168Y015476D02*
X026012Y015476D01*
X025975Y015476D02*
X022658Y015476D01*
X022658Y015465D02*
X022658Y015502D01*
X022621Y015502D01*
X022621Y015920D01*
X022328Y015920D01*
X022260Y015909D01*
X022195Y015888D01*
X022134Y015857D01*
X022078Y015816D01*
X022029Y015768D01*
X021989Y015712D01*
X021958Y015651D01*
X021936Y015585D01*
X021926Y015518D01*
X021926Y015502D01*
X022621Y015502D01*
X022621Y015465D01*
X021926Y015465D01*
X021926Y015449D01*
X021936Y015381D01*
X021958Y015315D01*
X021989Y015254D01*
X022029Y015199D01*
X022078Y015150D01*
X022134Y015110D01*
X022195Y015078D01*
X022260Y015057D01*
X022328Y015046D01*
X022621Y015046D01*
X022621Y015465D01*
X022658Y015465D01*
X023353Y015465D01*
X023353Y015449D01*
X023342Y015381D01*
X023321Y015315D01*
X023290Y015254D01*
X023249Y015199D01*
X023201Y015150D01*
X023145Y015110D01*
X023084Y015078D01*
X023019Y015057D01*
X022951Y015046D01*
X022658Y015046D01*
X022658Y015465D01*
X022658Y015502D02*
X023353Y015502D01*
X023353Y015518D01*
X023342Y015585D01*
X023321Y015651D01*
X023290Y015712D01*
X023249Y015768D01*
X023201Y015816D01*
X023145Y015857D01*
X023084Y015888D01*
X023019Y015909D01*
X022951Y015920D01*
X022658Y015920D01*
X022658Y015502D01*
X022621Y015476D02*
X019908Y015476D01*
X019912Y015447D02*
X019901Y015515D01*
X019880Y015580D01*
X019849Y015641D01*
X019808Y015697D01*
X019760Y015745D01*
X019704Y015786D01*
X019643Y015817D01*
X019578Y015838D01*
X019510Y015849D01*
X019217Y015849D01*
X019217Y015431D01*
X019180Y015431D01*
X019180Y015849D01*
X018887Y015849D01*
X018819Y015838D01*
X018754Y015817D01*
X018693Y015786D01*
X018637Y015745D01*
X018588Y015697D01*
X018548Y015641D01*
X018517Y015580D01*
X018495Y015515D01*
X018485Y015447D01*
X018485Y015431D01*
X019180Y015431D01*
X019180Y015394D01*
X018485Y015394D01*
X018485Y015378D01*
X018495Y015310D01*
X018517Y015245D01*
X018548Y015183D01*
X018588Y015128D01*
X018637Y015079D01*
X018693Y015039D01*
X018754Y015007D01*
X018819Y014986D01*
X018887Y014975D01*
X019180Y014975D01*
X019180Y015394D01*
X019217Y015394D01*
X019217Y015431D01*
X019912Y015431D01*
X019912Y015447D01*
X019912Y015394D02*
X019217Y015394D01*
X019217Y014975D01*
X019510Y014975D01*
X019578Y014986D01*
X019643Y015007D01*
X019704Y015039D01*
X019760Y015079D01*
X019808Y015128D01*
X019849Y015183D01*
X019880Y015245D01*
X019901Y015310D01*
X019912Y015378D01*
X019912Y015394D01*
X019903Y015317D02*
X021957Y015317D01*
X022069Y015159D02*
X019831Y015159D01*
X019621Y015000D02*
X028169Y015000D01*
X028169Y014842D02*
X026446Y014842D01*
X026507Y014817D02*
X026353Y014880D01*
X025634Y014880D01*
X025481Y014817D01*
X025363Y014700D01*
X025300Y014546D01*
X025300Y014381D01*
X025363Y014227D01*
X025481Y014110D01*
X025634Y014047D01*
X026353Y014047D01*
X026507Y014110D01*
X026624Y014227D01*
X026658Y014311D01*
X027206Y014311D01*
X027522Y013995D01*
X027522Y005538D01*
X026572Y004589D01*
X023084Y004589D01*
X023080Y004593D01*
X022848Y004593D01*
X022848Y004704D01*
X022766Y004786D01*
X022135Y004786D01*
X022053Y004704D01*
X022053Y004074D01*
X022135Y003991D01*
X022766Y003991D01*
X022848Y004074D01*
X022848Y004189D01*
X022919Y004189D01*
X022994Y004113D01*
X022994Y002074D01*
X022679Y001758D01*
X020954Y001758D01*
X020796Y001916D01*
X020796Y002625D01*
X020679Y002742D01*
X020323Y003098D01*
X020323Y003230D01*
X020263Y003290D01*
X020323Y003350D01*
X020323Y003978D01*
X020241Y004060D01*
X019534Y004060D01*
X019452Y003978D01*
X019452Y003845D01*
X018702Y003845D01*
X018585Y003727D01*
X018219Y003361D01*
X018219Y003227D01*
X018183Y003212D01*
X018066Y003095D01*
X018002Y002941D01*
X018002Y002222D01*
X018066Y002069D01*
X018183Y001951D01*
X018336Y001888D01*
X018502Y001888D01*
X018655Y001951D01*
X018772Y002069D01*
X018836Y002222D01*
X018836Y002941D01*
X018772Y003095D01*
X018655Y003212D01*
X018641Y003218D01*
X018868Y003445D01*
X019452Y003445D01*
X019452Y003350D01*
X019512Y003290D01*
X019452Y003230D01*
X019452Y002602D01*
X019534Y002520D01*
X020241Y002520D01*
X020288Y002568D01*
X020396Y002459D01*
X020396Y001751D01*
X020672Y001475D01*
X020789Y001358D01*
X022844Y001358D01*
X023277Y001791D01*
X023394Y001908D01*
X023394Y004189D01*
X026738Y004189D01*
X027805Y005256D01*
X027922Y005373D01*
X027922Y014160D01*
X027489Y014594D01*
X027372Y014711D01*
X026613Y014711D01*
X026507Y014817D01*
X026584Y015159D02*
X028168Y015159D01*
X028168Y015317D02*
X026682Y015317D01*
X026012Y015317D02*
X025975Y015317D01*
X025975Y015159D02*
X026012Y015159D01*
X025975Y015482D02*
X025280Y015482D01*
X025280Y015498D01*
X025291Y015566D01*
X025312Y015631D01*
X025343Y015692D01*
X025384Y015748D01*
X025432Y015797D01*
X025488Y015837D01*
X025549Y015868D01*
X025615Y015890D01*
X025682Y015900D01*
X025975Y015900D01*
X025975Y015482D01*
X025975Y015634D02*
X026012Y015634D01*
X026012Y015793D02*
X025975Y015793D01*
X025428Y015793D02*
X023224Y015793D01*
X023326Y015634D02*
X025314Y015634D01*
X025305Y015317D02*
X023322Y015317D01*
X023210Y015159D02*
X025404Y015159D01*
X025541Y014842D02*
X023140Y014842D01*
X023152Y014837D02*
X022999Y014900D01*
X022280Y014900D01*
X022126Y014837D01*
X022009Y014719D01*
X021946Y014566D01*
X021946Y014400D01*
X022009Y014247D01*
X022126Y014130D01*
X022280Y014066D01*
X022999Y014066D01*
X023152Y014130D01*
X023270Y014247D01*
X023333Y014400D01*
X023333Y014566D01*
X023270Y014719D01*
X023152Y014837D01*
X023285Y014683D02*
X025357Y014683D01*
X025300Y014525D02*
X023333Y014525D01*
X023319Y014366D02*
X025306Y014366D01*
X025383Y014208D02*
X023230Y014208D01*
X023152Y013837D02*
X022999Y013900D01*
X022280Y013900D01*
X022126Y013837D01*
X022009Y013719D01*
X021946Y013566D01*
X021946Y013400D01*
X022009Y013247D01*
X022126Y013130D01*
X022280Y013066D01*
X022999Y013066D01*
X023152Y013130D01*
X023270Y013247D01*
X023333Y013400D01*
X023333Y013566D01*
X023270Y013719D01*
X023152Y013837D01*
X023021Y013891D02*
X027522Y013891D01*
X027522Y013732D02*
X026591Y013732D01*
X026624Y013700D02*
X026507Y013817D01*
X026353Y013880D01*
X025634Y013880D01*
X025481Y013817D01*
X025363Y013700D01*
X025300Y013546D01*
X025300Y013381D01*
X025363Y013227D01*
X025481Y013110D01*
X025634Y013047D01*
X026353Y013047D01*
X026507Y013110D01*
X026624Y013227D01*
X026627Y013236D01*
X026971Y012892D01*
X026971Y007660D01*
X026765Y007545D01*
X021295Y007545D01*
X021285Y007554D01*
X021214Y007545D01*
X021143Y007545D01*
X021134Y007536D01*
X021120Y007534D01*
X021076Y007478D01*
X021026Y007428D01*
X021026Y007415D01*
X020486Y006730D01*
X020435Y006680D01*
X020435Y006667D01*
X020427Y006656D01*
X020435Y006586D01*
X020435Y004711D01*
X017679Y004711D01*
X017561Y004594D01*
X017219Y004251D01*
X017219Y003227D01*
X017183Y003212D01*
X017066Y003095D01*
X017002Y002941D01*
X017002Y002222D01*
X017066Y002069D01*
X017183Y001951D01*
X017336Y001888D01*
X017502Y001888D01*
X017655Y001951D01*
X017772Y002069D01*
X017836Y002222D01*
X017836Y002941D01*
X017772Y003095D01*
X017655Y003212D01*
X017619Y003227D01*
X017619Y004085D01*
X017844Y004311D01*
X020356Y004311D01*
X020435Y004231D01*
X020435Y003916D01*
X020553Y003799D01*
X020663Y003689D01*
X021045Y003689D01*
X021045Y003574D01*
X021127Y003491D01*
X021758Y003491D01*
X021840Y003574D01*
X021840Y004204D01*
X021758Y004286D01*
X021127Y004286D01*
X021045Y004204D01*
X021045Y004089D01*
X020835Y004089D01*
X020835Y006528D01*
X021323Y007145D01*
X024392Y007145D01*
X024162Y006915D01*
X024021Y006574D01*
X024021Y006204D01*
X024162Y005862D01*
X024424Y005601D01*
X024765Y005459D01*
X025135Y005459D01*
X025477Y005601D01*
X025738Y005862D01*
X025880Y006204D01*
X025880Y006574D01*
X025738Y006915D01*
X025508Y007145D01*
X026789Y007145D01*
X026841Y007130D01*
X026868Y007145D01*
X026899Y007145D01*
X026938Y007184D01*
X027223Y007342D01*
X027254Y007342D01*
X027292Y007381D01*
X027340Y007408D01*
X027349Y007437D01*
X027371Y007459D01*
X027371Y007514D01*
X027386Y007567D01*
X027371Y007594D01*
X027371Y013058D01*
X026859Y013570D01*
X026742Y013687D01*
X026629Y013687D01*
X026624Y013700D01*
X026855Y013574D02*
X027522Y013574D01*
X027522Y013415D02*
X027014Y013415D01*
X027172Y013257D02*
X027522Y013257D01*
X027522Y013098D02*
X027331Y013098D01*
X027371Y012940D02*
X027522Y012940D01*
X027522Y012781D02*
X027371Y012781D01*
X027371Y012623D02*
X027522Y012623D01*
X027522Y012464D02*
X027371Y012464D01*
X027371Y012306D02*
X027522Y012306D01*
X027522Y012147D02*
X027371Y012147D01*
X027371Y011989D02*
X027522Y011989D01*
X027522Y011830D02*
X027371Y011830D01*
X027371Y011672D02*
X027522Y011672D01*
X027522Y011513D02*
X027371Y011513D01*
X027371Y011355D02*
X027522Y011355D01*
X027522Y011196D02*
X027371Y011196D01*
X027371Y011038D02*
X027522Y011038D01*
X027522Y010879D02*
X027371Y010879D01*
X027371Y010721D02*
X027522Y010721D01*
X027522Y010562D02*
X027371Y010562D01*
X027371Y010404D02*
X027522Y010404D01*
X027522Y010245D02*
X027371Y010245D01*
X027371Y010087D02*
X027522Y010087D01*
X027522Y009928D02*
X027371Y009928D01*
X027371Y009770D02*
X027522Y009770D01*
X027522Y009611D02*
X027371Y009611D01*
X027371Y009453D02*
X027522Y009453D01*
X027522Y009294D02*
X027371Y009294D01*
X027371Y009136D02*
X027522Y009136D01*
X027522Y008977D02*
X027371Y008977D01*
X027371Y008819D02*
X027522Y008819D01*
X027522Y008660D02*
X027371Y008660D01*
X027371Y008502D02*
X027522Y008502D01*
X027522Y008343D02*
X027371Y008343D01*
X027371Y008185D02*
X027522Y008185D01*
X027522Y008026D02*
X027371Y008026D01*
X027371Y007868D02*
X027522Y007868D01*
X027522Y007709D02*
X027371Y007709D01*
X027381Y007551D02*
X027522Y007551D01*
X027522Y007392D02*
X027313Y007392D01*
X027522Y007234D02*
X027028Y007234D01*
X026774Y007551D02*
X021289Y007551D01*
X021260Y007551D02*
X001564Y007551D01*
X001564Y007709D02*
X002035Y007709D01*
X002067Y007696D02*
X001914Y007760D01*
X001797Y007877D01*
X001733Y008030D01*
X001733Y008196D01*
X001797Y008349D01*
X001914Y008466D01*
X002067Y008530D01*
X002787Y008530D01*
X002940Y008466D01*
X003057Y008349D01*
X003120Y008196D01*
X003120Y008030D01*
X003057Y007877D01*
X002940Y007760D01*
X002787Y007696D01*
X002067Y007696D01*
X001806Y007868D02*
X001564Y007868D01*
X001564Y008026D02*
X001735Y008026D01*
X001733Y008185D02*
X001564Y008185D01*
X001564Y008343D02*
X001794Y008343D01*
X001999Y008502D02*
X001564Y008502D01*
X001564Y008660D02*
X003760Y008660D01*
X003760Y008502D02*
X002854Y008502D01*
X002787Y008696D02*
X002940Y008760D01*
X003057Y008877D01*
X003120Y009030D01*
X003120Y009196D01*
X003057Y009349D01*
X002940Y009466D01*
X002787Y009530D01*
X002067Y009530D01*
X001914Y009466D01*
X001797Y009349D01*
X001791Y009337D01*
X001568Y009337D01*
X001439Y009208D01*
X001131Y008900D01*
X001131Y009735D01*
X001317Y009921D01*
X001778Y009921D01*
X001797Y009877D01*
X001914Y009760D01*
X002067Y009696D01*
X002787Y009696D01*
X002940Y009760D01*
X003057Y009877D01*
X003120Y010030D01*
X003120Y010196D01*
X003057Y010349D01*
X002940Y010466D01*
X002787Y010530D01*
X002435Y010530D01*
X002289Y010676D01*
X002408Y010676D01*
X002408Y011095D01*
X002445Y011095D01*
X002445Y011131D01*
X003140Y011131D01*
X003140Y011147D01*
X003130Y011215D01*
X003108Y011281D01*
X003077Y011342D01*
X003037Y011398D01*
X002988Y011446D01*
X002933Y011487D01*
X002871Y011518D01*
X002806Y011539D01*
X002738Y011550D01*
X002445Y011550D01*
X002445Y011132D01*
X002408Y011132D01*
X002408Y011550D01*
X002116Y011550D01*
X002048Y011539D01*
X001982Y011518D01*
X001921Y011487D01*
X001865Y011446D01*
X001817Y011398D01*
X001794Y011366D01*
X001794Y012246D01*
X001804Y012219D01*
X001922Y012102D01*
X002075Y012039D01*
X002794Y012039D01*
X002948Y012102D01*
X003065Y012219D01*
X003128Y012373D01*
X003128Y012539D01*
X003065Y012692D01*
X002948Y012809D01*
X002794Y012872D01*
X002075Y012872D01*
X001922Y012809D01*
X001804Y012692D01*
X001794Y012666D01*
X001794Y013246D01*
X001804Y013219D01*
X001922Y013102D01*
X002075Y013039D01*
X002794Y013039D01*
X002948Y013102D01*
X003065Y013219D01*
X003068Y013228D01*
X003663Y013228D01*
X004155Y012736D01*
X004161Y012736D01*
X004104Y012712D01*
X004009Y012617D01*
X003812Y012420D01*
X003760Y012295D01*
X003760Y008282D01*
X003812Y008157D01*
X004048Y007920D01*
X004144Y007825D01*
X004269Y007773D01*
X005314Y007773D01*
X005327Y007760D01*
X005480Y007696D01*
X006200Y007696D01*
X006353Y007760D01*
X006470Y007877D01*
X006534Y008030D01*
X006534Y008196D01*
X006470Y008349D01*
X006353Y008466D01*
X006200Y008530D01*
X005480Y008530D01*
X005327Y008466D01*
X005314Y008453D01*
X004477Y008453D01*
X004440Y008490D01*
X004440Y012084D01*
X005326Y012084D01*
X005335Y012075D01*
X005488Y012011D01*
X006208Y012011D01*
X006361Y012075D01*
X006478Y012192D01*
X006542Y012345D01*
X006542Y012511D01*
X006478Y012664D01*
X006407Y012736D01*
X006419Y012736D01*
X006656Y012499D01*
X006656Y012066D01*
X006773Y011949D01*
X007260Y011461D01*
X007264Y011442D01*
X007317Y011404D01*
X007364Y011358D01*
X007383Y011358D01*
X007399Y011347D01*
X007464Y011358D01*
X007529Y011358D01*
X007543Y011372D01*
X007954Y011443D01*
X007954Y010031D01*
X008053Y009931D01*
X008588Y009397D01*
X008541Y009349D01*
X008477Y009196D01*
X008477Y009030D01*
X008541Y008877D01*
X008658Y008760D01*
X008811Y008696D01*
X009531Y008696D01*
X009684Y008760D01*
X009801Y008877D01*
X009865Y009030D01*
X009865Y009196D01*
X009801Y009349D01*
X009684Y009466D01*
X009531Y009530D01*
X008935Y009530D01*
X008739Y009726D01*
X008811Y009696D01*
X009531Y009696D01*
X009684Y009760D01*
X009801Y009877D01*
X009865Y010030D01*
X009865Y010196D01*
X009801Y010349D01*
X009684Y010466D01*
X009531Y010530D01*
X008811Y010530D01*
X008658Y010466D01*
X008541Y010349D01*
X008477Y010196D01*
X008477Y010030D01*
X008507Y009958D01*
X008294Y010172D01*
X008294Y011476D01*
X008650Y011476D01*
X008609Y011446D01*
X008561Y011398D01*
X008520Y011342D01*
X008489Y011281D01*
X008468Y011215D01*
X008457Y011147D01*
X008457Y011131D01*
X009152Y011131D01*
X009152Y011095D01*
X008457Y011095D01*
X008457Y011079D01*
X008468Y011011D01*
X008489Y010945D01*
X008520Y010884D01*
X008561Y010828D01*
X008609Y010780D01*
X008665Y010739D01*
X008726Y010708D01*
X008792Y010687D01*
X008860Y010676D01*
X009152Y010676D01*
X009152Y011095D01*
X009189Y011095D01*
X009189Y011131D01*
X009885Y011131D01*
X009885Y011147D01*
X009874Y011215D01*
X009853Y011281D01*
X009821Y011342D01*
X009781Y011398D01*
X009732Y011446D01*
X009691Y011476D01*
X011828Y011476D01*
X011821Y011469D01*
X011780Y011413D01*
X011749Y011352D01*
X011728Y011286D01*
X011717Y011218D01*
X011717Y011202D01*
X012412Y011202D01*
X012412Y011166D01*
X011717Y011166D01*
X011717Y011150D01*
X011728Y011082D01*
X011749Y011016D01*
X011780Y010955D01*
X011821Y010899D01*
X011869Y010851D01*
X011925Y010810D01*
X011986Y010779D01*
X012052Y010758D01*
X012119Y010747D01*
X012412Y010747D01*
X012412Y011166D01*
X012449Y011166D01*
X012449Y011202D01*
X013144Y011202D01*
X013144Y011218D01*
X013134Y011286D01*
X013112Y011352D01*
X013081Y011413D01*
X013041Y011469D01*
X013033Y011476D01*
X015227Y011476D01*
X015208Y011462D01*
X015159Y011413D01*
X015119Y011358D01*
X015088Y011297D01*
X015066Y011231D01*
X015056Y011163D01*
X015056Y011147D01*
X015751Y011147D01*
X015751Y011110D01*
X015788Y011110D01*
X015788Y011147D01*
X016483Y011147D01*
X016483Y011163D01*
X016472Y011231D01*
X016451Y011297D01*
X016420Y011358D01*
X016379Y011413D01*
X016331Y011462D01*
X016311Y011476D01*
X018787Y011476D01*
X018746Y011463D01*
X018685Y011432D01*
X018629Y011391D01*
X018580Y011343D01*
X018540Y011287D01*
X018509Y011226D01*
X018488Y011160D01*
X018477Y011092D01*
X018477Y011076D01*
X019172Y011076D01*
X019172Y011040D01*
X018477Y011040D01*
X018477Y011024D01*
X018488Y010956D01*
X018509Y010890D01*
X018540Y010829D01*
X018580Y010773D01*
X018629Y010725D01*
X018685Y010684D01*
X018746Y010653D01*
X018811Y010632D01*
X018879Y010621D01*
X019172Y010621D01*
X019172Y011040D01*
X019209Y011040D01*
X019209Y011076D01*
X019904Y011076D01*
X019904Y011092D01*
X019893Y011160D01*
X019872Y011226D01*
X019841Y011287D01*
X019801Y011343D01*
X019752Y011391D01*
X019696Y011432D01*
X019635Y011463D01*
X019594Y011476D01*
X022275Y011476D01*
X022234Y011463D01*
X022173Y011432D01*
X022117Y011391D01*
X022069Y011343D01*
X022028Y011287D01*
X021997Y011226D01*
X021976Y011160D01*
X021965Y011092D01*
X021965Y011076D01*
X022660Y011076D01*
X022660Y011040D01*
X021965Y011040D01*
X021965Y011024D01*
X021976Y010956D01*
X021997Y010890D01*
X022028Y010829D01*
X022069Y010773D01*
X022117Y010725D01*
X022173Y010684D01*
X022234Y010653D01*
X022300Y010632D01*
X022368Y010621D01*
X022660Y010621D01*
X022660Y011040D01*
X022697Y011040D01*
X022697Y011076D01*
X023392Y011076D01*
X023392Y011092D01*
X023382Y011160D01*
X023360Y011226D01*
X023329Y011287D01*
X023289Y011343D01*
X023240Y011391D01*
X023185Y011432D01*
X023123Y011463D01*
X023082Y011476D01*
X024075Y011476D01*
X024254Y011219D01*
X024254Y009546D01*
X024371Y009429D01*
X024966Y008834D01*
X025447Y008834D01*
X025462Y008798D01*
X025579Y008681D01*
X025732Y008617D01*
X026452Y008617D01*
X026605Y008681D01*
X026722Y008798D01*
X026786Y008951D01*
X026786Y009117D01*
X026722Y009270D01*
X026605Y009388D01*
X026452Y009451D01*
X025732Y009451D01*
X025579Y009388D01*
X025462Y009270D01*
X025447Y009234D01*
X025132Y009234D01*
X024654Y009712D01*
X024654Y011265D01*
X024666Y011329D01*
X024654Y011345D01*
X024654Y011365D01*
X024608Y011411D01*
X024379Y011739D01*
X024379Y011759D01*
X024333Y011805D01*
X024295Y011859D01*
X024276Y011862D01*
X024262Y011876D01*
X024196Y011876D01*
X024132Y011887D01*
X024116Y011876D01*
X008187Y011876D01*
X008171Y011887D01*
X008106Y011876D01*
X008041Y011876D01*
X008027Y011862D01*
X007514Y011773D01*
X007056Y012231D01*
X007056Y012664D01*
X006702Y013019D01*
X006584Y013136D01*
X006422Y013136D01*
X006478Y013192D01*
X006542Y013345D01*
X006542Y013511D01*
X006478Y013664D01*
X006361Y013781D01*
X006208Y013845D01*
X005488Y013845D01*
X005335Y013781D01*
X005218Y013664D01*
X005154Y013511D01*
X005154Y013345D01*
X005218Y013192D01*
X005274Y013136D01*
X004321Y013136D01*
X003946Y013511D01*
X003829Y013628D01*
X003091Y013628D01*
X003065Y013692D01*
X002948Y013809D01*
X002794Y013872D01*
X002075Y013872D01*
X001922Y013809D01*
X001804Y013692D01*
X001794Y013666D01*
X001794Y014031D01*
X001893Y014131D01*
X001922Y014102D01*
X002075Y014039D01*
X002794Y014039D01*
X002948Y014102D01*
X003065Y014219D01*
X003128Y014373D01*
X003128Y014539D01*
X003065Y014692D01*
X002948Y014809D01*
X002794Y014872D01*
X002075Y014872D01*
X001922Y014809D01*
X001804Y014692D01*
X001741Y014539D01*
X001741Y014459D01*
X001454Y014172D01*
X001454Y011031D01*
X001553Y010931D01*
X001987Y010497D01*
X001914Y010466D01*
X001808Y010361D01*
X001135Y010361D01*
X001006Y010232D01*
X000691Y009917D01*
X000691Y004577D01*
X000820Y004448D01*
X001603Y003665D01*
X001786Y003665D01*
X001806Y003685D01*
X004562Y003685D01*
X004530Y003653D01*
X004530Y002814D01*
X004647Y002697D01*
X006143Y001200D01*
X014301Y001200D01*
X014418Y001318D01*
X015020Y001920D01*
X015020Y001976D01*
X015057Y001991D01*
X015174Y002108D01*
X015237Y002261D01*
X015237Y002981D01*
X015174Y003134D01*
X015057Y003251D01*
X014970Y003287D01*
X015395Y003287D01*
X015508Y003175D01*
X015467Y003134D01*
X015404Y002981D01*
X015404Y002261D01*
X015467Y002108D01*
X015584Y001991D01*
X015738Y001927D01*
X015903Y001927D01*
X016057Y001991D01*
X016174Y002108D01*
X016237Y002261D01*
X016237Y002981D01*
X016174Y003134D01*
X016057Y003251D01*
X015954Y003294D01*
X015678Y003570D01*
X015561Y003687D01*
X012518Y003687D01*
X012213Y003936D01*
X012213Y004274D01*
X012233Y004248D01*
X012298Y004182D01*
X012373Y004127D01*
X012456Y004085D01*
X012545Y004056D01*
X012636Y004042D01*
X012654Y004042D01*
X012654Y005034D01*
X012093Y005034D01*
X012093Y004925D01*
X011820Y005252D01*
X011820Y005263D01*
X011768Y005315D01*
X011720Y005372D01*
X011710Y005373D01*
X011703Y005380D01*
X011629Y005380D01*
X011555Y005387D01*
X011547Y005380D01*
X008905Y005380D01*
X008905Y005514D01*
X008823Y005596D01*
X008117Y005596D01*
X008035Y005514D01*
X008035Y004886D01*
X008095Y004826D01*
X008035Y004766D01*
X008035Y004585D01*
X007462Y004585D01*
X007462Y004700D01*
X007380Y004782D01*
X006749Y004782D01*
X006667Y004700D01*
X006667Y004585D01*
X006458Y004585D01*
X006458Y005200D01*
X006376Y005282D01*
X005745Y005282D01*
X005663Y005200D01*
X005663Y004585D01*
X001975Y004585D01*
X001564Y004996D01*
X001564Y008711D01*
X001750Y008897D01*
X001788Y008897D01*
X001797Y008877D01*
X001914Y008760D01*
X002067Y008696D01*
X002787Y008696D01*
X002999Y008819D02*
X003760Y008819D01*
X003760Y008977D02*
X003099Y008977D01*
X003120Y009136D02*
X003760Y009136D01*
X003760Y009294D02*
X003080Y009294D01*
X002953Y009453D02*
X003760Y009453D01*
X003760Y009611D02*
X001131Y009611D01*
X001131Y009453D02*
X001900Y009453D01*
X001525Y009294D02*
X001131Y009294D01*
X001131Y009136D02*
X001367Y009136D01*
X001208Y008977D02*
X001131Y008977D01*
X001344Y008802D02*
X001659Y009117D01*
X002423Y009117D01*
X002427Y009113D01*
X001855Y008819D02*
X001672Y008819D01*
X001344Y008802D02*
X001344Y004904D01*
X001864Y004385D01*
X001862Y004698D02*
X005663Y004698D01*
X005663Y004856D02*
X001703Y004856D01*
X001564Y005015D02*
X005663Y005015D01*
X005663Y005173D02*
X001564Y005173D01*
X001564Y005332D02*
X006660Y005332D01*
X006660Y005490D02*
X006378Y005490D01*
X006372Y005484D02*
X006454Y005566D01*
X006454Y006196D01*
X006372Y006278D01*
X005742Y006278D01*
X005660Y006196D01*
X005660Y005566D01*
X005742Y005484D01*
X006372Y005484D01*
X006454Y005649D02*
X006660Y005649D01*
X006660Y005692D02*
X006660Y005062D01*
X006742Y004980D01*
X007372Y004980D01*
X007454Y005062D01*
X007454Y005692D01*
X007372Y005774D01*
X006742Y005774D01*
X006660Y005692D01*
X006454Y005807D02*
X009993Y005807D01*
X010040Y005760D02*
X009880Y005920D01*
X009793Y006130D01*
X009793Y006356D01*
X009880Y006566D01*
X010040Y006726D01*
X010250Y006813D01*
X010721Y006813D01*
X011020Y007171D01*
X011027Y007190D01*
X011073Y007235D01*
X011114Y007285D01*
X011132Y007294D01*
X011146Y007308D01*
X011205Y007332D01*
X011262Y007362D01*
X011282Y007364D01*
X011300Y007372D01*
X011364Y007372D01*
X011429Y007377D01*
X011447Y007372D01*
X012055Y007372D01*
X012101Y007380D01*
X012138Y007372D01*
X012176Y007372D01*
X012219Y007354D01*
X012265Y007344D01*
X012295Y007322D01*
X012330Y007308D01*
X012363Y007275D01*
X012715Y007029D01*
X012799Y006978D01*
X013338Y006978D01*
X013338Y007199D01*
X013420Y007281D01*
X014481Y007281D01*
X014563Y007199D01*
X014563Y006138D01*
X014481Y006056D01*
X013420Y006056D01*
X013338Y006138D01*
X013338Y006138D01*
X012734Y006138D01*
X012703Y006130D01*
X012652Y006138D01*
X012599Y006138D01*
X012570Y006150D01*
X012538Y006155D01*
X012493Y006182D01*
X012445Y006202D01*
X012422Y006224D01*
X012328Y006281D01*
X012313Y006284D01*
X012257Y006324D01*
X012198Y006359D01*
X012189Y006371D01*
X011960Y006532D01*
X011720Y006532D01*
X011793Y006356D01*
X011793Y006130D01*
X011706Y005920D01*
X011546Y005760D01*
X011336Y005673D01*
X010250Y005673D01*
X010040Y005760D01*
X009861Y005966D02*
X006454Y005966D01*
X006454Y006124D02*
X009795Y006124D01*
X009793Y006283D02*
X004486Y006283D01*
X004486Y006188D02*
X004345Y005846D01*
X004083Y005585D01*
X003742Y005443D01*
X003372Y005443D01*
X003030Y005585D01*
X002769Y005846D01*
X002627Y006188D01*
X002627Y006558D01*
X002769Y006899D01*
X003030Y007161D01*
X003372Y007303D01*
X003742Y007303D01*
X004083Y007161D01*
X004345Y006899D01*
X004486Y006558D01*
X004486Y006188D01*
X004460Y006124D02*
X005660Y006124D01*
X005660Y005966D02*
X004394Y005966D01*
X004306Y005807D02*
X005660Y005807D01*
X005660Y005649D02*
X004147Y005649D01*
X003855Y005490D02*
X005735Y005490D01*
X006458Y005173D02*
X006660Y005173D01*
X006706Y005015D02*
X006458Y005015D01*
X006458Y004856D02*
X008064Y004856D01*
X008035Y004698D02*
X007462Y004698D01*
X007407Y005015D02*
X008035Y005015D01*
X008035Y005173D02*
X007454Y005173D01*
X007454Y005332D02*
X008035Y005332D01*
X008035Y005490D02*
X007454Y005490D01*
X007454Y005649D02*
X012113Y005649D01*
X012107Y005630D02*
X012093Y005538D01*
X012093Y005090D01*
X012654Y005090D01*
X012654Y005034D01*
X012711Y005034D01*
X012711Y004042D01*
X012729Y004042D01*
X012821Y004056D01*
X012909Y004085D01*
X012992Y004127D01*
X013067Y004182D01*
X013133Y004248D01*
X013169Y004297D01*
X013169Y004251D01*
X013208Y004212D01*
X013218Y004187D01*
X013328Y004078D01*
X013352Y004068D01*
X013391Y004028D01*
X013447Y004028D01*
X013471Y004018D01*
X013626Y004018D01*
X013651Y004028D01*
X013706Y004028D01*
X013746Y004068D01*
X013770Y004078D01*
X013879Y004187D01*
X013889Y004212D01*
X013929Y004251D01*
X013929Y004307D01*
X013939Y004331D01*
X013939Y004664D01*
X014183Y004908D01*
X015359Y004908D01*
X015502Y004967D01*
X015974Y005440D01*
X016084Y005550D01*
X016144Y005693D01*
X016144Y006056D01*
X016213Y006056D01*
X016295Y006138D01*
X016295Y006634D01*
X016351Y006634D01*
X016586Y006398D01*
X016586Y005791D01*
X016668Y005709D01*
X017296Y005709D01*
X017356Y005769D01*
X017416Y005709D01*
X018044Y005709D01*
X018126Y005791D01*
X018126Y005945D01*
X018551Y005945D01*
X018601Y005894D01*
X019189Y005894D01*
X019271Y005976D01*
X019271Y006565D01*
X019189Y006647D01*
X018601Y006647D01*
X018519Y006565D01*
X018519Y006345D01*
X018126Y006345D01*
X018126Y006498D01*
X018044Y006580D01*
X017416Y006580D01*
X017356Y006520D01*
X017296Y006580D01*
X017117Y006580D01*
X016780Y006916D01*
X016663Y007034D01*
X016432Y007034D01*
X016295Y007170D01*
X016295Y007199D01*
X016213Y007281D01*
X015152Y007281D01*
X015070Y007199D01*
X015070Y006138D01*
X015152Y006056D01*
X015364Y006056D01*
X015364Y005932D01*
X015120Y005688D01*
X013944Y005688D01*
X013800Y005629D01*
X013691Y005519D01*
X013273Y005101D01*
X013273Y005538D01*
X013258Y005630D01*
X013229Y005718D01*
X013187Y005801D01*
X013133Y005876D01*
X013067Y005942D01*
X012992Y005997D01*
X012909Y006039D01*
X012821Y006067D01*
X012729Y006082D01*
X012711Y006082D01*
X012711Y005090D01*
X012654Y005090D01*
X012654Y006082D01*
X012636Y006082D01*
X012545Y006067D01*
X012456Y006039D01*
X012373Y005997D01*
X012298Y005942D01*
X012233Y005876D01*
X012178Y005801D01*
X012136Y005718D01*
X012107Y005630D01*
X012093Y005490D02*
X008905Y005490D01*
X008905Y004980D02*
X011526Y004980D01*
X011813Y004635D01*
X011813Y003913D01*
X011813Y003912D01*
X011813Y003927D01*
X011798Y004019D01*
X011770Y004107D01*
X011728Y004190D01*
X011673Y004265D01*
X011607Y004331D01*
X011532Y004385D01*
X011449Y004428D01*
X011361Y004456D01*
X011269Y004471D01*
X010821Y004471D01*
X010821Y003909D01*
X010765Y003909D01*
X010765Y004471D01*
X010316Y004471D01*
X010225Y004456D01*
X010136Y004428D01*
X010054Y004385D01*
X009979Y004331D01*
X009913Y004265D01*
X009858Y004190D01*
X009816Y004107D01*
X009787Y004019D01*
X009773Y003927D01*
X009773Y003909D01*
X010765Y003909D01*
X010765Y003853D01*
X009773Y003853D01*
X009773Y003834D01*
X009787Y003743D01*
X009816Y003654D01*
X009858Y003572D01*
X009913Y003496D01*
X009979Y003431D01*
X010054Y003376D01*
X010136Y003334D01*
X010225Y003305D01*
X010316Y003291D01*
X010765Y003291D01*
X010765Y003853D01*
X010821Y003853D01*
X010821Y003291D01*
X011269Y003291D01*
X011361Y003305D01*
X011449Y003334D01*
X011532Y003376D01*
X011607Y003431D01*
X011673Y003496D01*
X011728Y003572D01*
X011770Y003654D01*
X011798Y003743D01*
X011813Y003834D01*
X011813Y003836D01*
X011813Y003831D01*
X011813Y003759D01*
X011821Y003750D01*
X011823Y003739D01*
X011879Y003693D01*
X011931Y003641D01*
X011942Y003641D01*
X012312Y003339D01*
X012364Y003287D01*
X012375Y003287D01*
X012384Y003280D01*
X012456Y003287D01*
X014671Y003287D01*
X014584Y003251D01*
X014467Y003134D01*
X014404Y002981D01*
X014404Y002261D01*
X014467Y002108D01*
X014555Y002020D01*
X014135Y001600D01*
X006309Y001600D01*
X004930Y002979D01*
X004930Y003487D01*
X005128Y003685D01*
X005660Y003685D01*
X005660Y003570D01*
X005742Y003488D01*
X006372Y003488D01*
X006454Y003570D01*
X006454Y004185D01*
X006667Y004185D01*
X006667Y004070D01*
X006749Y003988D01*
X007380Y003988D01*
X007462Y004070D01*
X007462Y004185D01*
X008035Y004185D01*
X008035Y004138D01*
X008117Y004056D01*
X008823Y004056D01*
X008905Y004138D01*
X008905Y004766D01*
X008845Y004826D01*
X008905Y004886D01*
X008905Y004980D01*
X008876Y004856D02*
X011629Y004856D01*
X011761Y004698D02*
X008905Y004698D01*
X008905Y004539D02*
X011813Y004539D01*
X011813Y004381D02*
X011539Y004381D01*
X011704Y004222D02*
X011813Y004222D01*
X011813Y004064D02*
X011784Y004064D01*
X012213Y004064D02*
X012522Y004064D01*
X012654Y004064D02*
X012711Y004064D01*
X012843Y004064D02*
X013356Y004064D01*
X013197Y004222D02*
X013107Y004222D01*
X012711Y004222D02*
X012654Y004222D01*
X012654Y004381D02*
X012711Y004381D01*
X012711Y004539D02*
X012654Y004539D01*
X012654Y004698D02*
X012711Y004698D01*
X012711Y004856D02*
X012654Y004856D01*
X012654Y005015D02*
X012711Y005015D01*
X012711Y005173D02*
X012654Y005173D01*
X012654Y005332D02*
X012711Y005332D01*
X012711Y005490D02*
X012654Y005490D01*
X012654Y005649D02*
X012711Y005649D01*
X012711Y005807D02*
X012654Y005807D01*
X012654Y005966D02*
X012711Y005966D01*
X013034Y005966D02*
X015364Y005966D01*
X015239Y005807D02*
X013183Y005807D01*
X013252Y005649D02*
X013849Y005649D01*
X013662Y005490D02*
X013273Y005490D01*
X013273Y005332D02*
X013503Y005332D01*
X013345Y005173D02*
X013273Y005173D01*
X013972Y004698D02*
X017666Y004698D01*
X017507Y004539D02*
X013939Y004539D01*
X013939Y004381D02*
X017349Y004381D01*
X017219Y004222D02*
X013900Y004222D01*
X013742Y004064D02*
X017219Y004064D01*
X017219Y003905D02*
X012251Y003905D01*
X012445Y003747D02*
X017219Y003747D01*
X017219Y003588D02*
X015660Y003588D01*
X015818Y003430D02*
X017219Y003430D01*
X017219Y003271D02*
X016008Y003271D01*
X016183Y003113D02*
X017084Y003113D01*
X017007Y002954D02*
X016237Y002954D01*
X016237Y002796D02*
X017002Y002796D01*
X017002Y002637D02*
X016237Y002637D01*
X016237Y002479D02*
X017002Y002479D01*
X017002Y002320D02*
X016237Y002320D01*
X016196Y002162D02*
X017027Y002162D01*
X017131Y002003D02*
X016069Y002003D01*
X015572Y002003D02*
X015069Y002003D01*
X014945Y001845D02*
X020396Y001845D01*
X020396Y002003D02*
X018707Y002003D01*
X018811Y002162D02*
X020396Y002162D01*
X020396Y002320D02*
X018836Y002320D01*
X018836Y002479D02*
X020377Y002479D01*
X020796Y002479D02*
X022053Y002479D01*
X022053Y002637D02*
X021848Y002637D01*
X021848Y002581D02*
X021848Y003212D01*
X021766Y003294D01*
X021135Y003294D01*
X021053Y003212D01*
X021053Y002581D01*
X021135Y002499D01*
X021766Y002499D01*
X021848Y002581D01*
X021848Y002796D02*
X022994Y002796D01*
X022994Y002954D02*
X021848Y002954D01*
X021848Y003113D02*
X022049Y003113D01*
X022049Y003074D02*
X022131Y002991D01*
X022762Y002991D01*
X022844Y003074D01*
X022844Y003704D01*
X022762Y003786D01*
X022131Y003786D01*
X022049Y003704D01*
X022049Y003074D01*
X022049Y003271D02*
X021788Y003271D01*
X022049Y003430D02*
X020323Y003430D01*
X020323Y003588D02*
X021045Y003588D01*
X020605Y003747D02*
X020323Y003747D01*
X020323Y003905D02*
X020446Y003905D01*
X020435Y004064D02*
X017619Y004064D01*
X017619Y003905D02*
X019452Y003905D01*
X019452Y003430D02*
X018853Y003430D01*
X018695Y003271D02*
X019493Y003271D01*
X019452Y003113D02*
X018754Y003113D01*
X018830Y002954D02*
X019452Y002954D01*
X019452Y002796D02*
X018836Y002796D01*
X018836Y002637D02*
X019452Y002637D01*
X020323Y003113D02*
X021053Y003113D01*
X021053Y002954D02*
X020467Y002954D01*
X020625Y002796D02*
X021053Y002796D01*
X021053Y002637D02*
X020784Y002637D01*
X020796Y002320D02*
X022053Y002320D01*
X022053Y002162D02*
X020796Y002162D01*
X020796Y002003D02*
X022127Y002003D01*
X022135Y001995D02*
X022053Y002077D01*
X022053Y002708D01*
X022135Y002790D01*
X022766Y002790D01*
X022848Y002708D01*
X022848Y002077D01*
X022766Y001995D01*
X022135Y001995D01*
X022773Y002003D02*
X022924Y002003D01*
X022994Y002162D02*
X022848Y002162D01*
X022848Y002320D02*
X022994Y002320D01*
X022994Y002479D02*
X022848Y002479D01*
X022848Y002637D02*
X022994Y002637D01*
X023394Y002637D02*
X024373Y002637D01*
X024424Y002689D02*
X024162Y002427D01*
X024021Y002085D01*
X024021Y001716D01*
X024162Y001374D01*
X024424Y001112D01*
X024765Y000971D01*
X025135Y000971D01*
X025477Y001112D01*
X025738Y001374D01*
X025880Y001716D01*
X025880Y002085D01*
X025738Y002427D01*
X025477Y002689D01*
X025135Y002830D01*
X024765Y002830D01*
X024424Y002689D01*
X024683Y002796D02*
X023394Y002796D01*
X023394Y002954D02*
X028186Y002954D01*
X028186Y002796D02*
X025218Y002796D01*
X025528Y002637D02*
X028186Y002637D01*
X028187Y002479D02*
X025687Y002479D01*
X025783Y002320D02*
X028187Y002320D01*
X028187Y002162D02*
X025848Y002162D01*
X025880Y002003D02*
X028187Y002003D01*
X028188Y001845D02*
X025880Y001845D01*
X025868Y001686D02*
X028188Y001686D01*
X028188Y001528D02*
X025802Y001528D01*
X025734Y001369D02*
X028188Y001369D01*
X028188Y001211D02*
X025575Y001211D01*
X025332Y001052D02*
X028189Y001052D01*
X028189Y000894D02*
X000402Y000894D01*
X000402Y001052D02*
X003137Y001052D01*
X003030Y001097D02*
X003372Y000955D01*
X003742Y000955D01*
X004083Y001097D01*
X004345Y001358D01*
X004486Y001700D01*
X004486Y002070D01*
X004345Y002411D01*
X004083Y002673D01*
X003742Y002814D01*
X003372Y002814D01*
X003030Y002673D01*
X002769Y002411D01*
X002627Y002070D01*
X002627Y001700D01*
X002769Y001358D01*
X003030Y001097D01*
X002916Y001211D02*
X000402Y001211D01*
X000402Y001369D02*
X002764Y001369D01*
X002698Y001528D02*
X000402Y001528D01*
X000401Y001686D02*
X002633Y001686D01*
X002627Y001845D02*
X000401Y001845D01*
X000401Y002003D02*
X002627Y002003D01*
X002665Y002162D02*
X000401Y002162D01*
X000400Y002320D02*
X002731Y002320D01*
X002836Y002479D02*
X000400Y002479D01*
X000400Y002637D02*
X002995Y002637D01*
X003327Y002796D02*
X000400Y002796D01*
X000400Y002954D02*
X004530Y002954D01*
X004530Y003113D02*
X000399Y003113D01*
X000399Y003271D02*
X004530Y003271D01*
X004530Y003430D02*
X000399Y003430D01*
X000399Y003588D02*
X004530Y003588D01*
X004930Y003430D02*
X006655Y003430D01*
X006655Y003413D02*
X007064Y003413D01*
X007064Y003822D01*
X006794Y003822D01*
X006754Y003811D01*
X006717Y003790D01*
X006687Y003760D01*
X006666Y003723D01*
X006655Y003683D01*
X006655Y003413D01*
X006655Y003396D02*
X006655Y003126D01*
X006666Y003085D01*
X006687Y003049D01*
X006717Y003019D01*
X006754Y002998D01*
X006794Y002987D01*
X007064Y002987D01*
X007064Y003396D01*
X006655Y003396D01*
X006655Y003271D02*
X006419Y003271D01*
X006412Y003278D02*
X006376Y003299D01*
X006335Y003310D01*
X006065Y003310D01*
X006065Y002901D01*
X006048Y002901D01*
X006048Y002884D01*
X005640Y002884D01*
X005640Y002614D01*
X005650Y002574D01*
X005671Y002537D01*
X005701Y002507D01*
X005738Y002486D01*
X005778Y002475D01*
X006048Y002475D01*
X006048Y002884D01*
X006065Y002884D01*
X006065Y002475D01*
X006335Y002475D01*
X006376Y002486D01*
X006412Y002507D01*
X006442Y002537D01*
X006463Y002574D01*
X006474Y002614D01*
X006474Y002884D01*
X006065Y002884D01*
X006065Y002901D01*
X006474Y002901D01*
X006474Y003171D01*
X006463Y003212D01*
X006442Y003248D01*
X006412Y003278D01*
X006474Y003113D02*
X006659Y003113D01*
X006474Y002954D02*
X014404Y002954D01*
X014404Y002796D02*
X007388Y002796D01*
X007391Y002795D02*
X007351Y002806D01*
X007081Y002806D01*
X007081Y002397D01*
X007490Y002397D01*
X007490Y002667D01*
X007479Y002708D01*
X007458Y002744D01*
X007428Y002774D01*
X007391Y002795D01*
X007490Y002637D02*
X013240Y002637D01*
X013169Y002566D02*
X013169Y002251D01*
X013391Y002028D01*
X013706Y002028D01*
X013929Y002251D01*
X013929Y002566D01*
X013706Y002788D01*
X013391Y002788D01*
X013169Y002566D01*
X013169Y002479D02*
X007490Y002479D01*
X007490Y002380D02*
X007490Y002110D01*
X007479Y002070D01*
X007458Y002033D01*
X007428Y002003D01*
X007391Y001982D01*
X007351Y001971D01*
X007081Y001971D01*
X007081Y002380D01*
X007064Y002380D01*
X007064Y001971D01*
X006794Y001971D01*
X006754Y001982D01*
X006717Y002003D01*
X005906Y002003D01*
X006065Y001845D02*
X014380Y001845D01*
X014538Y002003D02*
X007427Y002003D01*
X007490Y002162D02*
X013258Y002162D01*
X013169Y002320D02*
X007490Y002320D01*
X007490Y002380D02*
X007081Y002380D01*
X007081Y002397D01*
X007064Y002397D01*
X007064Y002380D01*
X006655Y002380D01*
X006655Y002110D01*
X006666Y002070D01*
X006687Y002033D01*
X006717Y002003D01*
X006655Y002162D02*
X005748Y002162D01*
X005589Y002320D02*
X006655Y002320D01*
X006655Y002397D02*
X007064Y002397D01*
X007064Y002806D01*
X006794Y002806D01*
X006754Y002795D01*
X006717Y002774D01*
X006687Y002744D01*
X006666Y002708D01*
X006655Y002667D01*
X006655Y002397D01*
X006655Y002479D02*
X006347Y002479D01*
X006474Y002637D02*
X006655Y002637D01*
X006757Y002796D02*
X006474Y002796D01*
X006065Y002796D02*
X006048Y002796D01*
X006048Y002901D02*
X005640Y002901D01*
X005640Y003171D01*
X005650Y003212D01*
X005671Y003248D01*
X005701Y003278D01*
X005738Y003299D01*
X005778Y003310D01*
X006048Y003310D01*
X006048Y002901D01*
X006048Y002954D02*
X006065Y002954D01*
X006048Y003113D02*
X006065Y003113D01*
X006048Y003271D02*
X006065Y003271D01*
X005695Y003271D02*
X004930Y003271D01*
X004930Y003113D02*
X005640Y003113D01*
X005640Y002954D02*
X004955Y002954D01*
X005114Y002796D02*
X005640Y002796D01*
X005640Y002637D02*
X005272Y002637D01*
X005431Y002479D02*
X005766Y002479D01*
X006048Y002479D02*
X006065Y002479D01*
X006048Y002637D02*
X006065Y002637D01*
X005340Y002003D02*
X004486Y002003D01*
X004486Y001845D02*
X005499Y001845D01*
X005657Y001686D02*
X004481Y001686D01*
X004415Y001528D02*
X005816Y001528D01*
X005974Y001369D02*
X004349Y001369D01*
X004197Y001211D02*
X006133Y001211D01*
X006223Y001686D02*
X014221Y001686D01*
X014470Y001369D02*
X020778Y001369D01*
X020619Y001528D02*
X014628Y001528D01*
X014787Y001686D02*
X020461Y001686D01*
X020868Y001845D02*
X022765Y001845D01*
X023014Y001528D02*
X024099Y001528D01*
X024033Y001686D02*
X023173Y001686D01*
X023331Y001845D02*
X024021Y001845D01*
X024021Y002003D02*
X023394Y002003D01*
X023394Y002162D02*
X024052Y002162D01*
X024118Y002320D02*
X023394Y002320D01*
X023394Y002479D02*
X024214Y002479D01*
X023394Y003113D02*
X028186Y003113D01*
X028186Y003271D02*
X023394Y003271D01*
X023394Y003430D02*
X028185Y003430D01*
X028185Y003588D02*
X023394Y003588D01*
X023394Y003747D02*
X028185Y003747D01*
X028185Y003905D02*
X023394Y003905D01*
X023394Y004064D02*
X028184Y004064D01*
X028184Y004222D02*
X026772Y004222D01*
X026930Y004381D02*
X028184Y004381D01*
X028184Y004539D02*
X027089Y004539D01*
X027247Y004698D02*
X028183Y004698D01*
X028183Y004856D02*
X027406Y004856D01*
X027564Y005015D02*
X028183Y005015D01*
X028183Y005173D02*
X027723Y005173D01*
X027881Y005332D02*
X028183Y005332D01*
X028182Y005490D02*
X027922Y005490D01*
X027922Y005649D02*
X028182Y005649D01*
X028182Y005807D02*
X027922Y005807D01*
X027922Y005966D02*
X028182Y005966D01*
X028181Y006124D02*
X027922Y006124D01*
X027922Y006283D02*
X028181Y006283D01*
X028181Y006441D02*
X027922Y006441D01*
X027922Y006600D02*
X028181Y006600D01*
X028181Y006758D02*
X027922Y006758D01*
X027922Y006917D02*
X028180Y006917D01*
X028180Y007075D02*
X027922Y007075D01*
X027922Y007234D02*
X028180Y007234D01*
X028180Y007392D02*
X027922Y007392D01*
X027922Y007551D02*
X028179Y007551D01*
X028179Y007709D02*
X027922Y007709D01*
X027922Y007868D02*
X028179Y007868D01*
X028179Y008026D02*
X027922Y008026D01*
X027922Y008185D02*
X028178Y008185D01*
X028178Y008343D02*
X027922Y008343D01*
X027922Y008502D02*
X028178Y008502D01*
X028178Y008660D02*
X027922Y008660D01*
X027922Y008819D02*
X028178Y008819D01*
X028177Y008977D02*
X027922Y008977D01*
X027922Y009136D02*
X028177Y009136D01*
X028177Y009294D02*
X027922Y009294D01*
X027922Y009453D02*
X028177Y009453D01*
X028176Y009611D02*
X027922Y009611D01*
X027922Y009770D02*
X028176Y009770D01*
X028176Y009928D02*
X027922Y009928D01*
X027922Y010087D02*
X028176Y010087D01*
X028176Y010245D02*
X027922Y010245D01*
X027922Y010404D02*
X028175Y010404D01*
X028175Y010562D02*
X027922Y010562D01*
X027922Y010721D02*
X028175Y010721D01*
X028175Y010879D02*
X027922Y010879D01*
X027922Y011038D02*
X028174Y011038D01*
X028174Y011196D02*
X027922Y011196D01*
X027922Y011355D02*
X028174Y011355D01*
X028174Y011513D02*
X027922Y011513D01*
X027922Y011672D02*
X028173Y011672D01*
X028173Y011830D02*
X027922Y011830D01*
X027922Y011989D02*
X028173Y011989D01*
X028173Y012147D02*
X027922Y012147D01*
X027922Y012306D02*
X028173Y012306D01*
X028172Y012464D02*
X027922Y012464D01*
X027922Y012623D02*
X028172Y012623D01*
X028172Y012781D02*
X027922Y012781D01*
X027922Y012940D02*
X028172Y012940D01*
X028171Y013098D02*
X027922Y013098D01*
X027922Y013257D02*
X028171Y013257D01*
X028171Y013415D02*
X027922Y013415D01*
X027922Y013574D02*
X028171Y013574D01*
X028171Y013732D02*
X027922Y013732D01*
X027922Y013891D02*
X028170Y013891D01*
X028170Y014049D02*
X027922Y014049D01*
X027875Y014208D02*
X028170Y014208D01*
X028170Y014366D02*
X027716Y014366D01*
X027558Y014525D02*
X028169Y014525D01*
X028169Y014683D02*
X027399Y014683D01*
X027309Y014208D02*
X026604Y014208D01*
X026360Y014049D02*
X027468Y014049D01*
X026765Y013098D02*
X026478Y013098D01*
X026353Y012880D02*
X025634Y012880D01*
X025481Y012817D01*
X025363Y012700D01*
X025300Y012546D01*
X025300Y012381D01*
X025363Y012227D01*
X025481Y012110D01*
X025634Y012047D01*
X026353Y012047D01*
X026507Y012110D01*
X026624Y012227D01*
X026687Y012381D01*
X026687Y012546D01*
X026624Y012700D01*
X026507Y012817D01*
X026353Y012880D01*
X026542Y012781D02*
X026971Y012781D01*
X026971Y012623D02*
X026656Y012623D01*
X026687Y012464D02*
X026971Y012464D01*
X026971Y012306D02*
X026656Y012306D01*
X026544Y012147D02*
X026971Y012147D01*
X026971Y011989D02*
X009576Y011989D01*
X009554Y011980D02*
X009707Y012043D01*
X009825Y012160D01*
X009888Y012314D01*
X009888Y012479D01*
X009825Y012633D01*
X009707Y012750D01*
X009554Y012813D01*
X008835Y012813D01*
X008682Y012750D01*
X008564Y012633D01*
X008501Y012479D01*
X008501Y012314D01*
X008564Y012160D01*
X008682Y012043D01*
X008835Y011980D01*
X009554Y011980D01*
X009812Y012147D02*
X011912Y012147D01*
X011953Y012106D02*
X012106Y012043D01*
X012826Y012043D01*
X012979Y012106D01*
X013096Y012223D01*
X013160Y012377D01*
X013160Y012542D01*
X013096Y012696D01*
X012979Y012813D01*
X012826Y012876D01*
X012106Y012876D01*
X011953Y012813D01*
X011836Y012696D01*
X011772Y012542D01*
X011772Y012377D01*
X011836Y012223D01*
X011953Y012106D01*
X011802Y012306D02*
X009885Y012306D01*
X009888Y012464D02*
X011772Y012464D01*
X011806Y012623D02*
X009829Y012623D01*
X009632Y012781D02*
X011922Y012781D01*
X012106Y013043D02*
X011953Y013106D01*
X011836Y013223D01*
X011772Y013377D01*
X011772Y013542D01*
X011836Y013696D01*
X011953Y013813D01*
X012106Y013876D01*
X012826Y013876D01*
X012979Y013813D01*
X013096Y013696D01*
X013160Y013542D01*
X013160Y013377D01*
X013096Y013223D01*
X012979Y013106D01*
X012826Y013043D01*
X012106Y013043D01*
X011972Y013098D02*
X009763Y013098D01*
X009707Y013043D02*
X009554Y012980D01*
X008835Y012980D01*
X008682Y013043D01*
X008564Y013160D01*
X008501Y013314D01*
X008501Y013479D01*
X008564Y013633D01*
X008682Y013750D01*
X008835Y013813D01*
X009554Y013813D01*
X009707Y013750D01*
X009825Y013633D01*
X009888Y013479D01*
X009888Y013314D01*
X009825Y013160D01*
X009707Y013043D01*
X009865Y013257D02*
X011822Y013257D01*
X011772Y013415D02*
X009888Y013415D01*
X009849Y013574D02*
X011785Y013574D01*
X011873Y013732D02*
X009725Y013732D01*
X009554Y013980D02*
X009707Y014043D01*
X009825Y014160D01*
X009888Y014314D01*
X009888Y014479D01*
X009825Y014633D01*
X009707Y014750D01*
X009554Y014813D01*
X008835Y014813D01*
X008682Y014750D01*
X008564Y014633D01*
X008501Y014479D01*
X008501Y014314D01*
X008564Y014160D01*
X008682Y014043D01*
X008835Y013980D01*
X009554Y013980D01*
X009714Y014049D02*
X012090Y014049D01*
X012106Y014043D02*
X011953Y014106D01*
X011836Y014223D01*
X011772Y014377D01*
X011772Y014542D01*
X011836Y014696D01*
X011953Y014813D01*
X012106Y014876D01*
X012826Y014876D01*
X012979Y014813D01*
X013096Y014696D01*
X013160Y014542D01*
X013160Y014377D01*
X013096Y014223D01*
X012979Y014106D01*
X012826Y014043D01*
X012106Y014043D01*
X011852Y014208D02*
X009844Y014208D01*
X009888Y014366D02*
X011777Y014366D01*
X011772Y014525D02*
X009869Y014525D01*
X009774Y014683D02*
X011831Y014683D01*
X012023Y014842D02*
X006215Y014842D01*
X006208Y014845D02*
X005488Y014845D01*
X005335Y014781D01*
X005218Y014664D01*
X005154Y014511D01*
X005154Y014345D01*
X005218Y014192D01*
X005335Y014075D01*
X005488Y014011D01*
X006208Y014011D01*
X006361Y014075D01*
X006478Y014192D01*
X006542Y014345D01*
X006542Y014511D01*
X006478Y014664D01*
X006361Y014781D01*
X006208Y014845D01*
X006159Y014991D02*
X005866Y014991D01*
X005866Y015410D01*
X005830Y015410D01*
X005830Y014991D01*
X005537Y014991D01*
X005469Y015002D01*
X005403Y015023D01*
X005342Y015054D01*
X005287Y015095D01*
X005238Y015143D01*
X005198Y015199D01*
X005166Y015260D01*
X005145Y015326D01*
X005134Y015394D01*
X005134Y015410D01*
X005830Y015410D01*
X005830Y015446D01*
X005134Y015446D01*
X005134Y015462D01*
X005145Y015530D01*
X005166Y015596D01*
X005198Y015657D01*
X005238Y015713D01*
X005287Y015761D01*
X005342Y015802D01*
X005403Y015833D01*
X005469Y015854D01*
X005537Y015865D01*
X005830Y015865D01*
X005830Y015446D01*
X005866Y015446D01*
X005866Y015865D01*
X006159Y015865D01*
X006227Y015854D01*
X006293Y015833D01*
X006354Y015802D01*
X006409Y015761D01*
X006458Y015713D01*
X006499Y015657D01*
X006530Y015596D01*
X006551Y015530D01*
X006562Y015462D01*
X006562Y015446D01*
X005866Y015446D01*
X005866Y015410D01*
X006562Y015410D01*
X006562Y015394D01*
X006551Y015326D01*
X006530Y015260D01*
X006499Y015199D01*
X006458Y015143D01*
X006409Y015095D01*
X006354Y015054D01*
X006293Y015023D01*
X006227Y015002D01*
X006159Y014991D01*
X006217Y015000D02*
X008733Y015000D01*
X008750Y014992D02*
X008815Y014970D01*
X008883Y014960D01*
X009176Y014960D01*
X009176Y015378D01*
X009213Y015378D01*
X009213Y015415D01*
X009908Y015415D01*
X009908Y015431D01*
X009897Y015499D01*
X009876Y015564D01*
X009845Y015625D01*
X009805Y015681D01*
X009756Y015730D01*
X009700Y015770D01*
X009639Y015801D01*
X009574Y015823D01*
X009506Y015833D01*
X009213Y015833D01*
X009213Y015415D01*
X009176Y015415D01*
X009176Y015378D01*
X008481Y015378D01*
X008481Y015362D01*
X008492Y015294D01*
X008513Y015229D01*
X008544Y015168D01*
X008584Y015112D01*
X008633Y015063D01*
X008689Y015023D01*
X008750Y014992D01*
X008550Y015159D02*
X006469Y015159D01*
X006548Y015317D02*
X008488Y015317D01*
X008481Y015415D02*
X009176Y015415D01*
X009176Y015833D01*
X008883Y015833D01*
X008815Y015823D01*
X008750Y015801D01*
X008689Y015770D01*
X008633Y015730D01*
X008584Y015681D01*
X008544Y015625D01*
X008513Y015564D01*
X008492Y015499D01*
X008481Y015431D01*
X008481Y015415D01*
X008488Y015476D02*
X006560Y015476D01*
X006510Y015634D02*
X008550Y015634D01*
X008733Y015793D02*
X006366Y015793D01*
X005866Y015793D02*
X005830Y015793D01*
X005830Y015634D02*
X005866Y015634D01*
X005866Y015476D02*
X005830Y015476D01*
X005830Y015317D02*
X005866Y015317D01*
X005866Y015159D02*
X005830Y015159D01*
X005830Y015000D02*
X005866Y015000D01*
X005479Y015000D02*
X000382Y015000D01*
X000382Y014842D02*
X002001Y014842D01*
X002055Y015029D02*
X001990Y015051D01*
X001929Y015082D01*
X001873Y015122D01*
X001825Y015171D01*
X001784Y015227D01*
X001753Y015288D01*
X001732Y015353D01*
X001721Y015421D01*
X001721Y015437D01*
X002416Y015437D01*
X002416Y015474D01*
X001721Y015474D01*
X001721Y015490D01*
X001732Y015558D01*
X001753Y015623D01*
X001784Y015685D01*
X001825Y015740D01*
X001873Y015789D01*
X001929Y015829D01*
X001990Y015860D01*
X002055Y015882D01*
X002123Y015892D01*
X002416Y015892D01*
X002416Y015474D01*
X002453Y015474D01*
X002453Y015892D01*
X002746Y015892D01*
X002814Y015882D01*
X002879Y015860D01*
X002940Y015829D01*
X002996Y015789D01*
X003045Y015740D01*
X003085Y015685D01*
X003116Y015623D01*
X003138Y015558D01*
X003148Y015490D01*
X003148Y015474D01*
X002453Y015474D01*
X002453Y015437D01*
X002453Y015019D01*
X002746Y015019D01*
X002814Y015029D01*
X002879Y015051D01*
X002940Y015082D01*
X002996Y015122D01*
X003045Y015171D01*
X003085Y015227D01*
X003116Y015288D01*
X003138Y015353D01*
X003148Y015421D01*
X003148Y015437D01*
X002453Y015437D01*
X002416Y015437D01*
X002416Y015019D01*
X002123Y015019D01*
X002055Y015029D01*
X001837Y015159D02*
X000382Y015159D01*
X000382Y015317D02*
X001743Y015317D01*
X001721Y015476D02*
X000382Y015476D01*
X000381Y015634D02*
X001759Y015634D01*
X001879Y015793D02*
X000381Y015793D01*
X000383Y014683D02*
X001801Y014683D01*
X001741Y014525D02*
X000383Y014525D01*
X000383Y014366D02*
X001648Y014366D01*
X001490Y014208D02*
X000383Y014208D01*
X000384Y014049D02*
X001454Y014049D01*
X001454Y013891D02*
X000384Y013891D01*
X000384Y013732D02*
X001454Y013732D01*
X001454Y013574D02*
X000384Y013574D01*
X000385Y013415D02*
X001454Y013415D01*
X001454Y013257D02*
X000385Y013257D01*
X000385Y013098D02*
X001454Y013098D01*
X001454Y012940D02*
X000385Y012940D01*
X000385Y012781D02*
X001454Y012781D01*
X001454Y012623D02*
X000386Y012623D01*
X000386Y012464D02*
X001454Y012464D01*
X001454Y012306D02*
X000386Y012306D01*
X000386Y012147D02*
X001454Y012147D01*
X001454Y011989D02*
X000387Y011989D01*
X000387Y011830D02*
X001454Y011830D01*
X001454Y011672D02*
X000387Y011672D01*
X000387Y011513D02*
X001454Y011513D01*
X001454Y011355D02*
X000387Y011355D01*
X000388Y011196D02*
X001454Y011196D01*
X001454Y011038D02*
X000388Y011038D01*
X000388Y010879D02*
X001605Y010879D01*
X001764Y010721D02*
X000388Y010721D01*
X000389Y010562D02*
X001922Y010562D01*
X001851Y010404D02*
X000389Y010404D01*
X000389Y010245D02*
X001020Y010245D01*
X000861Y010087D02*
X000389Y010087D01*
X000390Y009928D02*
X000703Y009928D01*
X000691Y009770D02*
X000390Y009770D01*
X000390Y009611D02*
X000691Y009611D01*
X000691Y009453D02*
X000390Y009453D01*
X000390Y009294D02*
X000691Y009294D01*
X000691Y009136D02*
X000391Y009136D01*
X000391Y008977D02*
X000691Y008977D01*
X000691Y008819D02*
X000391Y008819D01*
X000391Y008660D02*
X000691Y008660D01*
X000691Y008502D02*
X000392Y008502D01*
X000392Y008343D02*
X000691Y008343D01*
X000691Y008185D02*
X000392Y008185D01*
X000392Y008026D02*
X000691Y008026D01*
X000691Y007868D02*
X000392Y007868D01*
X000393Y007709D02*
X000691Y007709D01*
X000691Y007551D02*
X000393Y007551D01*
X000393Y007392D02*
X000691Y007392D01*
X000691Y007234D02*
X000393Y007234D01*
X000394Y007075D02*
X000691Y007075D01*
X000691Y006917D02*
X000394Y006917D01*
X000394Y006758D02*
X000691Y006758D01*
X000691Y006600D02*
X000394Y006600D01*
X000395Y006441D02*
X000691Y006441D01*
X000691Y006283D02*
X000395Y006283D01*
X000395Y006124D02*
X000691Y006124D01*
X000691Y005966D02*
X000395Y005966D01*
X000395Y005807D02*
X000691Y005807D01*
X000691Y005649D02*
X000396Y005649D01*
X000396Y005490D02*
X000691Y005490D01*
X000691Y005332D02*
X000396Y005332D01*
X000396Y005173D02*
X000691Y005173D01*
X000691Y005015D02*
X000397Y005015D01*
X000397Y004856D02*
X000691Y004856D01*
X000691Y004698D02*
X000397Y004698D01*
X000397Y004539D02*
X000729Y004539D01*
X000911Y004668D02*
X000911Y009826D01*
X001226Y010141D01*
X002399Y010141D01*
X002427Y010113D01*
X002950Y009770D02*
X003760Y009770D01*
X003760Y009928D02*
X003078Y009928D01*
X003120Y010087D02*
X003760Y010087D01*
X003760Y010245D02*
X003100Y010245D01*
X003002Y010404D02*
X003760Y010404D01*
X003760Y010562D02*
X002403Y010562D01*
X002445Y010676D02*
X002738Y010676D01*
X002806Y010687D01*
X002871Y010708D01*
X002933Y010739D01*
X002988Y010780D01*
X003037Y010828D01*
X003077Y010884D01*
X003108Y010945D01*
X003130Y011011D01*
X003140Y011079D01*
X003140Y011095D01*
X002445Y011095D01*
X002445Y010676D01*
X002445Y010721D02*
X002408Y010721D01*
X002408Y010879D02*
X002445Y010879D01*
X002445Y011038D02*
X002408Y011038D01*
X002408Y011196D02*
X002445Y011196D01*
X002445Y011355D02*
X002408Y011355D01*
X002408Y011513D02*
X002445Y011513D01*
X002880Y011513D02*
X003760Y011513D01*
X003760Y011355D02*
X003068Y011355D01*
X003133Y011196D02*
X003760Y011196D01*
X003760Y011038D02*
X003134Y011038D01*
X003074Y010879D02*
X003760Y010879D01*
X003760Y010721D02*
X002896Y010721D01*
X001973Y011513D02*
X001794Y011513D01*
X001794Y011672D02*
X003760Y011672D01*
X003760Y011830D02*
X001794Y011830D01*
X001794Y011989D02*
X003760Y011989D01*
X003760Y012147D02*
X002993Y012147D01*
X003101Y012306D02*
X003765Y012306D01*
X003856Y012464D02*
X003128Y012464D01*
X003093Y012623D02*
X004015Y012623D01*
X004110Y012781D02*
X002975Y012781D01*
X002938Y013098D02*
X003793Y013098D01*
X003951Y012940D02*
X001794Y012940D01*
X001794Y013098D02*
X001931Y013098D01*
X001894Y012781D02*
X001794Y012781D01*
X001794Y012147D02*
X001877Y012147D01*
X004041Y013415D02*
X005154Y013415D01*
X005180Y013574D02*
X003883Y013574D01*
X004200Y013257D02*
X005191Y013257D01*
X005286Y013732D02*
X003024Y013732D01*
X002820Y014049D02*
X005396Y014049D01*
X005211Y014208D02*
X003053Y014208D01*
X003126Y014366D02*
X005154Y014366D01*
X005160Y014525D02*
X003128Y014525D01*
X003068Y014683D02*
X005237Y014683D01*
X005481Y014842D02*
X002868Y014842D01*
X003032Y015159D02*
X005227Y015159D01*
X005148Y015317D02*
X003126Y015317D01*
X003148Y015476D02*
X005136Y015476D01*
X005186Y015634D02*
X003111Y015634D01*
X002991Y015793D02*
X005330Y015793D01*
X006459Y014683D02*
X008615Y014683D01*
X008520Y014525D02*
X006536Y014525D01*
X006542Y014366D02*
X008501Y014366D01*
X008545Y014208D02*
X006485Y014208D01*
X006300Y014049D02*
X008675Y014049D01*
X008664Y013732D02*
X006410Y013732D01*
X006516Y013574D02*
X008540Y013574D01*
X008501Y013415D02*
X006542Y013415D01*
X006505Y013257D02*
X008524Y013257D01*
X008626Y013098D02*
X006622Y013098D01*
X006781Y012940D02*
X026924Y012940D01*
X025509Y013098D02*
X023076Y013098D01*
X022999Y012900D02*
X022280Y012900D01*
X022126Y012837D01*
X022009Y012719D01*
X021946Y012566D01*
X021946Y012400D01*
X022009Y012247D01*
X022126Y012130D01*
X022280Y012066D01*
X022999Y012066D01*
X023152Y012130D01*
X023270Y012247D01*
X023333Y012400D01*
X023333Y012566D01*
X023270Y012719D01*
X023152Y012837D01*
X022999Y012900D01*
X023208Y012781D02*
X025445Y012781D01*
X025332Y012623D02*
X023310Y012623D01*
X023333Y012464D02*
X025300Y012464D01*
X025331Y012306D02*
X023294Y012306D01*
X023170Y012147D02*
X025444Y012147D01*
X025648Y011439D02*
X025586Y011408D01*
X025531Y011368D01*
X025482Y011319D01*
X025442Y011263D01*
X025410Y011202D01*
X025389Y011137D01*
X025378Y011069D01*
X025378Y011053D01*
X026074Y011053D01*
X026074Y011471D01*
X025781Y011471D01*
X025713Y011460D01*
X025648Y011439D01*
X025518Y011355D02*
X024654Y011355D01*
X024654Y011196D02*
X025409Y011196D01*
X025378Y011016D02*
X025378Y011000D01*
X025389Y010932D01*
X025410Y010867D01*
X025442Y010805D01*
X025482Y010750D01*
X025531Y010701D01*
X025586Y010661D01*
X025648Y010629D01*
X025713Y010608D01*
X025781Y010597D01*
X026074Y010597D01*
X026074Y011016D01*
X026111Y011016D01*
X026111Y011053D01*
X026806Y011053D01*
X026806Y011069D01*
X026795Y011137D01*
X026774Y011202D01*
X026743Y011263D01*
X026702Y011319D01*
X026654Y011368D01*
X026598Y011408D01*
X026537Y011439D01*
X026471Y011460D01*
X026403Y011471D01*
X026111Y011471D01*
X026111Y011053D01*
X026074Y011053D01*
X026074Y011016D01*
X025378Y011016D01*
X025406Y010879D02*
X024654Y010879D01*
X024654Y010721D02*
X025511Y010721D01*
X025618Y010404D02*
X024654Y010404D01*
X024654Y010562D02*
X026971Y010562D01*
X026971Y010404D02*
X026566Y010404D01*
X026605Y010388D02*
X026452Y010451D01*
X025732Y010451D01*
X025579Y010388D01*
X025462Y010270D01*
X025398Y010117D01*
X025398Y009951D01*
X025462Y009798D01*
X025579Y009681D01*
X025732Y009617D01*
X026452Y009617D01*
X026605Y009681D01*
X026722Y009798D01*
X026786Y009951D01*
X026786Y010117D01*
X026722Y010270D01*
X026605Y010388D01*
X026733Y010245D02*
X026971Y010245D01*
X026971Y010087D02*
X026786Y010087D01*
X026776Y009928D02*
X026971Y009928D01*
X026971Y009770D02*
X026694Y009770D01*
X026971Y009611D02*
X024755Y009611D01*
X024654Y009770D02*
X025490Y009770D01*
X025408Y009928D02*
X024654Y009928D01*
X024654Y010087D02*
X025398Y010087D01*
X025451Y010245D02*
X024654Y010245D01*
X024254Y010245D02*
X023329Y010245D01*
X023309Y010294D02*
X023192Y010411D01*
X023039Y010475D01*
X022319Y010475D01*
X022166Y010411D01*
X022049Y010294D01*
X021985Y010141D01*
X021985Y009975D01*
X022049Y009822D01*
X022166Y009705D01*
X022319Y009641D01*
X023039Y009641D01*
X023192Y009705D01*
X023309Y009822D01*
X023372Y009975D01*
X023372Y010141D01*
X023309Y010294D01*
X023199Y010404D02*
X024254Y010404D01*
X024254Y010562D02*
X012883Y010562D01*
X012944Y010537D02*
X012790Y010601D01*
X012071Y010601D01*
X011918Y010537D01*
X011800Y010420D01*
X011737Y010267D01*
X011737Y010101D01*
X011800Y009948D01*
X011918Y009831D01*
X012071Y009767D01*
X012790Y009767D01*
X012944Y009831D01*
X013061Y009948D01*
X013124Y010101D01*
X013124Y010267D01*
X013061Y010420D01*
X012944Y010537D01*
X013068Y010404D02*
X015178Y010404D01*
X015139Y010365D02*
X015256Y010482D01*
X015410Y010546D01*
X016129Y010546D01*
X016282Y010482D01*
X016400Y010365D01*
X016463Y010212D01*
X016463Y010046D01*
X016400Y009893D01*
X016282Y009775D01*
X016129Y009712D01*
X015410Y009712D01*
X015256Y009775D01*
X015139Y009893D01*
X015076Y010046D01*
X015076Y010212D01*
X015139Y010365D01*
X015089Y010245D02*
X013124Y010245D01*
X013119Y010087D02*
X015076Y010087D01*
X015124Y009928D02*
X013041Y009928D01*
X012797Y009770D02*
X015270Y009770D01*
X015410Y009546D02*
X015256Y009482D01*
X015139Y009365D01*
X015076Y009212D01*
X015076Y009046D01*
X015139Y008893D01*
X015256Y008775D01*
X015410Y008712D01*
X016129Y008712D01*
X016282Y008775D01*
X016400Y008893D01*
X016463Y009046D01*
X016463Y009212D01*
X016400Y009365D01*
X016282Y009482D01*
X016129Y009546D01*
X015410Y009546D01*
X015227Y009453D02*
X013028Y009453D01*
X013061Y009420D02*
X012944Y009537D01*
X012790Y009601D01*
X012071Y009601D01*
X011918Y009537D01*
X011800Y009420D01*
X011737Y009267D01*
X011737Y009101D01*
X011800Y008948D01*
X011918Y008831D01*
X012071Y008767D01*
X012790Y008767D01*
X012944Y008831D01*
X013061Y008948D01*
X013124Y009101D01*
X013124Y009267D01*
X013061Y009420D01*
X013113Y009294D02*
X015110Y009294D01*
X015076Y009136D02*
X013124Y009136D01*
X013073Y008977D02*
X015104Y008977D01*
X015213Y008819D02*
X012915Y008819D01*
X012790Y008601D02*
X012071Y008601D01*
X011918Y008537D01*
X011800Y008420D01*
X011737Y008267D01*
X011737Y008101D01*
X011800Y007948D01*
X011918Y007831D01*
X012071Y007767D01*
X012790Y007767D01*
X012944Y007831D01*
X013061Y007948D01*
X013124Y008101D01*
X013124Y008267D01*
X013061Y008420D01*
X012944Y008537D01*
X012790Y008601D01*
X012979Y008502D02*
X015304Y008502D01*
X015256Y008482D02*
X015410Y008546D01*
X016129Y008546D01*
X016282Y008482D01*
X016400Y008365D01*
X016463Y008212D01*
X016463Y008046D01*
X016400Y007893D01*
X016282Y007775D01*
X016129Y007712D01*
X015410Y007712D01*
X015256Y007775D01*
X015139Y007893D01*
X015076Y008046D01*
X015076Y008212D01*
X015139Y008365D01*
X015256Y008482D01*
X015130Y008343D02*
X013093Y008343D01*
X013124Y008185D02*
X015076Y008185D01*
X015084Y008026D02*
X013093Y008026D01*
X012981Y007868D02*
X015164Y007868D01*
X015105Y007234D02*
X014528Y007234D01*
X014563Y007075D02*
X015070Y007075D01*
X015070Y006917D02*
X014563Y006917D01*
X014563Y006758D02*
X015070Y006758D01*
X015070Y006600D02*
X014563Y006600D01*
X014563Y006441D02*
X015070Y006441D01*
X015070Y006283D02*
X014563Y006283D01*
X014549Y006124D02*
X015084Y006124D01*
X016144Y005966D02*
X016586Y005966D01*
X016586Y006124D02*
X016282Y006124D01*
X016295Y006283D02*
X016586Y006283D01*
X016543Y006441D02*
X016295Y006441D01*
X016295Y006600D02*
X016385Y006600D01*
X016780Y006917D02*
X020633Y006917D01*
X020758Y007075D02*
X016390Y007075D01*
X016260Y007234D02*
X020883Y007234D01*
X021008Y007392D02*
X001564Y007392D01*
X001564Y007234D02*
X003206Y007234D01*
X002944Y007075D02*
X001564Y007075D01*
X001564Y006917D02*
X002786Y006917D01*
X002710Y006758D02*
X001564Y006758D01*
X001564Y006600D02*
X002644Y006600D01*
X002627Y006441D02*
X001564Y006441D01*
X001564Y006283D02*
X002627Y006283D01*
X002653Y006124D02*
X001564Y006124D01*
X001564Y005966D02*
X002719Y005966D01*
X002808Y005807D02*
X001564Y005807D01*
X001564Y005649D02*
X002966Y005649D01*
X003258Y005490D02*
X001564Y005490D01*
X000911Y004668D02*
X001694Y003885D01*
X001521Y003747D02*
X000398Y003747D01*
X000398Y003905D02*
X001363Y003905D01*
X001204Y004064D02*
X000398Y004064D01*
X000398Y004222D02*
X001046Y004222D01*
X000887Y004381D02*
X000397Y004381D01*
X003786Y002796D02*
X004548Y002796D01*
X004706Y002637D02*
X004119Y002637D01*
X004277Y002479D02*
X004865Y002479D01*
X005023Y002320D02*
X004382Y002320D01*
X004448Y002162D02*
X005182Y002162D01*
X003976Y001052D02*
X024569Y001052D01*
X024325Y001211D02*
X014311Y001211D01*
X014445Y002162D02*
X013840Y002162D01*
X013929Y002320D02*
X014404Y002320D01*
X014404Y002479D02*
X013929Y002479D01*
X013857Y002637D02*
X014404Y002637D01*
X014458Y003113D02*
X007486Y003113D01*
X007490Y003126D02*
X007490Y003396D01*
X007081Y003396D01*
X007081Y003413D01*
X007064Y003413D01*
X007064Y003396D01*
X007081Y003396D01*
X007081Y002987D01*
X007351Y002987D01*
X007391Y002998D01*
X007428Y003019D01*
X007458Y003049D01*
X007479Y003085D01*
X007490Y003126D01*
X007490Y003271D02*
X014633Y003271D01*
X015008Y003271D02*
X015411Y003271D01*
X015458Y003113D02*
X015183Y003113D01*
X015237Y002954D02*
X015404Y002954D01*
X015404Y002796D02*
X015237Y002796D01*
X015237Y002637D02*
X015404Y002637D01*
X015404Y002479D02*
X015237Y002479D01*
X015237Y002320D02*
X015404Y002320D01*
X015445Y002162D02*
X015196Y002162D01*
X017707Y002003D02*
X018131Y002003D01*
X018027Y002162D02*
X017811Y002162D01*
X017836Y002320D02*
X018002Y002320D01*
X018002Y002479D02*
X017836Y002479D01*
X017836Y002637D02*
X018002Y002637D01*
X018002Y002796D02*
X017836Y002796D01*
X017830Y002954D02*
X018007Y002954D01*
X018084Y003113D02*
X017754Y003113D01*
X017619Y003271D02*
X018219Y003271D01*
X018287Y003430D02*
X017619Y003430D01*
X017619Y003588D02*
X018446Y003588D01*
X018604Y003747D02*
X017619Y003747D01*
X017756Y004222D02*
X020435Y004222D01*
X020835Y004222D02*
X021064Y004222D01*
X021116Y004463D02*
X021156Y004452D01*
X021426Y004452D01*
X021426Y004860D01*
X021443Y004860D01*
X021443Y004452D01*
X021713Y004452D01*
X021754Y004463D01*
X021790Y004484D01*
X021820Y004514D01*
X021841Y004550D01*
X021852Y004591D01*
X021852Y004860D01*
X021443Y004860D01*
X021443Y004878D01*
X021426Y004878D01*
X021426Y005286D01*
X021156Y005286D01*
X021116Y005275D01*
X021079Y005254D01*
X021049Y005224D01*
X021028Y005188D01*
X021017Y005147D01*
X021017Y004878D01*
X021426Y004878D01*
X021426Y004860D01*
X021017Y004860D01*
X021017Y004591D01*
X021028Y004550D01*
X021049Y004514D01*
X021079Y004484D01*
X021116Y004463D01*
X021035Y004539D02*
X020835Y004539D01*
X020835Y004381D02*
X022053Y004381D01*
X022053Y004539D02*
X021835Y004539D01*
X021852Y004698D02*
X022053Y004698D01*
X021852Y004856D02*
X026840Y004856D01*
X026681Y004698D02*
X022848Y004698D01*
X022769Y004975D02*
X022806Y004996D01*
X022836Y005025D01*
X022857Y005062D01*
X022868Y005103D01*
X022868Y005372D01*
X022459Y005372D01*
X022459Y004964D01*
X022729Y004964D01*
X022769Y004975D01*
X022825Y005015D02*
X026998Y005015D01*
X027157Y005173D02*
X022868Y005173D01*
X022868Y005332D02*
X027315Y005332D01*
X027474Y005490D02*
X025211Y005490D01*
X025525Y005649D02*
X027522Y005649D01*
X027522Y005807D02*
X025684Y005807D01*
X025781Y005966D02*
X027522Y005966D01*
X027522Y006124D02*
X025847Y006124D01*
X025880Y006283D02*
X027522Y006283D01*
X027522Y006441D02*
X025880Y006441D01*
X025869Y006600D02*
X027522Y006600D01*
X027522Y006758D02*
X025803Y006758D01*
X025737Y006917D02*
X027522Y006917D01*
X027522Y007075D02*
X025578Y007075D01*
X025732Y007617D02*
X025579Y007681D01*
X025462Y007798D01*
X025398Y007951D01*
X025398Y008117D01*
X025462Y008270D01*
X025579Y008388D01*
X025732Y008451D01*
X026452Y008451D01*
X026605Y008388D01*
X026722Y008270D01*
X026786Y008117D01*
X026786Y007951D01*
X026722Y007798D01*
X026605Y007681D01*
X026452Y007617D01*
X025732Y007617D01*
X025551Y007709D02*
X023196Y007709D01*
X023192Y007705D02*
X023309Y007822D01*
X023372Y007975D01*
X023372Y008141D01*
X023309Y008294D01*
X023192Y008411D01*
X023039Y008475D01*
X022319Y008475D01*
X022166Y008411D01*
X022049Y008294D01*
X021985Y008141D01*
X021985Y007975D01*
X022049Y007822D01*
X022166Y007705D01*
X022319Y007641D01*
X023039Y007641D01*
X023192Y007705D01*
X023328Y007868D02*
X025433Y007868D01*
X025398Y008026D02*
X023372Y008026D01*
X023354Y008185D02*
X025426Y008185D01*
X025535Y008343D02*
X023260Y008343D01*
X023192Y008705D02*
X023039Y008641D01*
X022319Y008641D01*
X022166Y008705D01*
X022049Y008822D01*
X021985Y008975D01*
X021985Y009141D01*
X022049Y009294D01*
X019821Y009294D01*
X019704Y009411D01*
X019550Y009475D01*
X018831Y009475D01*
X018678Y009411D01*
X018560Y009294D01*
X018497Y009141D01*
X018497Y008975D01*
X018560Y008822D01*
X018678Y008705D01*
X018831Y008641D01*
X019550Y008641D01*
X019704Y008705D01*
X019821Y008822D01*
X019884Y008975D01*
X019884Y009141D01*
X019821Y009294D01*
X019884Y009136D02*
X021985Y009136D01*
X021985Y008977D02*
X019884Y008977D01*
X019818Y008819D02*
X022052Y008819D01*
X022273Y008660D02*
X019597Y008660D01*
X019550Y008475D02*
X018831Y008475D01*
X018678Y008411D01*
X018560Y008294D01*
X018497Y008141D01*
X018497Y007975D01*
X018560Y007822D01*
X018678Y007705D01*
X018831Y007641D01*
X019550Y007641D01*
X019704Y007705D01*
X019821Y007822D01*
X019884Y007975D01*
X019884Y008141D01*
X019821Y008294D01*
X019704Y008411D01*
X019550Y008475D01*
X019772Y008343D02*
X022098Y008343D01*
X022003Y008185D02*
X019866Y008185D01*
X019884Y008026D02*
X021985Y008026D01*
X022029Y007868D02*
X019840Y007868D01*
X019708Y007709D02*
X022161Y007709D01*
X021268Y007075D02*
X024322Y007075D01*
X024164Y006917D02*
X021142Y006917D01*
X021017Y006758D02*
X024097Y006758D01*
X024032Y006600D02*
X020892Y006600D01*
X020835Y006441D02*
X024021Y006441D01*
X024021Y006283D02*
X021768Y006283D01*
X021754Y006291D02*
X021713Y006302D01*
X021443Y006302D01*
X021443Y005893D01*
X021852Y005893D01*
X021852Y006163D01*
X021841Y006204D01*
X021820Y006240D01*
X021790Y006270D01*
X021754Y006291D01*
X021852Y006124D02*
X024054Y006124D01*
X024119Y005966D02*
X021852Y005966D01*
X021852Y005876D02*
X021443Y005876D01*
X021443Y005468D01*
X021713Y005468D01*
X021754Y005478D01*
X021790Y005500D01*
X021820Y005529D01*
X021841Y005566D01*
X021852Y005606D01*
X021852Y005876D01*
X021852Y005807D02*
X024217Y005807D01*
X024376Y005649D02*
X022868Y005649D01*
X022868Y005659D02*
X022857Y005700D01*
X022836Y005736D01*
X022806Y005766D01*
X022769Y005787D01*
X022729Y005798D01*
X022459Y005798D01*
X022459Y005389D01*
X022868Y005389D01*
X022868Y005659D01*
X022868Y005490D02*
X024690Y005490D01*
X022994Y004064D02*
X022838Y004064D01*
X022994Y003905D02*
X021840Y003905D01*
X021840Y003747D02*
X022092Y003747D01*
X022049Y003588D02*
X021840Y003588D01*
X021840Y004064D02*
X022063Y004064D01*
X022053Y004222D02*
X021821Y004222D01*
X021443Y004539D02*
X021426Y004539D01*
X021426Y004698D02*
X021443Y004698D01*
X021426Y004856D02*
X021443Y004856D01*
X021443Y004878D02*
X021852Y004878D01*
X021852Y005147D01*
X021841Y005188D01*
X021820Y005224D01*
X021790Y005254D01*
X021754Y005275D01*
X021713Y005286D01*
X021443Y005286D01*
X021443Y004878D01*
X021443Y005015D02*
X021426Y005015D01*
X021426Y005173D02*
X021443Y005173D01*
X021426Y005468D02*
X021426Y005876D01*
X021443Y005876D01*
X021443Y005893D01*
X021426Y005893D01*
X021426Y005876D01*
X021017Y005876D01*
X021017Y005606D01*
X021028Y005566D01*
X021049Y005529D01*
X021079Y005500D01*
X021116Y005478D01*
X021156Y005468D01*
X021426Y005468D01*
X021426Y005490D02*
X021443Y005490D01*
X021426Y005649D02*
X021443Y005649D01*
X021426Y005807D02*
X021443Y005807D01*
X021426Y005893D02*
X021017Y005893D01*
X021017Y006163D01*
X021028Y006204D01*
X021049Y006240D01*
X021079Y006270D01*
X021116Y006291D01*
X021156Y006302D01*
X021426Y006302D01*
X021426Y005893D01*
X021426Y005966D02*
X021443Y005966D01*
X021426Y006124D02*
X021443Y006124D01*
X021426Y006283D02*
X021443Y006283D01*
X021101Y006283D02*
X020835Y006283D01*
X020835Y006124D02*
X021017Y006124D01*
X021017Y005966D02*
X020835Y005966D01*
X020835Y005807D02*
X021017Y005807D01*
X021017Y005649D02*
X020835Y005649D01*
X020835Y005490D02*
X021095Y005490D01*
X020835Y005332D02*
X022033Y005332D01*
X022033Y005372D02*
X022033Y005103D01*
X022044Y005062D01*
X022065Y005025D01*
X022095Y004996D01*
X022131Y004975D01*
X022172Y004964D01*
X022442Y004964D01*
X022442Y005372D01*
X022459Y005372D01*
X022459Y005389D01*
X022442Y005389D01*
X022442Y005372D01*
X022033Y005372D01*
X022033Y005389D02*
X022033Y005659D01*
X022044Y005700D01*
X022065Y005736D01*
X022095Y005766D01*
X022131Y005787D01*
X022172Y005798D01*
X022442Y005798D01*
X022442Y005389D01*
X022033Y005389D01*
X022033Y005490D02*
X021774Y005490D01*
X021852Y005649D02*
X022033Y005649D01*
X022442Y005649D02*
X022459Y005649D01*
X022442Y005490D02*
X022459Y005490D01*
X022442Y005332D02*
X022459Y005332D01*
X022442Y005173D02*
X022459Y005173D01*
X022442Y005015D02*
X022459Y005015D01*
X022076Y005015D02*
X021852Y005015D01*
X021845Y005173D02*
X022033Y005173D01*
X021024Y005173D02*
X020835Y005173D01*
X020835Y005015D02*
X021017Y005015D01*
X021017Y004856D02*
X020835Y004856D01*
X020835Y004698D02*
X021017Y004698D01*
X020435Y004856D02*
X014131Y004856D01*
X015549Y005015D02*
X020435Y005015D01*
X020435Y005173D02*
X019288Y005173D01*
X019291Y005186D02*
X019291Y005406D01*
X018933Y005406D01*
X018933Y005048D01*
X019153Y005048D01*
X019193Y005058D01*
X019230Y005080D01*
X019260Y005109D01*
X019281Y005146D01*
X019291Y005186D01*
X019291Y005332D02*
X020435Y005332D01*
X020435Y005490D02*
X019291Y005490D01*
X019291Y005482D02*
X019291Y005701D01*
X019281Y005742D01*
X019260Y005778D01*
X019230Y005808D01*
X019193Y005829D01*
X019153Y005840D01*
X018933Y005840D01*
X018933Y005482D01*
X018857Y005482D01*
X018499Y005482D01*
X018499Y005701D01*
X018510Y005742D01*
X018531Y005778D01*
X018561Y005808D01*
X018597Y005829D01*
X018638Y005840D01*
X018857Y005840D01*
X018857Y005482D01*
X018857Y005406D01*
X018499Y005406D01*
X018499Y005186D01*
X018510Y005146D01*
X018531Y005109D01*
X018561Y005080D01*
X018597Y005058D01*
X018638Y005048D01*
X018857Y005048D01*
X018857Y005406D01*
X018933Y005406D01*
X018933Y005482D01*
X019291Y005482D01*
X019291Y005649D02*
X020435Y005649D01*
X020435Y005807D02*
X019230Y005807D01*
X019261Y005966D02*
X020435Y005966D01*
X020435Y006124D02*
X019271Y006124D01*
X019271Y006283D02*
X020435Y006283D01*
X020435Y006441D02*
X019271Y006441D01*
X019236Y006600D02*
X020434Y006600D01*
X020508Y006758D02*
X016938Y006758D01*
X017097Y006600D02*
X018554Y006600D01*
X018519Y006441D02*
X018126Y006441D01*
X018126Y005807D02*
X018560Y005807D01*
X018499Y005649D02*
X016125Y005649D01*
X016144Y005807D02*
X016586Y005807D01*
X016025Y005490D02*
X018499Y005490D01*
X018499Y005332D02*
X015866Y005332D01*
X015708Y005173D02*
X018503Y005173D01*
X018857Y005173D02*
X018933Y005173D01*
X018933Y005332D02*
X018857Y005332D01*
X018857Y005490D02*
X018933Y005490D01*
X018933Y005649D02*
X018857Y005649D01*
X018857Y005807D02*
X018933Y005807D01*
X018673Y007709D02*
X009562Y007709D01*
X009531Y007696D02*
X009684Y007760D01*
X009801Y007877D01*
X009865Y008030D01*
X009865Y008196D01*
X009801Y008349D01*
X009684Y008466D01*
X009531Y008530D01*
X008811Y008530D01*
X008658Y008466D01*
X008541Y008349D01*
X008477Y008196D01*
X008477Y008030D01*
X008541Y007877D01*
X008658Y007760D01*
X008811Y007696D01*
X009531Y007696D01*
X009792Y007868D02*
X011881Y007868D01*
X011768Y008026D02*
X009863Y008026D01*
X009865Y008185D02*
X011737Y008185D01*
X011769Y008343D02*
X009804Y008343D01*
X009599Y008502D02*
X011882Y008502D01*
X011946Y008819D02*
X009743Y008819D01*
X009843Y008977D02*
X011788Y008977D01*
X011737Y009136D02*
X009865Y009136D01*
X009824Y009294D02*
X011748Y009294D01*
X011833Y009453D02*
X009698Y009453D01*
X009694Y009770D02*
X012064Y009770D01*
X011820Y009928D02*
X009822Y009928D01*
X009865Y010087D02*
X011743Y010087D01*
X011737Y010245D02*
X009844Y010245D01*
X009747Y010404D02*
X011794Y010404D01*
X011978Y010562D02*
X008294Y010562D01*
X008294Y010404D02*
X008595Y010404D01*
X008498Y010245D02*
X008294Y010245D01*
X008379Y010087D02*
X008477Y010087D01*
X008056Y009928D02*
X006492Y009928D01*
X006470Y009877D02*
X006534Y010030D01*
X006534Y010196D01*
X006470Y010349D01*
X006353Y010466D01*
X006200Y010530D01*
X005480Y010530D01*
X005327Y010466D01*
X005210Y010349D01*
X005146Y010196D01*
X005146Y010030D01*
X005210Y009877D01*
X005327Y009760D01*
X005480Y009696D01*
X006200Y009696D01*
X006353Y009760D01*
X006470Y009877D01*
X006363Y009770D02*
X008215Y009770D01*
X008373Y009611D02*
X004440Y009611D01*
X004440Y009453D02*
X005313Y009453D01*
X005327Y009466D02*
X005210Y009349D01*
X005146Y009196D01*
X005146Y009030D01*
X005210Y008877D01*
X005327Y008760D01*
X005480Y008696D01*
X006200Y008696D01*
X006353Y008760D01*
X006470Y008877D01*
X006534Y009030D01*
X006534Y009196D01*
X006470Y009349D01*
X006353Y009466D01*
X006200Y009530D01*
X005480Y009530D01*
X005327Y009466D01*
X005187Y009294D02*
X004440Y009294D01*
X004440Y009136D02*
X005146Y009136D01*
X005168Y008977D02*
X004440Y008977D01*
X004440Y008819D02*
X005268Y008819D01*
X005412Y008502D02*
X004440Y008502D01*
X004440Y008660D02*
X018785Y008660D01*
X018563Y008819D02*
X016326Y008819D01*
X016435Y008977D02*
X018497Y008977D01*
X018497Y009136D02*
X016463Y009136D01*
X016429Y009294D02*
X018561Y009294D01*
X018778Y009453D02*
X016312Y009453D01*
X016269Y009770D02*
X018612Y009770D01*
X018560Y009822D02*
X018678Y009705D01*
X018831Y009641D01*
X019550Y009641D01*
X019704Y009705D01*
X019821Y009822D01*
X019884Y009975D01*
X019884Y010141D01*
X019821Y010294D01*
X019704Y010411D01*
X019550Y010475D01*
X018831Y010475D01*
X018678Y010411D01*
X018560Y010294D01*
X018497Y010141D01*
X018497Y009975D01*
X018560Y009822D01*
X018516Y009928D02*
X016414Y009928D01*
X016463Y010087D02*
X018497Y010087D01*
X018540Y010245D02*
X016449Y010245D01*
X016361Y010404D02*
X018670Y010404D01*
X018635Y010721D02*
X016204Y010721D01*
X016214Y010724D02*
X016275Y010755D01*
X016331Y010796D01*
X016379Y010844D01*
X016420Y010900D01*
X016451Y010961D01*
X016472Y011027D01*
X016483Y011094D01*
X016483Y011110D01*
X015788Y011110D01*
X015788Y010692D01*
X016081Y010692D01*
X016148Y010703D01*
X016214Y010724D01*
X016405Y010879D02*
X018514Y010879D01*
X018477Y011038D02*
X016474Y011038D01*
X016478Y011196D02*
X018499Y011196D01*
X018593Y011355D02*
X016421Y011355D01*
X015788Y011038D02*
X015751Y011038D01*
X015751Y011110D02*
X015751Y010692D01*
X015458Y010692D01*
X015390Y010703D01*
X015325Y010724D01*
X015263Y010755D01*
X015208Y010796D01*
X015159Y010844D01*
X015119Y010900D01*
X015088Y010961D01*
X015066Y011027D01*
X015056Y011094D01*
X015056Y011110D01*
X015751Y011110D01*
X015751Y010879D02*
X015788Y010879D01*
X015788Y010721D02*
X015751Y010721D01*
X015335Y010721D02*
X009640Y010721D01*
X009615Y010708D02*
X009677Y010739D01*
X009732Y010780D01*
X009781Y010828D01*
X009821Y010884D01*
X009853Y010945D01*
X009874Y011011D01*
X009885Y011079D01*
X009885Y011095D01*
X009189Y011095D01*
X009189Y010676D01*
X009482Y010676D01*
X009550Y010687D01*
X009615Y010708D01*
X009818Y010879D02*
X011841Y010879D01*
X011742Y011038D02*
X009878Y011038D01*
X009877Y011196D02*
X012412Y011196D01*
X012449Y011196D02*
X015061Y011196D01*
X015065Y011038D02*
X013119Y011038D01*
X013112Y011016D02*
X013134Y011082D01*
X013144Y011150D01*
X013144Y011166D01*
X012449Y011166D01*
X012449Y010747D01*
X012742Y010747D01*
X012810Y010758D01*
X012875Y010779D01*
X012937Y010810D01*
X012992Y010851D01*
X013041Y010899D01*
X013081Y010955D01*
X013112Y011016D01*
X013021Y010879D02*
X015134Y010879D01*
X015117Y011355D02*
X013111Y011355D01*
X012449Y011038D02*
X012412Y011038D01*
X012412Y010879D02*
X012449Y010879D01*
X011751Y011355D02*
X009812Y011355D01*
X009189Y011038D02*
X009152Y011038D01*
X009152Y010879D02*
X009189Y010879D01*
X009189Y010721D02*
X009152Y010721D01*
X008702Y010721D02*
X008294Y010721D01*
X008294Y010879D02*
X008524Y010879D01*
X008464Y011038D02*
X008294Y011038D01*
X008294Y011196D02*
X008465Y011196D01*
X008530Y011355D02*
X008294Y011355D01*
X007954Y011355D02*
X007446Y011355D01*
X007388Y011355D02*
X006481Y011355D01*
X006491Y011342D02*
X006450Y011398D01*
X006402Y011446D01*
X006346Y011487D01*
X006285Y011518D01*
X006219Y011539D01*
X006151Y011550D01*
X005859Y011550D01*
X005859Y011132D01*
X005822Y011132D01*
X005822Y011550D01*
X005529Y011550D01*
X005461Y011539D01*
X005396Y011518D01*
X005334Y011487D01*
X005279Y011446D01*
X005230Y011398D01*
X005190Y011342D01*
X005158Y011281D01*
X005137Y011215D01*
X005126Y011147D01*
X005126Y011131D01*
X005822Y011131D01*
X005822Y011095D01*
X005126Y011095D01*
X005126Y011079D01*
X005137Y011011D01*
X005158Y010945D01*
X005190Y010884D01*
X005230Y010828D01*
X005279Y010780D01*
X005334Y010739D01*
X005396Y010708D01*
X005461Y010687D01*
X005529Y010676D01*
X005822Y010676D01*
X005822Y011095D01*
X005859Y011095D01*
X005859Y011131D01*
X006554Y011131D01*
X006554Y011147D01*
X006543Y011215D01*
X006522Y011281D01*
X006491Y011342D01*
X006546Y011196D02*
X007954Y011196D01*
X007954Y011038D02*
X006547Y011038D01*
X006543Y011011D02*
X006554Y011079D01*
X006554Y011095D01*
X005859Y011095D01*
X005859Y010676D01*
X006151Y010676D01*
X006219Y010687D01*
X006285Y010708D01*
X006346Y010739D01*
X006402Y010780D01*
X006450Y010828D01*
X006491Y010884D01*
X006522Y010945D01*
X006543Y011011D01*
X006487Y010879D02*
X007954Y010879D01*
X007954Y010721D02*
X006309Y010721D01*
X006416Y010404D02*
X007954Y010404D01*
X007954Y010562D02*
X004440Y010562D01*
X004440Y010404D02*
X005264Y010404D01*
X005167Y010245D02*
X004440Y010245D01*
X004440Y010087D02*
X005146Y010087D01*
X005189Y009928D02*
X004440Y009928D01*
X004440Y009770D02*
X005317Y009770D01*
X006367Y009453D02*
X008532Y009453D01*
X008518Y009294D02*
X006493Y009294D01*
X006534Y009136D02*
X008477Y009136D01*
X008499Y008977D02*
X006512Y008977D01*
X006412Y008819D02*
X008599Y008819D01*
X008743Y008502D02*
X006268Y008502D01*
X006473Y008343D02*
X008538Y008343D01*
X008477Y008185D02*
X006534Y008185D01*
X006532Y008026D02*
X008479Y008026D01*
X008550Y007868D02*
X006461Y007868D01*
X006231Y007709D02*
X008780Y007709D01*
X010117Y006758D02*
X004403Y006758D01*
X004469Y006600D02*
X009914Y006600D01*
X009828Y006441D02*
X004486Y006441D01*
X004327Y006917D02*
X010808Y006917D01*
X010940Y007075D02*
X004169Y007075D01*
X003908Y007234D02*
X011072Y007234D01*
X011758Y006441D02*
X012089Y006441D01*
X012319Y006283D02*
X011793Y006283D01*
X011791Y006124D02*
X013351Y006124D01*
X012331Y005966D02*
X011725Y005966D01*
X011593Y005807D02*
X012183Y005807D01*
X012093Y005332D02*
X011754Y005332D01*
X011886Y005173D02*
X012093Y005173D01*
X012093Y005015D02*
X012018Y005015D01*
X012213Y004222D02*
X012258Y004222D01*
X011822Y003747D02*
X011799Y003747D01*
X011736Y003588D02*
X012007Y003588D01*
X012201Y003430D02*
X011606Y003430D01*
X010821Y003430D02*
X010765Y003430D01*
X010765Y003588D02*
X010821Y003588D01*
X010821Y003747D02*
X010765Y003747D01*
X010765Y003905D02*
X006454Y003905D01*
X006454Y003747D02*
X006680Y003747D01*
X006655Y003588D02*
X006454Y003588D01*
X007064Y003588D02*
X007081Y003588D01*
X007064Y003430D02*
X007081Y003430D01*
X007081Y003413D02*
X007081Y003822D01*
X007351Y003822D01*
X007391Y003811D01*
X007428Y003790D01*
X007458Y003760D01*
X007479Y003723D01*
X007490Y003683D01*
X007490Y003413D01*
X007081Y003413D01*
X007081Y003271D02*
X007064Y003271D01*
X007064Y003113D02*
X007081Y003113D01*
X007064Y002796D02*
X007081Y002796D01*
X007064Y002637D02*
X007081Y002637D01*
X007064Y002479D02*
X007081Y002479D01*
X007064Y002320D02*
X007081Y002320D01*
X007064Y002162D02*
X007081Y002162D01*
X007064Y002003D02*
X007081Y002003D01*
X007490Y003430D02*
X009980Y003430D01*
X009850Y003588D02*
X007490Y003588D01*
X007465Y003747D02*
X009787Y003747D01*
X009802Y004064D02*
X008831Y004064D01*
X008905Y004222D02*
X009882Y004222D01*
X010047Y004381D02*
X008905Y004381D01*
X008109Y004064D02*
X007456Y004064D01*
X007081Y003747D02*
X007064Y003747D01*
X006673Y004064D02*
X006454Y004064D01*
X005660Y003588D02*
X005031Y003588D01*
X006458Y004698D02*
X006667Y004698D01*
X010765Y004381D02*
X010821Y004381D01*
X010821Y004222D02*
X010765Y004222D01*
X010765Y004064D02*
X010821Y004064D01*
X012648Y007075D02*
X013338Y007075D01*
X013373Y007234D02*
X012421Y007234D01*
X016235Y008502D02*
X026971Y008502D01*
X026971Y008660D02*
X026555Y008660D01*
X026731Y008819D02*
X026971Y008819D01*
X026971Y008977D02*
X026786Y008977D01*
X026778Y009136D02*
X026971Y009136D01*
X026971Y009294D02*
X026699Y009294D01*
X026971Y009453D02*
X024913Y009453D01*
X025072Y009294D02*
X025486Y009294D01*
X025453Y008819D02*
X023306Y008819D01*
X023309Y008822D02*
X023372Y008975D01*
X023372Y009141D01*
X023309Y009294D01*
X023192Y009411D01*
X023039Y009475D01*
X022319Y009475D01*
X022166Y009411D01*
X022049Y009294D01*
X022266Y009453D02*
X019603Y009453D01*
X019769Y009770D02*
X022101Y009770D01*
X022004Y009928D02*
X019865Y009928D01*
X019884Y010087D02*
X021985Y010087D01*
X022028Y010245D02*
X019841Y010245D01*
X019711Y010404D02*
X022158Y010404D01*
X022123Y010721D02*
X019747Y010721D01*
X019752Y010725D02*
X019801Y010773D01*
X019841Y010829D01*
X019872Y010890D01*
X019893Y010956D01*
X019904Y011024D01*
X019904Y011040D01*
X019209Y011040D01*
X019209Y010621D01*
X019502Y010621D01*
X019570Y010632D01*
X019635Y010653D01*
X019696Y010684D01*
X019752Y010725D01*
X019867Y010879D02*
X022003Y010879D01*
X021965Y011038D02*
X019904Y011038D01*
X019882Y011196D02*
X021988Y011196D01*
X022081Y011355D02*
X019788Y011355D01*
X019209Y011038D02*
X019172Y011038D01*
X019172Y010879D02*
X019209Y010879D01*
X019209Y010721D02*
X019172Y010721D01*
X018839Y011995D02*
X018685Y012059D01*
X018568Y012176D01*
X018505Y012329D01*
X018505Y012495D01*
X018568Y012648D01*
X018685Y012766D01*
X018839Y012829D01*
X019558Y012829D01*
X019711Y012766D01*
X019829Y012648D01*
X019892Y012495D01*
X019892Y012329D01*
X019829Y012176D01*
X019711Y012059D01*
X019558Y011995D01*
X018839Y011995D01*
X018597Y012147D02*
X016351Y012147D01*
X016376Y012172D02*
X016439Y012325D01*
X016439Y012491D01*
X016376Y012644D01*
X016259Y012762D01*
X016105Y012825D01*
X015386Y012825D01*
X015233Y012762D01*
X015115Y012644D01*
X015052Y012491D01*
X015052Y012325D01*
X015115Y012172D01*
X015233Y012055D01*
X015386Y011991D01*
X016105Y011991D01*
X016259Y012055D01*
X016376Y012172D01*
X016431Y012306D02*
X018514Y012306D01*
X018505Y012464D02*
X016439Y012464D01*
X016385Y012623D02*
X018558Y012623D01*
X018723Y012781D02*
X016211Y012781D01*
X016105Y012991D02*
X016259Y013055D01*
X016376Y013172D01*
X016439Y013325D01*
X016439Y013491D01*
X016376Y013644D01*
X016259Y013762D01*
X016105Y013825D01*
X015386Y013825D01*
X015233Y013762D01*
X015115Y013644D01*
X015052Y013491D01*
X015052Y013325D01*
X015115Y013172D01*
X015233Y013055D01*
X015386Y012991D01*
X016105Y012991D01*
X016302Y013098D02*
X018646Y013098D01*
X018685Y013059D02*
X018839Y012995D01*
X019558Y012995D01*
X019711Y013059D01*
X019829Y013176D01*
X019892Y013329D01*
X019892Y013495D01*
X019829Y013648D01*
X019711Y013766D01*
X019558Y013829D01*
X018839Y013829D01*
X018685Y013766D01*
X018568Y013648D01*
X018505Y013495D01*
X018505Y013329D01*
X018568Y013176D01*
X018685Y013059D01*
X018535Y013257D02*
X016411Y013257D01*
X016439Y013415D02*
X018505Y013415D01*
X018537Y013574D02*
X016405Y013574D01*
X016288Y013732D02*
X018652Y013732D01*
X018709Y014049D02*
X016245Y014049D01*
X016259Y014055D02*
X016376Y014172D01*
X016439Y014325D01*
X016439Y014491D01*
X016376Y014644D01*
X016259Y014762D01*
X016105Y014825D01*
X015386Y014825D01*
X015233Y014762D01*
X015115Y014644D01*
X015052Y014491D01*
X015052Y014325D01*
X015115Y014172D01*
X015233Y014055D01*
X015386Y013991D01*
X016105Y013991D01*
X016259Y014055D01*
X016391Y014208D02*
X018555Y014208D01*
X018568Y014176D02*
X018685Y014059D01*
X018839Y013995D01*
X019558Y013995D01*
X019711Y014059D01*
X019829Y014176D01*
X019892Y014329D01*
X019892Y014495D01*
X019829Y014648D01*
X019711Y014766D01*
X019558Y014829D01*
X018839Y014829D01*
X018685Y014766D01*
X018568Y014648D01*
X018505Y014495D01*
X018505Y014329D01*
X018568Y014176D01*
X018505Y014366D02*
X016439Y014366D01*
X016425Y014525D02*
X018517Y014525D01*
X018603Y014683D02*
X016337Y014683D01*
X016190Y015004D02*
X016125Y014982D01*
X016057Y014971D01*
X015764Y014971D01*
X015764Y015390D01*
X015727Y015390D01*
X015032Y015390D01*
X015032Y015374D01*
X015043Y015306D01*
X015064Y015241D01*
X015095Y015179D01*
X015136Y015124D01*
X015184Y015075D01*
X015240Y015035D01*
X015301Y015004D01*
X015367Y014982D01*
X015434Y014971D01*
X015727Y014971D01*
X015727Y015390D01*
X015727Y015427D01*
X015727Y015845D01*
X015434Y015845D01*
X015367Y015834D01*
X015301Y015813D01*
X015240Y015782D01*
X015184Y015742D01*
X015136Y015693D01*
X015095Y015637D01*
X015064Y015576D01*
X015043Y015511D01*
X015032Y015443D01*
X015032Y015427D01*
X015727Y015427D01*
X015764Y015427D01*
X015764Y015845D01*
X016057Y015845D01*
X016125Y015834D01*
X016190Y015813D01*
X016251Y015782D01*
X016307Y015742D01*
X016356Y015693D01*
X016396Y015637D01*
X016427Y015576D01*
X016449Y015511D01*
X016459Y015443D01*
X016459Y015427D01*
X015764Y015427D01*
X015764Y015390D01*
X016459Y015390D01*
X016459Y015374D01*
X016449Y015306D01*
X016427Y015241D01*
X016396Y015179D01*
X016356Y015124D01*
X016307Y015075D01*
X016251Y015035D01*
X016190Y015004D01*
X016180Y015000D02*
X018776Y015000D01*
X018566Y015159D02*
X016381Y015159D01*
X016450Y015317D02*
X018494Y015317D01*
X018489Y015476D02*
X016454Y015476D01*
X016398Y015634D02*
X018544Y015634D01*
X018706Y015793D02*
X016230Y015793D01*
X015764Y015793D02*
X015727Y015793D01*
X015727Y015634D02*
X015764Y015634D01*
X015764Y015476D02*
X015727Y015476D01*
X015727Y015317D02*
X015764Y015317D01*
X015764Y015159D02*
X015727Y015159D01*
X015727Y015000D02*
X015764Y015000D01*
X015311Y015000D02*
X009656Y015000D01*
X009639Y014992D02*
X009700Y015023D01*
X009756Y015063D01*
X009805Y015112D01*
X009845Y015168D01*
X009876Y015229D01*
X009897Y015294D01*
X009908Y015362D01*
X009908Y015378D01*
X009213Y015378D01*
X009213Y014960D01*
X009506Y014960D01*
X009574Y014970D01*
X009639Y014992D01*
X009839Y015159D02*
X011872Y015159D01*
X011856Y015175D02*
X011905Y015126D01*
X011960Y015086D01*
X012022Y015055D01*
X012087Y015033D01*
X012155Y015023D01*
X012448Y015023D01*
X012448Y015441D01*
X012485Y015441D01*
X012485Y015478D01*
X013180Y015478D01*
X013180Y015494D01*
X013169Y015562D01*
X013148Y015627D01*
X013117Y015688D01*
X013076Y015744D01*
X013028Y015793D01*
X012972Y015833D01*
X012911Y015864D01*
X012845Y015886D01*
X012777Y015896D01*
X012485Y015896D01*
X012485Y015478D01*
X012448Y015478D01*
X012448Y015896D01*
X012155Y015896D01*
X012087Y015886D01*
X012022Y015864D01*
X011960Y015833D01*
X011905Y015793D01*
X009656Y015793D01*
X009839Y015634D02*
X011788Y015634D01*
X011784Y015627D02*
X011763Y015562D01*
X011752Y015494D01*
X011752Y015478D01*
X012448Y015478D01*
X012448Y015441D01*
X011752Y015441D01*
X011752Y015425D01*
X011763Y015357D01*
X011784Y015292D01*
X011816Y015231D01*
X011856Y015175D01*
X011776Y015317D02*
X009901Y015317D01*
X009901Y015476D02*
X012448Y015476D01*
X012485Y015476D02*
X015037Y015476D01*
X015041Y015317D02*
X013156Y015317D01*
X013148Y015292D02*
X013169Y015357D01*
X013180Y015425D01*
X013180Y015441D01*
X012485Y015441D01*
X012485Y015023D01*
X012777Y015023D01*
X012845Y015033D01*
X012911Y015055D01*
X012972Y015086D01*
X013028Y015126D01*
X013076Y015175D01*
X013117Y015231D01*
X013148Y015292D01*
X013060Y015159D02*
X015110Y015159D01*
X015094Y015634D02*
X013144Y015634D01*
X013028Y015793D02*
X015261Y015793D01*
X015154Y014683D02*
X013102Y014683D01*
X013160Y014525D02*
X015066Y014525D01*
X015052Y014366D02*
X013156Y014366D01*
X013081Y014208D02*
X015101Y014208D01*
X015246Y014049D02*
X012842Y014049D01*
X013060Y013732D02*
X015203Y013732D01*
X015086Y013574D02*
X013147Y013574D01*
X013160Y013415D02*
X015052Y013415D01*
X015080Y013257D02*
X013110Y013257D01*
X012960Y013098D02*
X015189Y013098D01*
X015280Y012781D02*
X013011Y012781D01*
X013127Y012623D02*
X015106Y012623D01*
X015052Y012464D02*
X013160Y012464D01*
X013131Y012306D02*
X015060Y012306D01*
X015140Y012147D02*
X013020Y012147D01*
X008813Y011989D02*
X007298Y011989D01*
X007140Y012147D02*
X008577Y012147D01*
X008504Y012306D02*
X007056Y012306D01*
X007056Y012464D02*
X008501Y012464D01*
X008560Y012623D02*
X007056Y012623D01*
X006939Y012781D02*
X008757Y012781D01*
X007844Y011830D02*
X007457Y011830D01*
X007208Y011513D02*
X006294Y011513D01*
X005859Y011513D02*
X005822Y011513D01*
X005822Y011355D02*
X005859Y011355D01*
X005859Y011196D02*
X005822Y011196D01*
X005822Y011038D02*
X005859Y011038D01*
X005859Y010879D02*
X005822Y010879D01*
X005822Y010721D02*
X005859Y010721D01*
X005371Y010721D02*
X004440Y010721D01*
X004440Y010879D02*
X005193Y010879D01*
X005133Y011038D02*
X004440Y011038D01*
X004440Y011196D02*
X005134Y011196D01*
X005199Y011355D02*
X004440Y011355D01*
X004440Y011513D02*
X005387Y011513D01*
X004440Y011672D02*
X007050Y011672D01*
X006891Y011830D02*
X004440Y011830D01*
X004440Y011989D02*
X006733Y011989D01*
X006656Y012147D02*
X006434Y012147D01*
X006525Y012306D02*
X006656Y012306D01*
X006656Y012464D02*
X006542Y012464D01*
X006532Y012623D02*
X006495Y012623D01*
X006513Y010245D02*
X007954Y010245D01*
X007954Y010087D02*
X006534Y010087D01*
X008854Y009611D02*
X024254Y009611D01*
X024254Y009770D02*
X023257Y009770D01*
X023353Y009928D02*
X024254Y009928D01*
X024254Y010087D02*
X023372Y010087D01*
X023123Y010653D02*
X023185Y010684D01*
X023240Y010725D01*
X023289Y010773D01*
X023329Y010829D01*
X023360Y010890D01*
X023382Y010956D01*
X023392Y011024D01*
X023392Y011040D01*
X022697Y011040D01*
X022697Y010621D01*
X022990Y010621D01*
X023058Y010632D01*
X023123Y010653D01*
X023235Y010721D02*
X024254Y010721D01*
X024254Y010879D02*
X023355Y010879D01*
X023392Y011038D02*
X024254Y011038D01*
X024254Y011196D02*
X023370Y011196D01*
X023277Y011355D02*
X024160Y011355D01*
X024537Y011513D02*
X026971Y011513D01*
X026971Y011355D02*
X026666Y011355D01*
X026776Y011196D02*
X026971Y011196D01*
X026971Y011038D02*
X026111Y011038D01*
X026111Y011016D02*
X026806Y011016D01*
X026806Y011000D01*
X026795Y010932D01*
X026774Y010867D01*
X026743Y010805D01*
X026702Y010750D01*
X026654Y010701D01*
X026598Y010661D01*
X026537Y010629D01*
X026471Y010608D01*
X026403Y010597D01*
X026111Y010597D01*
X026111Y011016D01*
X026074Y011038D02*
X024654Y011038D01*
X024426Y011672D02*
X026971Y011672D01*
X026971Y011830D02*
X024315Y011830D01*
X022697Y011038D02*
X022660Y011038D01*
X022660Y010879D02*
X022697Y010879D01*
X022697Y010721D02*
X022660Y010721D01*
X023092Y009453D02*
X024348Y009453D01*
X024506Y009294D02*
X023309Y009294D01*
X023372Y009136D02*
X024665Y009136D01*
X024823Y008977D02*
X023372Y008977D01*
X023309Y008822D02*
X023192Y008705D01*
X023085Y008660D02*
X025629Y008660D01*
X026650Y008343D02*
X026971Y008343D01*
X026971Y008185D02*
X026758Y008185D01*
X026786Y008026D02*
X026971Y008026D01*
X026971Y007868D02*
X026751Y007868D01*
X026633Y007709D02*
X026971Y007709D01*
X026971Y010721D02*
X026673Y010721D01*
X026778Y010879D02*
X026971Y010879D01*
X026111Y010879D02*
X026074Y010879D01*
X026074Y010721D02*
X026111Y010721D01*
X026111Y011196D02*
X026074Y011196D01*
X026074Y011355D02*
X026111Y011355D01*
X025351Y013257D02*
X023274Y013257D01*
X023333Y013415D02*
X025300Y013415D01*
X025311Y013574D02*
X023330Y013574D01*
X023257Y013732D02*
X025396Y013732D01*
X025627Y014049D02*
X019688Y014049D01*
X019842Y014208D02*
X022048Y014208D01*
X021960Y014366D02*
X019892Y014366D01*
X019880Y014525D02*
X021946Y014525D01*
X021994Y014683D02*
X019794Y014683D01*
X019217Y015000D02*
X019180Y015000D01*
X019180Y015159D02*
X019217Y015159D01*
X019217Y015317D02*
X019180Y015317D01*
X019180Y015476D02*
X019217Y015476D01*
X019217Y015634D02*
X019180Y015634D01*
X019180Y015793D02*
X019217Y015793D01*
X019691Y015793D02*
X022054Y015793D01*
X021952Y015634D02*
X019852Y015634D01*
X022139Y014842D02*
X012909Y014842D01*
X012485Y015159D02*
X012448Y015159D01*
X012448Y015317D02*
X012485Y015317D01*
X012485Y015634D02*
X012448Y015634D01*
X012448Y015793D02*
X012485Y015793D01*
X011905Y015793D02*
X011856Y015744D01*
X011816Y015688D01*
X011784Y015627D01*
X009213Y015634D02*
X009176Y015634D01*
X009176Y015476D02*
X009213Y015476D01*
X009213Y015317D02*
X009176Y015317D01*
X009176Y015159D02*
X009213Y015159D01*
X009213Y015000D02*
X009176Y015000D01*
X009176Y015793D02*
X009213Y015793D01*
X002453Y015793D02*
X002416Y015793D01*
X002416Y015634D02*
X002453Y015634D01*
X002453Y015476D02*
X002416Y015476D01*
X002416Y015317D02*
X002453Y015317D01*
X002453Y015159D02*
X002416Y015159D01*
X002049Y014049D02*
X001812Y014049D01*
X001794Y013891D02*
X022257Y013891D01*
X022022Y013732D02*
X019745Y013732D01*
X019860Y013574D02*
X021949Y013574D01*
X021946Y013415D02*
X019892Y013415D01*
X019862Y013257D02*
X022005Y013257D01*
X022202Y013098D02*
X019751Y013098D01*
X019674Y012781D02*
X022071Y012781D01*
X021969Y012623D02*
X019839Y012623D01*
X019892Y012464D02*
X021946Y012464D01*
X021985Y012306D02*
X019882Y012306D01*
X019800Y012147D02*
X022109Y012147D01*
X022621Y015159D02*
X022658Y015159D01*
X022658Y015317D02*
X022621Y015317D01*
X022621Y015634D02*
X022658Y015634D01*
X022658Y015793D02*
X022621Y015793D01*
X018610Y008343D02*
X016409Y008343D01*
X016463Y008185D02*
X018515Y008185D01*
X018497Y008026D02*
X016455Y008026D01*
X016375Y007868D02*
X018541Y007868D01*
X022801Y003747D02*
X022994Y003747D01*
X022994Y003588D02*
X022844Y003588D01*
X022844Y003430D02*
X022994Y003430D01*
X022994Y003271D02*
X022844Y003271D01*
X022844Y003113D02*
X022994Y003113D01*
X021113Y003271D02*
X020282Y003271D01*
X022856Y001369D02*
X024167Y001369D01*
X028189Y000735D02*
X000403Y000735D01*
X000403Y000577D02*
X028189Y000577D01*
X028190Y000418D02*
X000403Y000418D01*
X002818Y007709D02*
X005449Y007709D01*
X004101Y007868D02*
X003048Y007868D01*
X003119Y008026D02*
X003942Y008026D01*
X003800Y008185D02*
X003120Y008185D01*
X003059Y008343D02*
X003760Y008343D01*
X001904Y009770D02*
X001166Y009770D01*
X001794Y013732D02*
X001845Y013732D01*
D22*
X004100Y012227D02*
X004297Y012424D01*
X005844Y012424D01*
X005848Y012428D01*
X004100Y012227D02*
X004100Y008349D01*
X004336Y008113D01*
X005840Y008113D01*
D23*
X010793Y006243D02*
X011383Y006952D01*
X012092Y006952D01*
X012486Y006676D01*
X012683Y006558D01*
X013840Y006558D01*
X013950Y006668D01*
M02*
