G75*
%MOIN*%
%OFA0B0*%
%FSLAX24Y24*%
%IPPOS*%
%LPD*%
%AMOC8*
5,1,8,0,0,1.08239X$1,22.5*
%
%ADD10R,0.0574X0.0574*%
%ADD11C,0.1359*%
%ADD12OC8,0.0540*%
%ADD13C,0.0920*%
%ADD14C,0.0614*%
D10*
X006057Y002893D03*
X007072Y002389D03*
X007072Y003404D03*
X006057Y003885D03*
X007065Y004385D03*
X006061Y004885D03*
X007057Y005377D03*
X006057Y005881D03*
X021435Y005885D03*
X022450Y005381D03*
X021435Y004869D03*
X022450Y004389D03*
X021443Y003889D03*
X022446Y003389D03*
X021450Y002897D03*
X022450Y002393D03*
D11*
X003557Y001885D03*
X003557Y006373D03*
X024950Y006389D03*
X024950Y001900D03*
D12*
X013549Y002408D03*
X013549Y004408D03*
D13*
X012683Y004632D02*
X012683Y005492D01*
X011223Y006243D02*
X010363Y006243D01*
X010363Y003881D02*
X011223Y003881D01*
D14*
X014820Y002898D02*
X014820Y002344D01*
X015820Y002344D02*
X015820Y002898D01*
X017419Y002858D02*
X017419Y002305D01*
X018419Y002305D02*
X018419Y002858D01*
X018914Y008058D02*
X019467Y008058D01*
X019467Y009058D02*
X018914Y009058D01*
X018914Y010058D02*
X019467Y010058D01*
X019467Y011058D02*
X018914Y011058D01*
X018922Y012412D02*
X019475Y012412D01*
X019475Y013412D02*
X018922Y013412D01*
X018922Y014412D02*
X019475Y014412D01*
X019475Y015412D02*
X018922Y015412D01*
X016023Y015408D02*
X015469Y015408D01*
X015469Y014408D02*
X016023Y014408D01*
X016023Y013408D02*
X015469Y013408D01*
X015469Y012408D02*
X016023Y012408D01*
X016046Y011129D02*
X015492Y011129D01*
X015492Y010129D02*
X016046Y010129D01*
X016046Y009129D02*
X015492Y009129D01*
X015492Y008129D02*
X016046Y008129D01*
X012708Y008184D02*
X012154Y008184D01*
X012154Y009184D02*
X012708Y009184D01*
X012708Y010184D02*
X012154Y010184D01*
X012154Y011184D02*
X012708Y011184D01*
X012743Y012460D02*
X012189Y012460D01*
X012189Y013460D02*
X012743Y013460D01*
X012743Y014460D02*
X012189Y014460D01*
X012189Y015460D02*
X012743Y015460D01*
X009471Y015397D02*
X008918Y015397D01*
X008918Y014397D02*
X009471Y014397D01*
X009471Y013397D02*
X008918Y013397D01*
X008918Y012397D02*
X009471Y012397D01*
X009448Y011113D02*
X008894Y011113D01*
X008894Y010113D02*
X009448Y010113D01*
X009448Y009113D02*
X008894Y009113D01*
X008894Y008113D02*
X009448Y008113D01*
X006117Y008113D02*
X005563Y008113D01*
X005563Y009113D02*
X006117Y009113D01*
X006117Y010113D02*
X005563Y010113D01*
X005563Y011113D02*
X006117Y011113D01*
X006125Y012428D02*
X005571Y012428D01*
X005571Y013428D02*
X006125Y013428D01*
X006125Y014428D02*
X005571Y014428D01*
X005571Y015428D02*
X006125Y015428D01*
X002711Y015456D02*
X002158Y015456D01*
X002158Y014456D02*
X002711Y014456D01*
X002711Y013456D02*
X002158Y013456D01*
X002158Y012456D02*
X002711Y012456D01*
X002704Y011113D02*
X002150Y011113D01*
X002150Y010113D02*
X002704Y010113D01*
X002704Y009113D02*
X002150Y009113D01*
X002150Y008113D02*
X002704Y008113D01*
X022402Y008058D02*
X022956Y008058D01*
X022956Y009058D02*
X022402Y009058D01*
X022402Y010058D02*
X022956Y010058D01*
X022956Y011058D02*
X022402Y011058D01*
X022363Y012483D02*
X022916Y012483D01*
X022916Y013483D02*
X022363Y013483D01*
X022363Y014483D02*
X022916Y014483D01*
X022916Y015483D02*
X022363Y015483D01*
X025717Y015463D02*
X026271Y015463D01*
X026271Y014463D02*
X025717Y014463D01*
X025717Y013463D02*
X026271Y013463D01*
X026271Y012463D02*
X025717Y012463D01*
X025815Y011034D02*
X026369Y011034D01*
X026369Y010034D02*
X025815Y010034D01*
X025815Y009034D02*
X026369Y009034D01*
X026369Y008034D02*
X025815Y008034D01*
M02*
