G75*
%MOIN*%
%OFA0B0*%
%FSLAX24Y24*%
%IPPOS*%
%LPD*%
%AMOC8*
5,1,8,0,0,1.08239X$1,22.5*
%
%ADD10C,0.0531*%
%ADD11R,0.0945X0.0945*%
%ADD12R,0.0512X0.0591*%
%ADD13R,0.0472X0.0472*%
%ADD14C,0.0480*%
%ADD15C,0.0860*%
%ADD16C,0.0160*%
%ADD17C,0.0560*%
%ADD18C,0.0320*%
%ADD19C,0.0100*%
%ADD20C,0.0240*%
%ADD21R,0.0396X0.0396*%
%ADD22C,0.0400*%
%ADD23C,0.0080*%
%ADD24C,0.0396*%
D10*
X007049Y002389D03*
X006033Y002893D03*
X007049Y003404D03*
X006033Y003885D03*
X007041Y004385D03*
X006037Y004885D03*
X007033Y005377D03*
X006033Y005881D03*
X021411Y005885D03*
X022427Y005381D03*
X021411Y004869D03*
X022427Y004389D03*
X021419Y003889D03*
X022423Y003389D03*
X021427Y002897D03*
X022427Y002393D03*
D11*
X015659Y006668D03*
X013927Y006668D03*
D12*
X017061Y006656D03*
X017809Y006656D03*
X018624Y002503D03*
X019372Y002503D03*
X017128Y002109D03*
X016380Y002109D03*
X013506Y001558D03*
X012757Y001558D03*
D13*
X014332Y000849D03*
X015159Y000849D03*
X017817Y001341D03*
X020100Y001853D03*
X017817Y002168D03*
X020100Y002680D03*
X018872Y006074D03*
X018872Y006900D03*
D14*
X017777Y005550D03*
X016399Y004920D03*
X013525Y004408D03*
X017777Y003550D03*
X016399Y002920D03*
X013525Y002408D03*
D15*
X010769Y001519D03*
X008880Y002700D03*
X010769Y003881D03*
D16*
X000380Y000381D02*
X000380Y007695D01*
X006355Y007695D01*
X005397Y006737D01*
X005360Y006649D01*
X005360Y002125D01*
X005355Y002102D01*
X005360Y002078D01*
X005360Y002054D01*
X005369Y002032D01*
X005373Y002009D01*
X005387Y001988D01*
X005397Y001965D01*
X005413Y001949D01*
X005426Y001929D01*
X005447Y001915D01*
X005464Y001898D01*
X005486Y001889D01*
X005505Y001876D01*
X005529Y001871D01*
X005552Y001861D01*
X005576Y001861D01*
X006130Y001748D01*
X006176Y001738D01*
X006177Y001739D01*
X006178Y001738D01*
X006224Y001747D01*
X006270Y001756D01*
X006271Y001757D01*
X006311Y001783D01*
X006350Y001809D01*
X006351Y001809D01*
X006377Y001849D01*
X006648Y002245D01*
X006688Y002147D01*
X006808Y002028D01*
X006964Y001963D01*
X007134Y001963D01*
X007290Y002028D01*
X007410Y002147D01*
X007475Y002304D01*
X007475Y002473D01*
X007410Y002630D01*
X007290Y002750D01*
X007134Y002814D01*
X006964Y002814D01*
X006840Y002763D01*
X006840Y003030D01*
X006964Y002979D01*
X007134Y002979D01*
X007290Y003043D01*
X007410Y003163D01*
X007475Y003320D01*
X007475Y003489D01*
X007410Y003646D01*
X007290Y003765D01*
X007134Y003830D01*
X006964Y003830D01*
X006840Y003779D01*
X006840Y003972D01*
X006873Y003994D01*
X006956Y003959D01*
X007126Y003959D01*
X007282Y004024D01*
X007402Y004144D01*
X007467Y004300D01*
X007467Y004469D01*
X007402Y004626D01*
X007282Y004746D01*
X007126Y004810D01*
X006956Y004810D01*
X006800Y004746D01*
X006680Y004626D01*
X006615Y004469D01*
X006615Y004399D01*
X006487Y004314D01*
X006464Y004305D01*
X006448Y004288D01*
X006428Y004275D01*
X006414Y004255D01*
X006397Y004237D01*
X006388Y004216D01*
X006375Y004196D01*
X006370Y004172D01*
X006363Y004157D01*
X006274Y004246D01*
X006118Y004310D01*
X005948Y004310D01*
X005840Y004266D01*
X005840Y004485D01*
X005866Y004472D01*
X005933Y004450D01*
X006002Y004439D01*
X006028Y004439D01*
X006028Y004876D01*
X006046Y004876D01*
X006046Y004893D01*
X006483Y004893D01*
X006483Y004920D01*
X006472Y004989D01*
X006450Y005056D01*
X006418Y005118D01*
X006377Y005175D01*
X006327Y005225D01*
X006271Y005266D01*
X006208Y005298D01*
X006141Y005319D01*
X006072Y005330D01*
X006046Y005330D01*
X006046Y004893D01*
X006028Y004893D01*
X006028Y005330D01*
X006002Y005330D01*
X005933Y005319D01*
X005866Y005298D01*
X005840Y005285D01*
X005840Y005479D01*
X005862Y005468D01*
X005929Y005446D01*
X005998Y005435D01*
X006024Y005435D01*
X006024Y005872D01*
X006042Y005872D01*
X006042Y005889D01*
X006479Y005889D01*
X006479Y005916D01*
X006468Y005985D01*
X006446Y006052D01*
X006414Y006114D01*
X006373Y006171D01*
X006323Y006221D01*
X006267Y006262D01*
X006204Y006294D01*
X006137Y006316D01*
X006068Y006327D01*
X006042Y006327D01*
X006042Y005889D01*
X006024Y005889D01*
X006024Y006327D01*
X005998Y006327D01*
X005929Y006316D01*
X005862Y006294D01*
X005840Y006283D01*
X005840Y006283D01*
X005840Y006502D01*
X006699Y007361D01*
X016894Y007348D01*
X016860Y007267D01*
X016860Y007112D01*
X016738Y007112D01*
X016645Y007018D01*
X016645Y006329D01*
X016621Y006329D01*
X016291Y006658D01*
X016291Y007207D01*
X016198Y007301D01*
X015120Y007301D01*
X015027Y007207D01*
X015027Y006129D01*
X015120Y006036D01*
X015669Y006036D01*
X015928Y005777D01*
X015894Y005777D01*
X013753Y005777D01*
X013591Y005710D01*
X013467Y005587D01*
X013411Y005452D01*
X013276Y005396D01*
X013152Y005272D01*
X013085Y005110D01*
X013085Y004321D01*
X013152Y004159D01*
X013276Y004035D01*
X013438Y003968D01*
X013613Y003968D01*
X013774Y004035D01*
X013898Y004159D01*
X013965Y004321D01*
X013965Y004897D01*
X015800Y004897D01*
X016026Y004671D01*
X016150Y004547D01*
X016312Y004480D01*
X016487Y004480D01*
X016648Y004547D01*
X016772Y004671D01*
X016839Y004833D01*
X016839Y005449D01*
X017386Y005449D01*
X017438Y005323D01*
X017551Y005211D01*
X017698Y005150D01*
X017701Y005150D01*
X017721Y005142D01*
X017896Y005142D01*
X018058Y005209D01*
X018182Y005332D01*
X018249Y005494D01*
X018249Y005782D01*
X018257Y005801D01*
X018257Y005976D01*
X018249Y005995D01*
X018249Y006744D01*
X018225Y006802D01*
X018225Y006979D01*
X018475Y006979D01*
X018475Y006598D01*
X018569Y006504D01*
X019174Y006504D01*
X019268Y006598D01*
X019268Y007203D01*
X019174Y007297D01*
X019092Y007297D01*
X019084Y007314D01*
X019071Y007345D01*
X022061Y007342D01*
X022329Y007325D01*
X022336Y007322D01*
X022376Y007322D01*
X022416Y007319D01*
X022423Y007322D01*
X022524Y007322D01*
X022695Y007041D01*
X022700Y005733D01*
X022660Y005762D01*
X022598Y005794D01*
X022531Y005816D01*
X022462Y005827D01*
X022435Y005827D01*
X022435Y005389D01*
X022418Y005389D01*
X022418Y005372D01*
X022435Y005372D01*
X022435Y004935D01*
X022462Y004935D01*
X022531Y004946D01*
X022549Y004952D01*
X022455Y004814D01*
X022342Y004814D01*
X022186Y004750D01*
X022066Y004630D01*
X022001Y004473D01*
X022001Y004304D01*
X022066Y004147D01*
X022186Y004028D01*
X022342Y003963D01*
X022511Y003963D01*
X022668Y004028D01*
X022788Y004147D01*
X022853Y004304D01*
X022853Y004473D01*
X022834Y004518D01*
X023128Y004948D01*
X023147Y004966D01*
X023155Y004987D01*
X023167Y005005D01*
X023173Y005030D01*
X023183Y005054D01*
X023183Y005077D01*
X023187Y005098D01*
X023182Y005124D01*
X023175Y007081D01*
X023179Y007099D01*
X023175Y007128D01*
X023174Y007158D01*
X023167Y007175D01*
X023164Y007193D01*
X023149Y007218D01*
X023138Y007246D01*
X023124Y007259D01*
X022874Y007671D01*
X022864Y007695D01*
X028166Y007695D01*
X028166Y000381D01*
X000380Y000381D01*
X000380Y000418D02*
X028166Y000418D01*
X028166Y000577D02*
X015572Y000577D01*
X015575Y000589D02*
X015575Y000811D01*
X015197Y000811D01*
X015197Y000433D01*
X015419Y000433D01*
X015465Y000445D01*
X015506Y000469D01*
X015539Y000503D01*
X015563Y000544D01*
X015575Y000589D01*
X015197Y000577D02*
X015121Y000577D01*
X014812Y000469D02*
X014779Y000503D01*
X014755Y000544D01*
X014743Y000589D01*
X014743Y000811D01*
X015121Y000811D01*
X015197Y000811D01*
X015197Y000887D01*
X015575Y000887D01*
X015575Y001109D01*
X015563Y001155D01*
X015539Y001196D01*
X015506Y001230D01*
X015465Y001253D01*
X015419Y001266D01*
X015197Y001266D01*
X015197Y000887D01*
X015121Y000887D01*
X015121Y000811D01*
X015121Y000433D01*
X014899Y000433D01*
X014853Y000445D01*
X014812Y000469D01*
X014729Y000547D02*
X014635Y000453D01*
X014030Y000453D01*
X013936Y000547D01*
X013936Y000597D01*
X012552Y000597D01*
X012464Y000634D01*
X012397Y000702D01*
X012360Y000790D01*
X012360Y001178D01*
X012342Y001196D01*
X012342Y001920D01*
X012435Y002013D01*
X013080Y002013D01*
X013131Y001961D01*
X013183Y002013D01*
X013400Y002013D01*
X013400Y002027D01*
X013299Y002069D01*
X013186Y002182D01*
X013125Y002329D01*
X013125Y002488D01*
X013186Y002635D01*
X013299Y002747D01*
X013446Y002808D01*
X013574Y002808D01*
X013595Y002818D01*
X013637Y002801D01*
X013683Y002801D01*
X013712Y002772D01*
X013750Y002758D01*
X013756Y002743D01*
X013864Y002635D01*
X013925Y002488D01*
X013925Y002329D01*
X013864Y002182D01*
X013800Y002117D01*
X013800Y002013D01*
X013828Y002013D01*
X013921Y001920D01*
X013921Y001196D01*
X013828Y001103D01*
X013183Y001103D01*
X013131Y001155D01*
X013080Y001103D01*
X012840Y001103D01*
X012840Y001077D01*
X013936Y001077D01*
X013936Y001152D01*
X014030Y001246D01*
X014635Y001246D01*
X014729Y001152D01*
X014729Y000547D01*
X014729Y000577D02*
X014746Y000577D01*
X014729Y000735D02*
X014743Y000735D01*
X014743Y000887D02*
X015121Y000887D01*
X015121Y001266D01*
X014899Y001266D01*
X014853Y001253D01*
X014812Y001230D01*
X014779Y001196D01*
X014755Y001155D01*
X014743Y001109D01*
X014743Y000887D01*
X014743Y000894D02*
X014729Y000894D01*
X015121Y000894D02*
X015197Y000894D01*
X015197Y000735D02*
X015121Y000735D01*
X015575Y000735D02*
X028166Y000735D01*
X028166Y000894D02*
X015575Y000894D01*
X015754Y000841D02*
X015923Y001184D01*
X015525Y001211D02*
X017400Y001211D01*
X017400Y001303D02*
X017400Y001081D01*
X017413Y001036D01*
X017436Y000995D01*
X017470Y000961D01*
X017511Y000937D01*
X017557Y000925D01*
X017778Y000925D01*
X017778Y001303D01*
X017400Y001303D01*
X017400Y001380D02*
X017778Y001380D01*
X017778Y001758D01*
X017557Y001758D01*
X017543Y001754D01*
X017543Y001772D01*
X018119Y001772D01*
X018213Y001866D01*
X018213Y002136D01*
X018301Y002048D01*
X018946Y002048D01*
X018998Y002099D01*
X019049Y002048D01*
X019684Y002048D01*
X019684Y001891D01*
X020062Y001891D01*
X020062Y001815D01*
X020138Y001815D01*
X020138Y001437D01*
X020360Y001437D01*
X020406Y001449D01*
X020447Y001473D01*
X020480Y001506D01*
X020504Y001548D01*
X020516Y001593D01*
X020516Y001815D01*
X020138Y001815D01*
X020138Y001891D01*
X020516Y001891D01*
X020516Y002113D01*
X020504Y002159D01*
X020480Y002200D01*
X020447Y002233D01*
X020406Y002257D01*
X020360Y002269D01*
X020138Y002269D01*
X020138Y001891D01*
X020062Y001891D01*
X020062Y002269D01*
X019840Y002269D01*
X019794Y002257D01*
X019788Y002253D01*
X019788Y002294D01*
X019798Y002284D01*
X020402Y002284D01*
X020496Y002378D01*
X020496Y002982D01*
X020402Y003076D01*
X019798Y003076D01*
X019704Y002982D01*
X019704Y002948D01*
X019694Y002958D01*
X019049Y002958D01*
X018998Y002906D01*
X018946Y002958D01*
X018944Y002958D01*
X018944Y003315D01*
X018895Y003432D01*
X018757Y003570D01*
X018667Y003660D01*
X018549Y003709D01*
X018144Y003709D01*
X018116Y003777D01*
X018004Y003889D01*
X017857Y003950D01*
X017698Y003950D01*
X017551Y003889D01*
X017438Y003777D01*
X017377Y003630D01*
X017377Y003471D01*
X017438Y003323D01*
X017551Y003211D01*
X017698Y003150D01*
X017725Y003150D01*
X017757Y003117D01*
X017875Y003069D01*
X018304Y003069D01*
X018304Y002958D01*
X018301Y002958D01*
X018208Y002864D01*
X018208Y002476D01*
X018119Y002564D01*
X017514Y002564D01*
X017482Y002532D01*
X017450Y002564D01*
X016805Y002564D01*
X016754Y002513D01*
X016702Y002564D01*
X016586Y002564D01*
X016626Y002581D01*
X016738Y002694D01*
X016799Y002841D01*
X016799Y003000D01*
X016738Y003147D01*
X016626Y003259D01*
X016479Y003320D01*
X016320Y003320D01*
X016173Y003259D01*
X016060Y003147D01*
X015999Y003000D01*
X015999Y002841D01*
X016060Y002694D01*
X016173Y002581D01*
X016213Y002564D01*
X016057Y002564D01*
X015964Y002471D01*
X015964Y002301D01*
X015905Y002301D01*
X015904Y002304D01*
X015803Y002405D01*
X015671Y002459D01*
X015529Y002459D01*
X015397Y002405D01*
X015296Y002304D01*
X015242Y002172D01*
X015242Y002030D01*
X015296Y001898D01*
X015397Y001798D01*
X015529Y001743D01*
X015671Y001743D01*
X015803Y001798D01*
X015904Y001898D01*
X015905Y001901D01*
X015964Y001901D01*
X015964Y001748D01*
X016057Y001654D01*
X016702Y001654D01*
X016754Y001706D01*
X016805Y001654D01*
X017416Y001654D01*
X017413Y001647D01*
X017400Y001601D01*
X017400Y001380D01*
X017400Y001528D02*
X013921Y001528D01*
X013921Y001686D02*
X016025Y001686D01*
X015964Y001845D02*
X015850Y001845D01*
X015350Y001845D02*
X013921Y001845D01*
X013838Y002003D02*
X015253Y002003D01*
X015242Y002162D02*
X013844Y002162D01*
X013922Y002320D02*
X015313Y002320D01*
X015887Y002320D02*
X015964Y002320D01*
X015972Y002479D02*
X013925Y002479D01*
X013862Y002637D02*
X016116Y002637D01*
X016018Y002796D02*
X013688Y002796D01*
X013415Y002796D02*
X012627Y002796D01*
X012627Y002954D02*
X015999Y002954D01*
X016046Y003113D02*
X012627Y003113D01*
X012627Y003271D02*
X016202Y003271D01*
X016597Y003271D02*
X017490Y003271D01*
X017394Y003430D02*
X012627Y003430D01*
X012627Y003588D02*
X017377Y003588D01*
X017426Y003747D02*
X012627Y003747D01*
X012627Y003905D02*
X017589Y003905D01*
X017965Y003905D02*
X020993Y003905D01*
X020993Y003973D02*
X020993Y003804D01*
X021058Y003647D01*
X021178Y003528D01*
X021334Y003463D01*
X021504Y003463D01*
X021660Y003528D01*
X021780Y003647D01*
X021845Y003804D01*
X021845Y003973D01*
X021780Y004130D01*
X021660Y004250D01*
X021504Y004314D01*
X021334Y004314D01*
X021178Y004250D01*
X021058Y004130D01*
X020993Y003973D01*
X021031Y004064D02*
X013803Y004064D01*
X013924Y004222D02*
X021150Y004222D01*
X021687Y004222D02*
X022035Y004222D01*
X022001Y004381D02*
X013965Y004381D01*
X013965Y004539D02*
X016169Y004539D01*
X015999Y004698D02*
X013965Y004698D01*
X013965Y004856D02*
X015841Y004856D01*
X016783Y004698D02*
X020998Y004698D01*
X021030Y004635D01*
X021071Y004579D01*
X021121Y004529D01*
X021177Y004488D01*
X021240Y004456D01*
X021307Y004434D01*
X021376Y004423D01*
X021402Y004423D01*
X021402Y004860D01*
X020965Y004860D01*
X020965Y004834D01*
X020976Y004765D01*
X020998Y004698D01*
X021402Y004698D02*
X021420Y004698D01*
X021701Y004529D02*
X021751Y004579D01*
X021792Y004635D01*
X021824Y004698D01*
X021846Y004765D01*
X021857Y004834D01*
X021857Y004860D01*
X021420Y004860D01*
X021420Y004878D01*
X021402Y004878D01*
X021402Y005315D01*
X021376Y005315D01*
X021307Y005304D01*
X021240Y005282D01*
X021177Y005250D01*
X021121Y005209D01*
X021071Y005159D01*
X021030Y005103D01*
X020998Y005040D01*
X020976Y004973D01*
X020965Y004904D01*
X020965Y004878D01*
X021402Y004878D01*
X021402Y004860D01*
X021420Y004860D01*
X021420Y004423D01*
X021446Y004423D01*
X021515Y004434D01*
X021582Y004456D01*
X021645Y004488D01*
X021701Y004529D01*
X021712Y004539D02*
X022028Y004539D01*
X022134Y004698D02*
X021824Y004698D01*
X021857Y004856D02*
X022484Y004856D01*
X022418Y004935D02*
X022418Y005372D01*
X021981Y005372D01*
X021981Y005346D01*
X021992Y005276D01*
X022014Y005210D01*
X022046Y005147D01*
X022087Y005090D01*
X022136Y005041D01*
X022193Y005000D01*
X022256Y004968D01*
X022322Y004946D01*
X022392Y004935D01*
X022418Y004935D01*
X022418Y005015D02*
X022435Y005015D01*
X022172Y005015D02*
X021832Y005015D01*
X021824Y005040D02*
X021792Y005103D01*
X021751Y005159D01*
X021701Y005209D01*
X021645Y005250D01*
X021582Y005282D01*
X021515Y005304D01*
X021446Y005315D01*
X021420Y005315D01*
X021420Y004878D01*
X021857Y004878D01*
X021857Y004904D01*
X021846Y004973D01*
X021824Y005040D01*
X021420Y005015D02*
X021402Y005015D01*
X020990Y005015D02*
X016839Y005015D01*
X016839Y005173D02*
X017642Y005173D01*
X017973Y005173D02*
X021085Y005173D01*
X021402Y005173D02*
X021420Y005173D01*
X021737Y005173D02*
X022032Y005173D01*
X022418Y005173D02*
X022435Y005173D01*
X022418Y005332D02*
X022435Y005332D01*
X022418Y005389D02*
X021981Y005389D01*
X021981Y005416D01*
X021992Y005485D01*
X022014Y005552D01*
X022046Y005614D01*
X022087Y005671D01*
X022136Y005721D01*
X022193Y005762D01*
X022256Y005794D01*
X022322Y005816D01*
X022392Y005827D01*
X022418Y005827D01*
X022418Y005389D01*
X022418Y005490D02*
X022435Y005490D01*
X021994Y005490D02*
X021619Y005490D01*
X021645Y005503D02*
X021701Y005545D01*
X021751Y005594D01*
X021792Y005651D01*
X021824Y005714D01*
X021846Y005780D01*
X021857Y005850D01*
X021857Y005876D01*
X021420Y005876D01*
X021420Y005893D01*
X021857Y005893D01*
X021857Y005920D01*
X021846Y005989D01*
X021824Y006056D01*
X021792Y006118D01*
X021751Y006175D01*
X021701Y006225D01*
X021645Y006266D01*
X021582Y006298D01*
X021515Y006319D01*
X021446Y006330D01*
X021420Y006330D01*
X021420Y005893D01*
X021402Y005893D01*
X021402Y005876D01*
X020965Y005876D01*
X020965Y005850D01*
X020976Y005780D01*
X020998Y005714D01*
X021030Y005651D01*
X021071Y005594D01*
X021121Y005545D01*
X021177Y005503D01*
X021240Y005472D01*
X021307Y005450D01*
X021376Y005439D01*
X021402Y005439D01*
X021402Y005876D01*
X021420Y005876D01*
X021420Y005439D01*
X021446Y005439D01*
X021515Y005450D01*
X021582Y005472D01*
X021645Y005503D01*
X021420Y005490D02*
X021402Y005490D01*
X021203Y005490D02*
X018247Y005490D01*
X018249Y005649D02*
X021031Y005649D01*
X021402Y005649D02*
X021420Y005649D01*
X021791Y005649D02*
X022070Y005649D01*
X022418Y005649D02*
X022435Y005649D01*
X022418Y005807D02*
X022435Y005807D01*
X022557Y005807D02*
X022700Y005807D01*
X022297Y005807D02*
X021850Y005807D01*
X021420Y005807D02*
X021402Y005807D01*
X021402Y005893D02*
X020965Y005893D01*
X020965Y005920D01*
X020976Y005989D01*
X020998Y006056D01*
X021030Y006118D01*
X021071Y006175D01*
X021121Y006225D01*
X021177Y006266D01*
X021240Y006298D01*
X021307Y006319D01*
X021376Y006330D01*
X021402Y006330D01*
X021402Y005893D01*
X021402Y005966D02*
X021420Y005966D01*
X021849Y005966D02*
X022699Y005966D01*
X022699Y006124D02*
X021788Y006124D01*
X021420Y006124D02*
X021402Y006124D01*
X021034Y006124D02*
X019288Y006124D01*
X019288Y006112D02*
X018910Y006112D01*
X018910Y006036D01*
X019288Y006036D01*
X019288Y005814D01*
X019276Y005768D01*
X019252Y005727D01*
X019218Y005693D01*
X019177Y005670D01*
X019132Y005657D01*
X018910Y005657D01*
X018910Y006036D01*
X018834Y006036D01*
X018834Y005657D01*
X018612Y005657D01*
X018566Y005670D01*
X018525Y005693D01*
X018491Y005727D01*
X018468Y005768D01*
X018455Y005814D01*
X018455Y006036D01*
X018834Y006036D01*
X018834Y006112D01*
X018834Y006490D01*
X018612Y006490D01*
X018566Y006478D01*
X018525Y006454D01*
X018491Y006420D01*
X018468Y006379D01*
X018455Y006334D01*
X018455Y006112D01*
X018834Y006112D01*
X018910Y006112D01*
X018910Y006490D01*
X019132Y006490D01*
X019177Y006478D01*
X019218Y006454D01*
X019252Y006420D01*
X019276Y006379D01*
X019288Y006334D01*
X019288Y006112D01*
X019288Y005966D02*
X020973Y005966D01*
X020972Y005807D02*
X019286Y005807D01*
X018910Y005807D02*
X018834Y005807D01*
X018457Y005807D02*
X018257Y005807D01*
X018257Y005966D02*
X018455Y005966D01*
X018834Y005966D02*
X018910Y005966D01*
X018910Y006124D02*
X018834Y006124D01*
X018455Y006124D02*
X018249Y006124D01*
X018249Y006283D02*
X018455Y006283D01*
X018512Y006441D02*
X018249Y006441D01*
X018249Y006600D02*
X018475Y006600D01*
X018475Y006758D02*
X018243Y006758D01*
X018225Y006917D02*
X018475Y006917D01*
X018872Y006900D02*
X018864Y007219D01*
X017100Y007219D01*
X017100Y006601D01*
X016645Y006600D02*
X016350Y006600D01*
X016291Y006758D02*
X016645Y006758D01*
X016645Y006917D02*
X016291Y006917D01*
X016291Y007075D02*
X016702Y007075D01*
X016860Y007234D02*
X016265Y007234D01*
X015053Y007234D02*
X014532Y007234D01*
X014559Y007207D02*
X014465Y007301D01*
X013388Y007301D01*
X013294Y007207D01*
X013294Y006998D01*
X012572Y006998D01*
X012410Y006931D01*
X012286Y006807D01*
X011814Y006335D01*
X011747Y006173D01*
X011747Y002803D01*
X011004Y002060D01*
X010887Y002109D01*
X010652Y002109D01*
X010435Y002019D01*
X010269Y001853D01*
X010179Y001636D01*
X010179Y001401D01*
X010269Y001184D01*
X010435Y001018D01*
X010652Y000929D01*
X010887Y000929D01*
X011103Y001018D01*
X011164Y001079D01*
X011172Y001079D01*
X011333Y001146D01*
X012436Y002248D01*
X012560Y002372D01*
X012627Y002533D01*
X012627Y005903D01*
X012841Y006118D01*
X013306Y006118D01*
X013388Y006036D01*
X014465Y006036D01*
X014559Y006129D01*
X014559Y007207D01*
X014559Y007075D02*
X015027Y007075D01*
X015027Y006917D02*
X014559Y006917D01*
X014559Y006758D02*
X015027Y006758D01*
X015027Y006600D02*
X014559Y006600D01*
X014559Y006441D02*
X015027Y006441D01*
X015027Y006283D02*
X014559Y006283D01*
X014554Y006124D02*
X015032Y006124D01*
X015739Y005966D02*
X012689Y005966D01*
X012627Y005807D02*
X015898Y005807D01*
X016839Y005332D02*
X017435Y005332D01*
X018181Y005332D02*
X021983Y005332D01*
X022600Y004601D02*
X022943Y005101D01*
X022935Y007109D01*
X022659Y007562D01*
X022383Y007562D01*
X022069Y007582D01*
X006600Y007601D01*
X005600Y006601D01*
X005600Y002101D01*
X006179Y001983D01*
X006600Y002601D01*
X006600Y004101D01*
X007061Y004404D01*
X007041Y004385D01*
X006588Y004381D02*
X005840Y004381D01*
X006046Y004439D02*
X006072Y004439D01*
X006141Y004450D01*
X006208Y004472D01*
X006271Y004503D01*
X006327Y004545D01*
X006377Y004594D01*
X006418Y004651D01*
X006450Y004714D01*
X006472Y004780D01*
X006483Y004850D01*
X006483Y004876D01*
X006046Y004876D01*
X006046Y004439D01*
X006046Y004539D02*
X006028Y004539D01*
X006320Y004539D02*
X006644Y004539D01*
X006752Y004698D02*
X006442Y004698D01*
X006046Y004698D02*
X006028Y004698D01*
X006028Y004856D02*
X006046Y004856D01*
X006483Y004856D02*
X011747Y004856D01*
X011747Y004698D02*
X007330Y004698D01*
X007438Y004539D02*
X011747Y004539D01*
X011747Y004381D02*
X011119Y004381D01*
X011089Y004403D02*
X011003Y004446D01*
X010912Y004476D01*
X010817Y004491D01*
X010798Y004491D01*
X010798Y003909D01*
X011379Y003909D01*
X011379Y003929D01*
X011364Y004024D01*
X011335Y004115D01*
X011291Y004200D01*
X011235Y004278D01*
X011167Y004346D01*
X011089Y004403D01*
X010798Y004381D02*
X010741Y004381D01*
X010721Y004491D02*
X010626Y004476D01*
X010535Y004446D01*
X010450Y004403D01*
X010372Y004346D01*
X010304Y004278D01*
X010248Y004200D01*
X010204Y004115D01*
X010174Y004024D01*
X010159Y003929D01*
X010159Y003909D01*
X010741Y003909D01*
X010741Y003853D01*
X010159Y003853D01*
X010159Y003833D01*
X010174Y003738D01*
X010204Y003647D01*
X010248Y003561D01*
X010304Y003483D01*
X010372Y003416D01*
X010450Y003359D01*
X010535Y003315D01*
X010626Y003286D01*
X010721Y003271D01*
X010741Y003271D01*
X010741Y003853D01*
X010798Y003853D01*
X010798Y003909D01*
X010741Y003909D01*
X010741Y004491D01*
X010721Y004491D01*
X010420Y004381D02*
X007467Y004381D01*
X007434Y004222D02*
X010263Y004222D01*
X010187Y004064D02*
X007322Y004064D01*
X006840Y003905D02*
X010741Y003905D01*
X010798Y003905D02*
X011747Y003905D01*
X011747Y003747D02*
X011366Y003747D01*
X011364Y003738D02*
X011379Y003833D01*
X011379Y003853D01*
X010798Y003853D01*
X010798Y003271D01*
X010817Y003271D01*
X010912Y003286D01*
X011003Y003315D01*
X011089Y003359D01*
X011167Y003416D01*
X011235Y003483D01*
X011291Y003561D01*
X011335Y003647D01*
X011364Y003738D01*
X011305Y003588D02*
X011747Y003588D01*
X011747Y003430D02*
X011181Y003430D01*
X010798Y003430D02*
X010741Y003430D01*
X010741Y003588D02*
X010798Y003588D01*
X010358Y003430D02*
X007475Y003430D01*
X007433Y003588D02*
X010234Y003588D01*
X010173Y003747D02*
X007309Y003747D01*
X007454Y003271D02*
X008665Y003271D01*
X008645Y003265D02*
X008560Y003221D01*
X008482Y003165D01*
X008414Y003097D01*
X008358Y003019D01*
X008314Y002934D01*
X008285Y002843D01*
X008270Y002748D01*
X008270Y002728D01*
X008851Y002728D01*
X008851Y002671D01*
X008908Y002671D01*
X008908Y002090D01*
X008928Y002090D01*
X009022Y002105D01*
X009114Y002134D01*
X009199Y002178D01*
X009277Y002234D01*
X009345Y002302D01*
X009401Y002380D01*
X009445Y002466D01*
X009475Y002557D01*
X009490Y002652D01*
X009490Y002671D01*
X008908Y002671D01*
X008908Y002728D01*
X009490Y002728D01*
X009490Y002748D01*
X009475Y002843D01*
X009445Y002934D01*
X009401Y003019D01*
X009345Y003097D01*
X009277Y003165D01*
X009199Y003221D01*
X009114Y003265D01*
X009022Y003295D01*
X008928Y003310D01*
X008908Y003310D01*
X008908Y002728D01*
X008851Y002728D01*
X008851Y003310D01*
X008832Y003310D01*
X008737Y003295D01*
X008645Y003265D01*
X008851Y003271D02*
X008908Y003271D01*
X009094Y003271D02*
X010718Y003271D01*
X010741Y003271D02*
X010798Y003271D01*
X010820Y003271D02*
X011747Y003271D01*
X011747Y003113D02*
X009329Y003113D01*
X008908Y003113D02*
X008851Y003113D01*
X008851Y002954D02*
X008908Y002954D01*
X008908Y002796D02*
X008851Y002796D01*
X008851Y002671D02*
X008270Y002671D01*
X008270Y002652D01*
X008285Y002557D01*
X008314Y002466D01*
X008358Y002380D01*
X008414Y002302D01*
X008482Y002234D01*
X008560Y002178D01*
X008645Y002134D01*
X008737Y002105D01*
X008832Y002090D01*
X008851Y002090D01*
X008851Y002671D01*
X008851Y002637D02*
X008908Y002637D01*
X008908Y002479D02*
X008851Y002479D01*
X008851Y002320D02*
X008908Y002320D01*
X009358Y002320D02*
X011264Y002320D01*
X011422Y002479D02*
X009449Y002479D01*
X009487Y002637D02*
X011581Y002637D01*
X011739Y002796D02*
X009482Y002796D01*
X009434Y002954D02*
X011747Y002954D01*
X012627Y002637D02*
X013188Y002637D01*
X013125Y002479D02*
X012604Y002479D01*
X012508Y002320D02*
X013129Y002320D01*
X013206Y002162D02*
X012350Y002162D01*
X012425Y002003D02*
X012191Y002003D01*
X012342Y001845D02*
X012033Y001845D01*
X011874Y001686D02*
X012342Y001686D01*
X012600Y001601D02*
X012600Y000837D01*
X014100Y000837D01*
X014729Y001052D02*
X014743Y001052D01*
X015121Y001052D02*
X015197Y001052D01*
X015575Y001052D02*
X017408Y001052D01*
X017778Y001052D02*
X017855Y001052D01*
X017855Y000925D02*
X018076Y000925D01*
X018122Y000937D01*
X018163Y000961D01*
X018197Y000995D01*
X018220Y001036D01*
X018233Y001081D01*
X018233Y001303D01*
X017855Y001303D01*
X017855Y001380D01*
X017778Y001380D01*
X017778Y001303D01*
X017855Y001303D01*
X017855Y000925D01*
X018225Y001052D02*
X024545Y001052D01*
X024400Y001112D02*
X024742Y000971D01*
X025112Y000971D01*
X025453Y001112D01*
X025715Y001374D01*
X025856Y001716D01*
X025856Y002085D01*
X025715Y002427D01*
X025453Y002689D01*
X025112Y002830D01*
X024742Y002830D01*
X024400Y002689D01*
X024139Y002427D01*
X023997Y002085D01*
X023997Y001716D01*
X024139Y001374D01*
X024400Y001112D01*
X024302Y001211D02*
X018233Y001211D01*
X017855Y001211D02*
X017778Y001211D01*
X017778Y001369D02*
X013921Y001369D01*
X013921Y001211D02*
X013995Y001211D01*
X014670Y001211D02*
X014794Y001211D01*
X015121Y001211D02*
X015197Y001211D01*
X016734Y001686D02*
X016773Y001686D01*
X017778Y001686D02*
X017855Y001686D01*
X017855Y001758D02*
X017855Y001380D01*
X018233Y001380D01*
X018233Y001601D01*
X018220Y001647D01*
X018197Y001688D01*
X018163Y001722D01*
X018122Y001745D01*
X018076Y001758D01*
X017855Y001758D01*
X018192Y001845D02*
X020062Y001845D01*
X020062Y001815D02*
X019684Y001815D01*
X019684Y001593D01*
X019696Y001548D01*
X019720Y001506D01*
X019753Y001473D01*
X019794Y001449D01*
X019840Y001437D01*
X020062Y001437D01*
X020062Y001815D01*
X020138Y001845D02*
X023997Y001845D01*
X023997Y002003D02*
X022599Y002003D01*
X022668Y002032D02*
X022788Y002151D01*
X022853Y002308D01*
X022853Y002477D01*
X022788Y002634D01*
X022668Y002754D01*
X022511Y002818D01*
X022342Y002818D01*
X022186Y002754D01*
X022066Y002634D01*
X022001Y002477D01*
X022001Y002308D01*
X022066Y002151D01*
X022186Y002032D01*
X022342Y001967D01*
X022511Y001967D01*
X022668Y002032D01*
X022792Y002162D02*
X024029Y002162D01*
X024094Y002320D02*
X022853Y002320D01*
X022852Y002479D02*
X024190Y002479D01*
X024349Y002637D02*
X022784Y002637D01*
X022566Y002796D02*
X024659Y002796D01*
X025195Y002796D02*
X028166Y002796D01*
X028166Y002954D02*
X021853Y002954D01*
X021853Y002981D02*
X021788Y003138D01*
X021668Y003257D01*
X021511Y003322D01*
X021342Y003322D01*
X021186Y003257D01*
X021066Y003138D01*
X021001Y002981D01*
X021001Y002812D01*
X021066Y002655D01*
X021186Y002536D01*
X021342Y002471D01*
X021511Y002471D01*
X021668Y002536D01*
X021788Y002655D01*
X021853Y002812D01*
X021853Y002981D01*
X022062Y003147D02*
X022182Y003028D01*
X022338Y002963D01*
X022508Y002963D01*
X022664Y003028D01*
X022784Y003147D01*
X022849Y003304D01*
X022849Y003473D01*
X022784Y003630D01*
X022664Y003750D01*
X022508Y003814D01*
X022338Y003814D01*
X022182Y003750D01*
X022062Y003630D01*
X021997Y003473D01*
X021997Y003304D01*
X022062Y003147D01*
X022097Y003113D02*
X021798Y003113D01*
X021635Y003271D02*
X022011Y003271D01*
X021997Y003430D02*
X018896Y003430D01*
X018757Y003570D02*
X018757Y003570D01*
X018739Y003588D02*
X021117Y003588D01*
X021017Y003747D02*
X018129Y003747D01*
X018944Y003271D02*
X021219Y003271D01*
X021056Y003113D02*
X018944Y003113D01*
X018950Y002954D02*
X019046Y002954D01*
X019698Y002954D02*
X019704Y002954D01*
X020496Y002954D02*
X021001Y002954D01*
X021008Y002796D02*
X020496Y002796D01*
X020496Y002637D02*
X021084Y002637D01*
X021323Y002479D02*
X020496Y002479D01*
X020439Y002320D02*
X022001Y002320D01*
X022002Y002479D02*
X021531Y002479D01*
X021770Y002637D02*
X022069Y002637D01*
X022288Y002796D02*
X021846Y002796D01*
X022749Y003113D02*
X028166Y003113D01*
X028166Y003271D02*
X022835Y003271D01*
X022849Y003430D02*
X028166Y003430D01*
X028166Y003588D02*
X022801Y003588D01*
X022667Y003747D02*
X028166Y003747D01*
X028166Y003905D02*
X021845Y003905D01*
X021821Y003747D02*
X022179Y003747D01*
X022045Y003588D02*
X021721Y003588D01*
X021807Y004064D02*
X022150Y004064D01*
X022704Y004064D02*
X028166Y004064D01*
X028166Y004222D02*
X022819Y004222D01*
X022853Y004381D02*
X028166Y004381D01*
X028166Y004539D02*
X022848Y004539D01*
X022600Y004601D02*
X022427Y004389D01*
X021420Y004539D02*
X021402Y004539D01*
X021110Y004539D02*
X016629Y004539D01*
X016839Y004856D02*
X020965Y004856D01*
X021402Y004856D02*
X021420Y004856D01*
X022957Y004698D02*
X028166Y004698D01*
X028166Y004856D02*
X023066Y004856D01*
X023170Y005015D02*
X028166Y005015D01*
X028166Y005173D02*
X023182Y005173D01*
X023182Y005332D02*
X028166Y005332D01*
X028166Y005490D02*
X025187Y005490D01*
X025112Y005459D02*
X025453Y005601D01*
X025715Y005862D01*
X025856Y006204D01*
X025856Y006574D01*
X025715Y006915D01*
X025453Y007177D01*
X025112Y007318D01*
X024742Y007318D01*
X024400Y007177D01*
X024139Y006915D01*
X023997Y006574D01*
X023997Y006204D01*
X024139Y005862D01*
X024400Y005601D01*
X024742Y005459D01*
X025112Y005459D01*
X024667Y005490D02*
X023181Y005490D01*
X023180Y005649D02*
X024352Y005649D01*
X024194Y005807D02*
X023180Y005807D01*
X023179Y005966D02*
X024096Y005966D01*
X024030Y006124D02*
X023179Y006124D01*
X023178Y006283D02*
X023997Y006283D01*
X023997Y006441D02*
X023177Y006441D01*
X023177Y006600D02*
X024008Y006600D01*
X024074Y006758D02*
X023176Y006758D01*
X023175Y006917D02*
X024140Y006917D01*
X024299Y007075D02*
X023175Y007075D01*
X023143Y007234D02*
X024538Y007234D01*
X025316Y007234D02*
X028166Y007234D01*
X028166Y007392D02*
X023043Y007392D01*
X022947Y007551D02*
X028166Y007551D01*
X028166Y007075D02*
X025555Y007075D01*
X025713Y006917D02*
X028166Y006917D01*
X028166Y006758D02*
X025780Y006758D01*
X025846Y006600D02*
X028166Y006600D01*
X028166Y006441D02*
X025856Y006441D01*
X025856Y006283D02*
X028166Y006283D01*
X028166Y006124D02*
X025823Y006124D01*
X025758Y005966D02*
X028166Y005966D01*
X028166Y005807D02*
X025660Y005807D01*
X025502Y005649D02*
X028166Y005649D01*
X022698Y006283D02*
X021612Y006283D01*
X021420Y006283D02*
X021402Y006283D01*
X021210Y006283D02*
X019288Y006283D01*
X019231Y006441D02*
X022697Y006441D01*
X022697Y006600D02*
X019268Y006600D01*
X019268Y006758D02*
X022696Y006758D01*
X022695Y006917D02*
X019268Y006917D01*
X019268Y007075D02*
X022674Y007075D01*
X022578Y007234D02*
X019237Y007234D01*
X018910Y006441D02*
X018834Y006441D01*
X018834Y006283D02*
X018910Y006283D01*
X016645Y006441D02*
X016508Y006441D01*
X013529Y005649D02*
X012627Y005649D01*
X012627Y005490D02*
X013427Y005490D01*
X013212Y005332D02*
X012627Y005332D01*
X012627Y005173D02*
X013111Y005173D01*
X013085Y005015D02*
X012627Y005015D01*
X012627Y004856D02*
X013085Y004856D01*
X013085Y004698D02*
X012627Y004698D01*
X012627Y004539D02*
X013085Y004539D01*
X013085Y004381D02*
X012627Y004381D01*
X012627Y004222D02*
X013126Y004222D01*
X013248Y004064D02*
X012627Y004064D01*
X011747Y004064D02*
X011351Y004064D01*
X011275Y004222D02*
X011747Y004222D01*
X010798Y004222D02*
X010741Y004222D01*
X010741Y004064D02*
X010798Y004064D01*
X010798Y003747D02*
X010741Y003747D01*
X008430Y003113D02*
X007359Y003113D01*
X006840Y002954D02*
X008325Y002954D01*
X008277Y002796D02*
X007179Y002796D01*
X006919Y002796D02*
X006840Y002796D01*
X007402Y002637D02*
X008272Y002637D01*
X008310Y002479D02*
X007472Y002479D01*
X007475Y002320D02*
X008401Y002320D01*
X008592Y002162D02*
X007416Y002162D01*
X007231Y002003D02*
X010420Y002003D01*
X010266Y001845D02*
X006375Y001845D01*
X006350Y001809D02*
X006350Y001809D01*
X006271Y001757D02*
X006271Y001757D01*
X005657Y001845D02*
X004463Y001845D01*
X004463Y001700D02*
X004321Y001358D01*
X004060Y001097D01*
X003718Y000955D01*
X003348Y000955D01*
X003006Y001097D01*
X002745Y001358D01*
X002603Y001700D01*
X002603Y002070D01*
X002745Y002411D01*
X003006Y002673D01*
X003348Y002814D01*
X003718Y002814D01*
X004060Y002673D01*
X004321Y002411D01*
X004463Y002070D01*
X004463Y001700D01*
X004457Y001686D02*
X010200Y001686D01*
X010179Y001528D02*
X004391Y001528D01*
X004326Y001369D02*
X010193Y001369D01*
X010258Y001211D02*
X004174Y001211D01*
X003953Y001052D02*
X010401Y001052D01*
X011137Y001052D02*
X012360Y001052D01*
X012360Y000894D02*
X000380Y000894D01*
X000380Y000735D02*
X012383Y000735D01*
X012342Y001211D02*
X011399Y001211D01*
X011557Y001369D02*
X012342Y001369D01*
X012342Y001528D02*
X011716Y001528D01*
X013090Y002003D02*
X013173Y002003D01*
X011105Y002162D02*
X009167Y002162D01*
X008908Y002162D02*
X008851Y002162D01*
X006867Y002003D02*
X006483Y002003D01*
X006591Y002162D02*
X006682Y002162D01*
X005377Y002003D02*
X004463Y002003D01*
X004425Y002162D02*
X005360Y002162D01*
X005360Y002320D02*
X004359Y002320D01*
X004254Y002479D02*
X005360Y002479D01*
X005360Y002637D02*
X004095Y002637D01*
X003763Y002796D02*
X005360Y002796D01*
X005360Y002954D02*
X000380Y002954D01*
X000380Y002796D02*
X003303Y002796D01*
X002971Y002637D02*
X000380Y002637D01*
X000380Y002479D02*
X002812Y002479D01*
X002707Y002320D02*
X000380Y002320D01*
X000380Y002162D02*
X002642Y002162D01*
X002603Y002003D02*
X000380Y002003D01*
X000380Y001845D02*
X002603Y001845D01*
X002609Y001686D02*
X000380Y001686D01*
X000380Y001528D02*
X002675Y001528D01*
X002740Y001369D02*
X000380Y001369D01*
X000380Y001211D02*
X002892Y001211D01*
X003114Y001052D02*
X000380Y001052D01*
X000380Y000577D02*
X013936Y000577D01*
X017778Y001528D02*
X017855Y001528D01*
X018233Y001528D02*
X019707Y001528D01*
X020062Y001528D02*
X020138Y001528D01*
X020493Y001528D02*
X024075Y001528D01*
X024009Y001686D02*
X020516Y001686D01*
X020138Y001686D02*
X020062Y001686D01*
X019684Y001686D02*
X018198Y001686D01*
X018213Y002003D02*
X019684Y002003D01*
X020062Y002003D02*
X020138Y002003D01*
X020516Y002003D02*
X022254Y002003D01*
X022062Y002162D02*
X020502Y002162D01*
X020138Y002162D02*
X020062Y002162D01*
X018208Y002479D02*
X018205Y002479D01*
X018208Y002637D02*
X016682Y002637D01*
X016781Y002796D02*
X018208Y002796D01*
X018298Y002954D02*
X016799Y002954D01*
X016752Y003113D02*
X017768Y003113D01*
X017855Y001369D02*
X024143Y001369D01*
X025308Y001052D02*
X028166Y001052D01*
X028166Y001211D02*
X025552Y001211D01*
X025710Y001369D02*
X028166Y001369D01*
X028166Y001528D02*
X025779Y001528D01*
X025844Y001686D02*
X028166Y001686D01*
X028166Y001845D02*
X025856Y001845D01*
X025856Y002003D02*
X028166Y002003D01*
X028166Y002162D02*
X025825Y002162D01*
X025759Y002320D02*
X028166Y002320D01*
X028166Y002479D02*
X025663Y002479D01*
X025505Y002637D02*
X028166Y002637D01*
X013294Y007075D02*
X006413Y007075D01*
X006255Y006917D02*
X012396Y006917D01*
X012237Y006758D02*
X006096Y006758D01*
X005938Y006600D02*
X012079Y006600D01*
X011920Y006441D02*
X005840Y006441D01*
X006024Y006283D02*
X006042Y006283D01*
X006226Y006283D02*
X011792Y006283D01*
X011747Y006124D02*
X006407Y006124D01*
X006042Y006124D02*
X006024Y006124D01*
X006024Y005966D02*
X006042Y005966D01*
X006042Y005872D02*
X006479Y005872D01*
X006479Y005846D01*
X006468Y005776D01*
X006446Y005710D01*
X006414Y005647D01*
X006373Y005590D01*
X006323Y005541D01*
X006267Y005500D01*
X006204Y005468D01*
X006137Y005446D01*
X006068Y005435D01*
X006042Y005435D01*
X006042Y005872D01*
X006042Y005807D02*
X006024Y005807D01*
X006473Y005807D02*
X006915Y005807D01*
X006929Y005812D02*
X006862Y005790D01*
X006799Y005758D01*
X006743Y005717D01*
X006693Y005667D01*
X006652Y005610D01*
X006620Y005548D01*
X006598Y005481D01*
X006587Y005412D01*
X006587Y005385D01*
X007024Y005385D01*
X007024Y005368D01*
X006587Y005368D01*
X006587Y005342D01*
X006598Y005272D01*
X006620Y005206D01*
X006652Y005143D01*
X006693Y005086D01*
X006743Y005037D01*
X006799Y004996D01*
X006862Y004964D01*
X006929Y004942D01*
X006998Y004931D01*
X007024Y004931D01*
X007024Y005368D01*
X007042Y005368D01*
X007042Y005385D01*
X007479Y005385D01*
X007479Y005412D01*
X007468Y005481D01*
X007446Y005548D01*
X007414Y005610D01*
X007373Y005667D01*
X007323Y005717D01*
X007267Y005758D01*
X007204Y005790D01*
X007137Y005812D01*
X007068Y005823D01*
X007042Y005823D01*
X007042Y005385D01*
X007024Y005385D01*
X007024Y005823D01*
X006998Y005823D01*
X006929Y005812D01*
X007024Y005807D02*
X007042Y005807D01*
X007151Y005807D02*
X011747Y005807D01*
X011747Y005649D02*
X007386Y005649D01*
X007042Y005649D02*
X007024Y005649D01*
X006680Y005649D02*
X006415Y005649D01*
X006042Y005649D02*
X006024Y005649D01*
X006024Y005490D02*
X006042Y005490D01*
X006248Y005490D02*
X006601Y005490D01*
X007024Y005490D02*
X007042Y005490D01*
X007042Y005368D02*
X007479Y005368D01*
X007479Y005342D01*
X007468Y005272D01*
X007446Y005206D01*
X007414Y005143D01*
X007373Y005086D01*
X007323Y005037D01*
X007267Y004996D01*
X007204Y004964D01*
X007137Y004942D01*
X007068Y004931D01*
X007042Y004931D01*
X007042Y005368D01*
X007042Y005332D02*
X007024Y005332D01*
X006589Y005332D02*
X005840Y005332D01*
X006028Y005173D02*
X006046Y005173D01*
X006378Y005173D02*
X006637Y005173D01*
X007024Y005173D02*
X007042Y005173D01*
X007042Y005015D02*
X007024Y005015D01*
X006773Y005015D02*
X006463Y005015D01*
X006046Y005015D02*
X006028Y005015D01*
X005360Y005015D02*
X000380Y005015D01*
X000380Y005173D02*
X005360Y005173D01*
X005360Y005332D02*
X000380Y005332D01*
X000380Y005490D02*
X003235Y005490D01*
X003348Y005443D02*
X003006Y005585D01*
X002745Y005846D01*
X002603Y006188D01*
X002603Y006558D01*
X002745Y006899D01*
X003006Y007161D01*
X003348Y007303D01*
X003718Y007303D01*
X004060Y007161D01*
X004321Y006899D01*
X004463Y006558D01*
X004463Y006188D01*
X004321Y005846D01*
X004060Y005585D01*
X003718Y005443D01*
X003348Y005443D01*
X003831Y005490D02*
X005360Y005490D01*
X005360Y005649D02*
X004124Y005649D01*
X004282Y005807D02*
X005360Y005807D01*
X005360Y005966D02*
X004371Y005966D01*
X004436Y006124D02*
X005360Y006124D01*
X005360Y006283D02*
X004463Y006283D01*
X004463Y006441D02*
X005360Y006441D01*
X005360Y006600D02*
X004445Y006600D01*
X004380Y006758D02*
X005418Y006758D01*
X005576Y006917D02*
X004304Y006917D01*
X004145Y007075D02*
X005735Y007075D01*
X005893Y007234D02*
X003884Y007234D01*
X003182Y007234D02*
X000380Y007234D01*
X000380Y007392D02*
X006052Y007392D01*
X006210Y007551D02*
X000380Y007551D01*
X000380Y007075D02*
X002921Y007075D01*
X002762Y006917D02*
X000380Y006917D01*
X000380Y006758D02*
X002686Y006758D01*
X002621Y006600D02*
X000380Y006600D01*
X000380Y006441D02*
X002603Y006441D01*
X002603Y006283D02*
X000380Y006283D01*
X000380Y006124D02*
X002630Y006124D01*
X002696Y005966D02*
X000380Y005966D01*
X000380Y005807D02*
X002784Y005807D01*
X002943Y005649D02*
X000380Y005649D01*
X000380Y004856D02*
X005360Y004856D01*
X005360Y004698D02*
X000380Y004698D01*
X000380Y004539D02*
X005360Y004539D01*
X005360Y004381D02*
X000380Y004381D01*
X000380Y004222D02*
X005360Y004222D01*
X005360Y004064D02*
X000380Y004064D01*
X000380Y003905D02*
X005360Y003905D01*
X005360Y003747D02*
X000380Y003747D01*
X000380Y003588D02*
X005360Y003588D01*
X005360Y003430D02*
X000380Y003430D01*
X000380Y003271D02*
X005360Y003271D01*
X005360Y003113D02*
X000380Y003113D01*
X006298Y004222D02*
X006390Y004222D01*
X007293Y005015D02*
X011747Y005015D01*
X011747Y005173D02*
X007430Y005173D01*
X007477Y005332D02*
X011747Y005332D01*
X011747Y005490D02*
X007465Y005490D01*
X006471Y005966D02*
X011747Y005966D01*
X013321Y007234D02*
X006572Y007234D01*
D17*
X012187Y006086D02*
X012659Y006558D01*
X013817Y006558D01*
X013927Y006668D01*
X015659Y006668D02*
X016399Y005928D01*
X016399Y004920D01*
X015982Y005337D01*
X013840Y005337D01*
X013525Y005023D02*
X013525Y004408D01*
X017809Y005582D02*
X017809Y006656D01*
X017817Y005889D02*
X016439Y005889D01*
X012187Y006086D02*
X012187Y002621D01*
X011084Y001519D01*
X010769Y001519D01*
D18*
X017777Y003550D02*
X017939Y003389D01*
X018486Y003389D01*
X018624Y003251D01*
X018624Y002503D01*
X013840Y005337D02*
X013525Y005023D01*
X016399Y005928D02*
X016439Y005889D01*
X017777Y005849D02*
X017777Y005550D01*
X017809Y005582D01*
X017777Y005849D02*
X017817Y005889D01*
D19*
X018872Y006074D02*
X019100Y006101D01*
X017100Y006601D02*
X017061Y006656D01*
X020100Y002680D02*
X020100Y002601D01*
X019600Y002601D02*
X019372Y002503D01*
X017817Y002168D02*
X017600Y002101D01*
X017100Y002101D01*
X017128Y002109D01*
X015754Y000841D02*
X015635Y000814D01*
X015159Y000849D01*
X014332Y000849D02*
X014100Y000837D01*
X012757Y001558D02*
X012600Y001601D01*
D20*
X017226Y001243D02*
X017639Y001282D01*
X017817Y001341D01*
X020100Y001243D02*
X020100Y001853D01*
X020100Y002601D02*
X019600Y002601D01*
D21*
X020100Y001243D03*
X017226Y001243D03*
D22*
X015923Y001184D03*
D23*
X013600Y001601D02*
X013506Y001558D01*
X013600Y001601D02*
X013600Y002601D01*
X013525Y002408D01*
X015600Y002101D02*
X016600Y002101D01*
X016380Y002109D01*
D24*
X015600Y002101D03*
M02*
