G75*
%MOIN*%
%OFA0B0*%
%FSLAX24Y24*%
%IPPOS*%
%LPD*%
%AMOC8*
5,1,8,0,0,1.08239X$1,22.5*
%
%ADD10C,0.0531*%
%ADD11C,0.0480*%
%ADD12C,0.0860*%
%ADD13C,0.0160*%
%ADD14C,0.0100*%
%ADD15R,0.0396X0.0396*%
%ADD16C,0.0400*%
%ADD17C,0.0320*%
%ADD18C,0.0240*%
%ADD19C,0.0080*%
%ADD20C,0.0396*%
D10*
X007049Y002389D03*
X006033Y002893D03*
X007049Y003404D03*
X006033Y003885D03*
X007041Y004385D03*
X006037Y004885D03*
X007033Y005377D03*
X006033Y005881D03*
X021411Y005885D03*
X022427Y005381D03*
X021411Y004869D03*
X022427Y004389D03*
X021419Y003889D03*
X022423Y003389D03*
X021427Y002897D03*
X022427Y002393D03*
D11*
X017777Y003550D03*
X016399Y002920D03*
X013525Y002408D03*
X013525Y004408D03*
X016399Y004920D03*
X017777Y005550D03*
D12*
X010769Y003881D03*
X008880Y002700D03*
X010769Y001519D03*
D13*
X006061Y003904D02*
X006033Y003885D01*
X006061Y003904D02*
X005600Y004101D01*
X005572Y006334D01*
X005612Y006601D01*
X018600Y006601D01*
D14*
X000415Y007725D02*
X000415Y000351D01*
X007511Y000351D01*
X007492Y000370D01*
X007492Y000370D01*
X006803Y001059D01*
X006759Y001166D01*
X006759Y002119D01*
X006713Y002164D01*
X006653Y002310D01*
X006653Y002467D01*
X006713Y002613D01*
X006743Y002643D01*
X006343Y002643D01*
X006257Y002557D01*
X006112Y002497D01*
X005954Y002497D01*
X005809Y002557D01*
X005698Y002668D01*
X005637Y002814D01*
X005637Y002971D01*
X005698Y003117D01*
X005809Y003228D01*
X005954Y003288D01*
X006112Y003288D01*
X006257Y003228D01*
X006343Y003143D01*
X006751Y003143D01*
X006713Y003180D01*
X006653Y003326D01*
X006653Y003483D01*
X006713Y003629D01*
X006825Y003740D01*
X006970Y003800D01*
X007128Y003800D01*
X007273Y003740D01*
X007315Y003698D01*
X007578Y003698D01*
X007888Y004009D01*
X007995Y004053D01*
X008444Y004053D01*
X009345Y004953D01*
X009452Y004998D01*
X011063Y004998D01*
X011170Y004953D01*
X011251Y004872D01*
X011251Y004872D01*
X011362Y004761D01*
X011496Y004761D01*
X011603Y004717D01*
X011684Y004636D01*
X011684Y004636D01*
X012480Y003840D01*
X017544Y003840D01*
X017568Y003864D01*
X017704Y003920D01*
X017851Y003920D01*
X017987Y003864D01*
X018091Y003760D01*
X018124Y003679D01*
X021078Y003679D01*
X021023Y003810D01*
X021023Y003924D01*
X020982Y003965D01*
X020933Y004002D01*
X020930Y004016D01*
X018555Y006391D01*
X005793Y006391D01*
X005783Y006319D01*
X005784Y006214D01*
X005815Y006236D01*
X005873Y006266D01*
X005936Y006286D01*
X005994Y006296D01*
X005994Y005919D01*
X006072Y005919D01*
X006448Y005919D01*
X006439Y005978D01*
X006418Y006040D01*
X006389Y006099D01*
X006350Y006152D01*
X006304Y006198D01*
X006251Y006236D01*
X006193Y006266D01*
X006130Y006286D01*
X006072Y006296D01*
X006072Y005919D01*
X006072Y005842D01*
X006448Y005842D01*
X006439Y005783D01*
X006418Y005721D01*
X006389Y005663D01*
X006350Y005610D01*
X006304Y005564D01*
X006251Y005525D01*
X006193Y005495D01*
X006130Y005475D01*
X006072Y005466D01*
X006072Y005842D01*
X005994Y005842D01*
X005994Y005466D01*
X005936Y005475D01*
X005873Y005495D01*
X005815Y005525D01*
X005792Y005542D01*
X005796Y005224D01*
X005819Y005240D01*
X005877Y005270D01*
X005940Y005290D01*
X005998Y005300D01*
X005998Y004923D01*
X006076Y004923D01*
X006452Y004923D01*
X006443Y004982D01*
X006422Y005044D01*
X006393Y005103D01*
X006354Y005156D01*
X006308Y005202D01*
X006255Y005240D01*
X006197Y005270D01*
X006134Y005290D01*
X006076Y005300D01*
X006076Y004923D01*
X006076Y004846D01*
X006452Y004846D01*
X006443Y004787D01*
X006422Y004725D01*
X006393Y004667D01*
X006354Y004614D01*
X006308Y004568D01*
X006255Y004529D01*
X006197Y004499D01*
X006134Y004479D01*
X006076Y004470D01*
X006076Y004846D01*
X005998Y004846D01*
X005998Y004470D01*
X005940Y004479D01*
X005877Y004499D01*
X005819Y004529D01*
X005805Y004540D01*
X005808Y004241D01*
X005833Y004230D01*
X005954Y004280D01*
X006112Y004280D01*
X006257Y004220D01*
X006369Y004109D01*
X006429Y003963D01*
X006429Y003806D01*
X006369Y003661D01*
X006257Y003549D01*
X006112Y003489D01*
X005954Y003489D01*
X005809Y003549D01*
X005698Y003661D01*
X005637Y003806D01*
X005637Y003857D01*
X005558Y003891D01*
X005516Y003890D01*
X005481Y003924D01*
X005437Y003942D01*
X005422Y003982D01*
X005391Y004012D01*
X005391Y004059D01*
X005373Y004104D01*
X005389Y004143D01*
X005363Y006263D01*
X005352Y006278D01*
X005362Y006348D01*
X005361Y006418D01*
X005375Y006431D01*
X005402Y006617D01*
X005402Y006688D01*
X005414Y006701D01*
X004371Y006701D01*
X004330Y006799D02*
X005513Y006799D01*
X005525Y006811D02*
X005474Y006761D01*
X005417Y006718D01*
X005414Y006701D01*
X005525Y006811D02*
X005542Y006811D01*
X005556Y006822D01*
X005627Y006811D01*
X018687Y006811D01*
X018810Y006688D01*
X018810Y006646D01*
X021218Y004238D01*
X021221Y004235D01*
X021340Y004284D01*
X021498Y004284D01*
X021643Y004224D01*
X021754Y004113D01*
X021815Y003967D01*
X021815Y003810D01*
X021760Y003679D01*
X022153Y003679D01*
X022199Y003724D01*
X022344Y003784D01*
X022502Y003784D01*
X022647Y003724D01*
X022758Y003613D01*
X022819Y003467D01*
X022819Y003310D01*
X022758Y003164D01*
X022647Y003053D01*
X022502Y002993D01*
X022344Y002993D01*
X022199Y003053D01*
X022153Y003099D01*
X021771Y003099D01*
X021823Y002975D01*
X021823Y002818D01*
X021762Y002672D01*
X021729Y002639D01*
X021729Y001973D01*
X022133Y001973D01*
X022133Y002071D02*
X021729Y002071D01*
X021729Y001973D02*
X021684Y001866D01*
X021603Y001785D01*
X021367Y001548D01*
X021260Y001504D01*
X019019Y001504D01*
X018912Y001548D01*
X018831Y001630D01*
X018287Y002173D01*
X017798Y002173D01*
X017692Y002218D01*
X017610Y002299D01*
X017478Y002431D01*
X016170Y002431D01*
X015922Y002182D01*
X015928Y002167D01*
X015928Y002036D01*
X015878Y001915D01*
X015786Y001823D01*
X015665Y001773D01*
X015535Y001773D01*
X015414Y001823D01*
X015322Y001915D01*
X015272Y002036D01*
X015272Y002167D01*
X015322Y002287D01*
X015414Y002379D01*
X015535Y002429D01*
X015665Y002429D01*
X015681Y002423D01*
X015904Y002646D01*
X013811Y002646D01*
X013839Y002618D01*
X013895Y002482D01*
X013895Y002335D01*
X013839Y002199D01*
X013815Y002175D01*
X013815Y001009D01*
X014000Y000824D01*
X021633Y000824D01*
X022133Y001324D01*
X022133Y002127D01*
X022091Y002168D01*
X022031Y002314D01*
X022031Y002471D01*
X022091Y002617D01*
X022203Y002728D01*
X022348Y002788D01*
X022505Y002788D01*
X022651Y002728D01*
X022762Y002617D01*
X022823Y002471D01*
X022823Y002314D01*
X022762Y002168D01*
X022713Y002119D01*
X022713Y001146D01*
X022669Y001039D01*
X022587Y000958D01*
X021981Y000351D01*
X028171Y000351D01*
X028171Y000456D01*
X028131Y000456D01*
X028131Y007725D01*
X000415Y007725D01*
X000415Y007686D02*
X028131Y007686D01*
X028131Y007587D02*
X000415Y007587D01*
X000415Y007489D02*
X028131Y007489D01*
X028131Y007390D02*
X000415Y007390D01*
X000415Y007292D02*
X028131Y007292D01*
X028131Y007193D02*
X025335Y007193D01*
X025436Y007151D02*
X025106Y007288D01*
X024748Y007288D01*
X024417Y007151D01*
X024164Y006898D01*
X004280Y006898D01*
X004296Y006882D02*
X004043Y007136D01*
X003712Y007273D01*
X003354Y007273D01*
X003023Y007136D01*
X002770Y006882D01*
X002633Y006552D01*
X002633Y006194D01*
X002770Y005863D01*
X003023Y005610D01*
X003354Y005473D01*
X003712Y005473D01*
X004043Y005610D01*
X004296Y005863D01*
X004433Y006194D01*
X004433Y006552D01*
X004296Y006882D01*
X004182Y006996D02*
X024262Y006996D01*
X024164Y006898D02*
X024027Y006568D01*
X024027Y006210D01*
X024164Y005879D01*
X024417Y005626D01*
X024748Y005489D01*
X025106Y005489D01*
X025436Y005626D01*
X025689Y005879D01*
X025826Y006210D01*
X025826Y006568D01*
X025689Y006898D01*
X025436Y007151D01*
X025493Y007095D02*
X028131Y007095D01*
X028131Y006996D02*
X025591Y006996D01*
X025690Y006898D02*
X028131Y006898D01*
X028131Y006799D02*
X025730Y006799D01*
X025771Y006701D02*
X028131Y006701D01*
X028131Y006602D02*
X025812Y006602D01*
X025826Y006504D02*
X028131Y006504D01*
X028131Y006405D02*
X025826Y006405D01*
X025826Y006307D02*
X028131Y006307D01*
X028131Y006208D02*
X025826Y006208D01*
X025785Y006110D02*
X028131Y006110D01*
X028131Y006011D02*
X025744Y006011D01*
X025703Y005913D02*
X028131Y005913D01*
X028131Y005814D02*
X025625Y005814D01*
X025526Y005716D02*
X028131Y005716D01*
X028131Y005617D02*
X025415Y005617D01*
X025177Y005519D02*
X028131Y005519D01*
X028131Y005420D02*
X022841Y005420D01*
X022842Y005419D02*
X022832Y005478D01*
X022812Y005540D01*
X022782Y005599D01*
X022744Y005652D01*
X022698Y005698D01*
X022645Y005736D01*
X022586Y005766D01*
X022524Y005786D01*
X022465Y005796D01*
X022465Y005419D01*
X022388Y005419D01*
X022388Y005342D01*
X022465Y005342D01*
X022465Y004966D01*
X022524Y004975D01*
X022586Y004995D01*
X022645Y005025D01*
X022698Y005064D01*
X022744Y005110D01*
X022782Y005163D01*
X022812Y005221D01*
X022832Y005283D01*
X022842Y005342D01*
X022465Y005342D01*
X022465Y005419D01*
X022842Y005419D01*
X022838Y005322D02*
X028131Y005322D01*
X028131Y005223D02*
X022813Y005223D01*
X022465Y005223D02*
X022388Y005223D01*
X022388Y005322D02*
X022465Y005322D01*
X022388Y005342D02*
X022388Y004966D01*
X022329Y004975D01*
X022267Y004995D01*
X022209Y005025D01*
X022156Y005064D01*
X022110Y005110D01*
X022071Y005163D01*
X022041Y005221D01*
X022021Y005283D01*
X022012Y005342D01*
X022388Y005342D01*
X022388Y005419D02*
X022012Y005419D01*
X022021Y005478D01*
X022041Y005540D01*
X022071Y005599D01*
X022110Y005652D01*
X022156Y005698D01*
X022209Y005736D01*
X022267Y005766D01*
X022329Y005786D01*
X022388Y005796D01*
X022388Y005419D01*
X022388Y005420D02*
X022465Y005420D01*
X022465Y005519D02*
X022388Y005519D01*
X022388Y005617D02*
X022465Y005617D01*
X022769Y005617D02*
X024438Y005617D01*
X024676Y005519D02*
X022819Y005519D01*
X022085Y005617D02*
X021731Y005617D01*
X021728Y005614D02*
X021767Y005667D01*
X021796Y005725D01*
X021817Y005787D01*
X021826Y005846D01*
X021450Y005846D01*
X021450Y005923D01*
X021826Y005923D01*
X021817Y005982D01*
X021796Y006044D01*
X021767Y006103D01*
X021728Y006156D01*
X021682Y006202D01*
X021629Y006240D01*
X021571Y006270D01*
X021508Y006290D01*
X021450Y006300D01*
X021450Y005923D01*
X021372Y005923D01*
X021372Y005846D01*
X020996Y005846D01*
X021006Y005787D01*
X021026Y005725D01*
X021055Y005667D01*
X021094Y005614D01*
X021140Y005568D01*
X021193Y005529D01*
X021251Y005499D01*
X021314Y005479D01*
X021372Y005470D01*
X021372Y005846D01*
X021450Y005846D01*
X021450Y005470D01*
X021508Y005479D01*
X021571Y005499D01*
X021629Y005529D01*
X021682Y005568D01*
X021728Y005614D01*
X021609Y005519D02*
X022034Y005519D01*
X022012Y005420D02*
X020036Y005420D01*
X020134Y005322D02*
X022015Y005322D01*
X022041Y005223D02*
X021631Y005223D01*
X021629Y005225D02*
X021571Y005254D01*
X021508Y005274D01*
X021450Y005284D01*
X021450Y004908D01*
X021372Y004908D01*
X021372Y005284D01*
X021314Y005274D01*
X021251Y005254D01*
X021193Y005225D01*
X021140Y005186D01*
X021094Y005140D01*
X021055Y005087D01*
X021026Y005029D01*
X021006Y004966D01*
X020996Y004908D01*
X021372Y004908D01*
X021372Y004830D01*
X020996Y004830D01*
X021006Y004772D01*
X021026Y004709D01*
X021055Y004651D01*
X021094Y004598D01*
X021140Y004552D01*
X021193Y004513D01*
X021251Y004484D01*
X021314Y004463D01*
X021372Y004454D01*
X021372Y004830D01*
X021450Y004830D01*
X021450Y004908D01*
X021826Y004908D01*
X021817Y004966D01*
X021796Y005029D01*
X021767Y005087D01*
X021728Y005140D01*
X021682Y005186D01*
X021629Y005225D01*
X021450Y005223D02*
X021372Y005223D01*
X021191Y005223D02*
X020233Y005223D01*
X019723Y005223D02*
X017955Y005223D01*
X017987Y005236D02*
X017851Y005180D01*
X017704Y005180D01*
X017568Y005236D01*
X017463Y005340D01*
X017407Y005476D01*
X017407Y005624D01*
X017463Y005760D01*
X017568Y005864D01*
X017704Y005920D01*
X017851Y005920D01*
X017987Y005864D01*
X018091Y005760D01*
X018147Y005624D01*
X018147Y005476D01*
X018091Y005340D01*
X017987Y005236D01*
X018072Y005322D02*
X019625Y005322D01*
X019526Y005420D02*
X018124Y005420D01*
X018147Y005519D02*
X019428Y005519D01*
X019329Y005617D02*
X018147Y005617D01*
X018109Y005716D02*
X019231Y005716D01*
X019132Y005814D02*
X018036Y005814D01*
X017868Y005913D02*
X019034Y005913D01*
X018935Y006011D02*
X006428Y006011D01*
X006381Y006110D02*
X018837Y006110D01*
X018738Y006208D02*
X006290Y006208D01*
X006072Y006208D02*
X005994Y006208D01*
X005783Y006307D02*
X018640Y006307D01*
X019051Y006405D02*
X024027Y006405D01*
X024027Y006307D02*
X019149Y006307D01*
X019248Y006208D02*
X021149Y006208D01*
X021140Y006202D02*
X021094Y006156D01*
X021055Y006103D01*
X021026Y006044D01*
X021006Y005982D01*
X020996Y005923D01*
X021372Y005923D01*
X021372Y006300D01*
X021314Y006290D01*
X021251Y006270D01*
X021193Y006240D01*
X021140Y006202D01*
X021372Y006208D02*
X021450Y006208D01*
X021673Y006208D02*
X024028Y006208D01*
X024069Y006110D02*
X021761Y006110D01*
X021807Y006011D02*
X024109Y006011D01*
X024150Y005913D02*
X021450Y005913D01*
X021372Y005913D02*
X019543Y005913D01*
X019445Y006011D02*
X021015Y006011D01*
X021061Y006110D02*
X019346Y006110D01*
X019642Y005814D02*
X021001Y005814D01*
X021031Y005716D02*
X019740Y005716D01*
X019839Y005617D02*
X021091Y005617D01*
X021213Y005519D02*
X019937Y005519D01*
X019822Y005125D02*
X016715Y005125D01*
X016713Y005130D02*
X016609Y005234D01*
X016473Y005290D01*
X016326Y005290D01*
X016190Y005234D01*
X016086Y005130D01*
X016029Y004994D01*
X016029Y004847D01*
X016086Y004711D01*
X016190Y004606D01*
X016326Y004550D01*
X016473Y004550D01*
X016609Y004606D01*
X016713Y004711D01*
X016769Y004847D01*
X016769Y004994D01*
X016713Y005130D01*
X016756Y005026D02*
X019920Y005026D01*
X020019Y004928D02*
X016769Y004928D01*
X016762Y004829D02*
X020117Y004829D01*
X020216Y004731D02*
X016721Y004731D01*
X016635Y004632D02*
X020314Y004632D01*
X020413Y004534D02*
X013874Y004534D01*
X013895Y004482D02*
X013839Y004618D01*
X013735Y004722D01*
X013599Y004778D01*
X013452Y004778D01*
X013316Y004722D01*
X013212Y004618D01*
X013155Y004482D01*
X013155Y004335D01*
X013212Y004199D01*
X013316Y004095D01*
X013452Y004038D01*
X013599Y004038D01*
X013735Y004095D01*
X013839Y004199D01*
X013895Y004335D01*
X013895Y004482D01*
X013895Y004435D02*
X020511Y004435D01*
X020610Y004337D02*
X013895Y004337D01*
X013855Y004238D02*
X020708Y004238D01*
X020807Y004140D02*
X013780Y004140D01*
X013606Y004041D02*
X020905Y004041D01*
X021004Y003943D02*
X012377Y003943D01*
X012279Y004041D02*
X013445Y004041D01*
X013271Y004140D02*
X012180Y004140D01*
X012082Y004238D02*
X013195Y004238D01*
X013155Y004337D02*
X011983Y004337D01*
X011885Y004435D02*
X013155Y004435D01*
X013177Y004534D02*
X011786Y004534D01*
X011688Y004632D02*
X013226Y004632D01*
X013337Y004731D02*
X011570Y004731D01*
X011294Y004829D02*
X016036Y004829D01*
X016029Y004928D02*
X011195Y004928D01*
X010545Y004418D02*
X009630Y004418D01*
X008810Y003598D01*
X008729Y003517D01*
X008622Y003473D01*
X008173Y003473D01*
X007944Y003244D01*
X007863Y003162D01*
X007816Y003143D01*
X007827Y003138D01*
X008060Y002906D01*
X008141Y002825D01*
X008185Y002718D01*
X008185Y001954D01*
X008291Y001848D01*
X009271Y001848D01*
X009653Y002229D01*
X009653Y002718D01*
X009697Y002825D01*
X009972Y003100D01*
X010054Y003182D01*
X010160Y003226D01*
X016182Y003226D01*
X016190Y003234D01*
X016253Y003260D01*
X012302Y003260D01*
X012196Y003304D01*
X012114Y003386D01*
X012114Y003386D01*
X011318Y004181D01*
X011267Y004181D01*
X011307Y004103D01*
X011335Y004017D01*
X011349Y003931D01*
X010819Y003931D01*
X010819Y003831D01*
X010819Y003301D01*
X010905Y003315D01*
X010992Y003343D01*
X011073Y003385D01*
X011147Y003438D01*
X011212Y003503D01*
X011265Y003577D01*
X011307Y003658D01*
X011335Y003745D01*
X011349Y003831D01*
X010819Y003831D01*
X010719Y003831D01*
X010190Y003831D01*
X010204Y003745D01*
X010232Y003658D01*
X010273Y003577D01*
X010327Y003503D01*
X010391Y003438D01*
X010465Y003385D01*
X010547Y003343D01*
X010633Y003315D01*
X010719Y003301D01*
X010719Y003831D01*
X010719Y003931D01*
X010190Y003931D01*
X010204Y004017D01*
X010232Y004103D01*
X010273Y004185D01*
X010327Y004259D01*
X010391Y004323D01*
X010465Y004377D01*
X010545Y004418D01*
X010410Y004337D02*
X009549Y004337D01*
X009450Y004238D02*
X010312Y004238D01*
X010250Y004140D02*
X009352Y004140D01*
X009253Y004041D02*
X010212Y004041D01*
X010192Y003943D02*
X009155Y003943D01*
X009056Y003844D02*
X010719Y003844D01*
X010819Y003844D02*
X011656Y003844D01*
X011557Y003943D02*
X011347Y003943D01*
X011327Y004041D02*
X011459Y004041D01*
X011360Y004140D02*
X011288Y004140D01*
X012476Y003844D02*
X017548Y003844D01*
X018006Y003844D02*
X021023Y003844D01*
X021100Y004101D02*
X021364Y003904D01*
X021419Y003889D01*
X021815Y003844D02*
X028131Y003844D01*
X028131Y003943D02*
X021815Y003943D01*
X021784Y004041D02*
X022231Y004041D01*
X022203Y004053D02*
X022348Y003993D01*
X022505Y003993D01*
X022651Y004053D01*
X022762Y004164D01*
X022823Y004310D01*
X022823Y004467D01*
X022762Y004613D01*
X022651Y004724D01*
X022505Y004784D01*
X022348Y004784D01*
X022203Y004724D01*
X022091Y004613D01*
X022031Y004467D01*
X022031Y004310D01*
X022091Y004164D01*
X022203Y004053D01*
X022116Y004140D02*
X021727Y004140D01*
X021609Y004238D02*
X022061Y004238D01*
X022031Y004337D02*
X021119Y004337D01*
X021021Y004435D02*
X022031Y004435D01*
X022059Y004534D02*
X021657Y004534D01*
X021682Y004552D02*
X021728Y004598D01*
X021767Y004651D01*
X021796Y004709D01*
X021817Y004772D01*
X021826Y004830D01*
X021450Y004830D01*
X021450Y004454D01*
X021508Y004463D01*
X021571Y004484D01*
X021629Y004513D01*
X021682Y004552D01*
X021753Y004632D02*
X022111Y004632D01*
X022219Y004731D02*
X021803Y004731D01*
X021826Y004829D02*
X028131Y004829D01*
X028131Y004731D02*
X022635Y004731D01*
X022743Y004632D02*
X028131Y004632D01*
X028131Y004534D02*
X022795Y004534D01*
X022823Y004435D02*
X028131Y004435D01*
X028131Y004337D02*
X022823Y004337D01*
X022793Y004238D02*
X028131Y004238D01*
X028131Y004140D02*
X022738Y004140D01*
X022622Y004041D02*
X028131Y004041D01*
X028131Y003746D02*
X022595Y003746D01*
X022724Y003647D02*
X028131Y003647D01*
X028131Y003549D02*
X022785Y003549D01*
X022819Y003450D02*
X028131Y003450D01*
X028131Y003352D02*
X022819Y003352D01*
X022795Y003253D02*
X028131Y003253D01*
X028131Y003155D02*
X022749Y003155D01*
X022650Y003056D02*
X028131Y003056D01*
X028131Y002958D02*
X021823Y002958D01*
X021823Y002859D02*
X028131Y002859D01*
X028131Y002761D02*
X025201Y002761D01*
X025106Y002800D02*
X024748Y002800D01*
X024417Y002663D01*
X024164Y002410D01*
X024027Y002079D01*
X024027Y001722D01*
X024164Y001391D01*
X024417Y001138D01*
X024748Y001001D01*
X025106Y001001D01*
X025436Y001138D01*
X025689Y001391D01*
X025826Y001722D01*
X025826Y002079D01*
X025689Y002410D01*
X025436Y002663D01*
X025106Y002800D01*
X024653Y002761D02*
X022572Y002761D01*
X022717Y002662D02*
X024416Y002662D01*
X024318Y002564D02*
X022784Y002564D01*
X022823Y002465D02*
X024219Y002465D01*
X024146Y002367D02*
X022823Y002367D01*
X022804Y002268D02*
X024105Y002268D01*
X024065Y002170D02*
X022763Y002170D01*
X022713Y002071D02*
X024027Y002071D01*
X024027Y001973D02*
X022713Y001973D01*
X022713Y001874D02*
X024027Y001874D01*
X024027Y001776D02*
X022713Y001776D01*
X022713Y001677D02*
X024045Y001677D01*
X024086Y001579D02*
X022713Y001579D01*
X022713Y001480D02*
X024127Y001480D01*
X024173Y001382D02*
X022713Y001382D01*
X022713Y001283D02*
X024272Y001283D01*
X024370Y001185D02*
X022713Y001185D01*
X022688Y001086D02*
X024542Y001086D01*
X025312Y001086D02*
X028131Y001086D01*
X028131Y000988D02*
X022617Y000988D01*
X022519Y000889D02*
X028131Y000889D01*
X028131Y000791D02*
X022420Y000791D01*
X022322Y000692D02*
X028131Y000692D01*
X028131Y000594D02*
X022223Y000594D01*
X022125Y000495D02*
X028131Y000495D01*
X028171Y000397D02*
X022026Y000397D01*
X021698Y000889D02*
X013935Y000889D01*
X013836Y000988D02*
X021797Y000988D01*
X021895Y001086D02*
X013815Y001086D01*
X013815Y001185D02*
X021994Y001185D01*
X022092Y001283D02*
X013815Y001283D01*
X013815Y001382D02*
X022133Y001382D01*
X022133Y001480D02*
X013815Y001480D01*
X013815Y001579D02*
X018882Y001579D01*
X018783Y001677D02*
X013815Y001677D01*
X013815Y001776D02*
X015528Y001776D01*
X015672Y001776D02*
X018685Y001776D01*
X018586Y001874D02*
X015837Y001874D01*
X015902Y001973D02*
X018488Y001973D01*
X018389Y002071D02*
X015928Y002071D01*
X015927Y002170D02*
X018291Y002170D01*
X017641Y002268D02*
X016007Y002268D01*
X016106Y002367D02*
X017542Y002367D01*
X015822Y002564D02*
X013861Y002564D01*
X013895Y002465D02*
X015724Y002465D01*
X015401Y002367D02*
X013895Y002367D01*
X013868Y002268D02*
X015314Y002268D01*
X015273Y002170D02*
X013815Y002170D01*
X013815Y002071D02*
X015272Y002071D01*
X015298Y001973D02*
X013815Y001973D01*
X013815Y001874D02*
X015363Y001874D01*
X016237Y003253D02*
X009053Y003253D01*
X009015Y003265D02*
X009102Y003237D01*
X009184Y003196D01*
X009257Y003142D01*
X009322Y003078D01*
X009376Y003004D01*
X009417Y002922D01*
X009445Y002836D01*
X009459Y002750D01*
X008930Y002750D01*
X008930Y002650D01*
X009459Y002650D01*
X009445Y002564D01*
X009417Y002477D01*
X009376Y002396D01*
X009322Y002322D01*
X009257Y002257D01*
X009184Y002204D01*
X009102Y002162D01*
X009015Y002134D01*
X008930Y002120D01*
X008930Y002650D01*
X008830Y002650D01*
X008830Y002120D01*
X008744Y002134D01*
X008657Y002162D01*
X008576Y002204D01*
X008502Y002257D01*
X008437Y002322D01*
X008383Y002396D01*
X008342Y002477D01*
X008314Y002564D01*
X008300Y002650D01*
X008830Y002650D01*
X008830Y002750D01*
X008830Y003279D01*
X008744Y003265D01*
X008657Y003237D01*
X008576Y003196D01*
X008502Y003142D01*
X008437Y003078D01*
X008383Y003004D01*
X008342Y002922D01*
X008314Y002836D01*
X008300Y002750D01*
X008830Y002750D01*
X008930Y002750D01*
X008930Y003279D01*
X009015Y003265D01*
X008930Y003253D02*
X008830Y003253D01*
X008830Y003155D02*
X008930Y003155D01*
X008930Y003056D02*
X008830Y003056D01*
X008830Y002958D02*
X008930Y002958D01*
X008930Y002859D02*
X008830Y002859D01*
X008360Y002958D02*
X008008Y002958D01*
X007909Y003056D02*
X008422Y003056D01*
X008519Y003155D02*
X007844Y003155D01*
X007953Y003253D02*
X008706Y003253D01*
X009240Y003155D02*
X010027Y003155D01*
X009928Y003056D02*
X009337Y003056D01*
X009399Y002958D02*
X009830Y002958D01*
X009731Y002859D02*
X009438Y002859D01*
X009457Y002761D02*
X009670Y002761D01*
X009653Y002662D02*
X008930Y002662D01*
X008930Y002564D02*
X008830Y002564D01*
X008830Y002662D02*
X008185Y002662D01*
X008185Y002564D02*
X008314Y002564D01*
X008348Y002465D02*
X008185Y002465D01*
X008185Y002367D02*
X008404Y002367D01*
X008830Y002367D02*
X008930Y002367D01*
X008930Y002465D02*
X008830Y002465D01*
X009355Y002367D02*
X009653Y002367D01*
X009653Y002465D02*
X009411Y002465D01*
X009445Y002564D02*
X009653Y002564D01*
X008930Y002761D02*
X008830Y002761D01*
X008302Y002761D02*
X008168Y002761D01*
X008106Y002859D02*
X008322Y002859D01*
X008052Y003352D02*
X010530Y003352D01*
X010380Y003450D02*
X008150Y003450D01*
X008761Y003549D02*
X010294Y003549D01*
X010237Y003647D02*
X008859Y003647D01*
X008958Y003746D02*
X010203Y003746D01*
X010719Y003746D02*
X010819Y003746D01*
X010819Y003647D02*
X010719Y003647D01*
X010719Y003549D02*
X010819Y003549D01*
X010819Y003450D02*
X010719Y003450D01*
X010719Y003352D02*
X010819Y003352D01*
X011009Y003352D02*
X012148Y003352D01*
X012050Y003450D02*
X011159Y003450D01*
X011245Y003549D02*
X011951Y003549D01*
X011853Y003647D02*
X011301Y003647D01*
X011335Y003746D02*
X011754Y003746D01*
X008926Y004534D02*
X007408Y004534D01*
X007437Y004463D02*
X007376Y004609D01*
X007265Y004720D01*
X007120Y004780D01*
X006962Y004780D01*
X006817Y004720D01*
X006705Y004609D01*
X006645Y004463D01*
X006645Y004306D01*
X006705Y004161D01*
X006817Y004049D01*
X006962Y003989D01*
X007120Y003989D01*
X007265Y004049D01*
X007376Y004161D01*
X007437Y004306D01*
X007437Y004463D01*
X007437Y004435D02*
X008827Y004435D01*
X008729Y004337D02*
X007437Y004337D01*
X007409Y004238D02*
X008630Y004238D01*
X008532Y004140D02*
X007356Y004140D01*
X007246Y004041D02*
X007968Y004041D01*
X007823Y003943D02*
X006429Y003943D01*
X006429Y003844D02*
X007724Y003844D01*
X007626Y003746D02*
X007259Y003746D01*
X006839Y003746D02*
X006404Y003746D01*
X006355Y003647D02*
X006732Y003647D01*
X006680Y003549D02*
X006256Y003549D01*
X005810Y003549D02*
X000415Y003549D01*
X000415Y003647D02*
X005711Y003647D01*
X005662Y003746D02*
X000415Y003746D01*
X000415Y003844D02*
X005637Y003844D01*
X005437Y003943D02*
X000415Y003943D01*
X000415Y004041D02*
X005391Y004041D01*
X005388Y004140D02*
X000415Y004140D01*
X000415Y004238D02*
X005388Y004238D01*
X005387Y004337D02*
X000415Y004337D01*
X000415Y004435D02*
X005386Y004435D01*
X005385Y004534D02*
X000415Y004534D01*
X000415Y004632D02*
X005383Y004632D01*
X005382Y004731D02*
X000415Y004731D01*
X000415Y004829D02*
X005381Y004829D01*
X005380Y004928D02*
X000415Y004928D01*
X000415Y005026D02*
X005379Y005026D01*
X005377Y005125D02*
X000415Y005125D01*
X000415Y005223D02*
X005376Y005223D01*
X005375Y005322D02*
X000415Y005322D01*
X000415Y005420D02*
X005374Y005420D01*
X005372Y005519D02*
X003822Y005519D01*
X004050Y005617D02*
X005371Y005617D01*
X005370Y005716D02*
X004148Y005716D01*
X004247Y005814D02*
X005369Y005814D01*
X005368Y005913D02*
X004316Y005913D01*
X004357Y006011D02*
X005366Y006011D01*
X005365Y006110D02*
X004398Y006110D01*
X004433Y006208D02*
X005364Y006208D01*
X005356Y006307D02*
X004433Y006307D01*
X004433Y006405D02*
X005362Y006405D01*
X005385Y006504D02*
X004433Y006504D01*
X004412Y006602D02*
X005400Y006602D01*
X005994Y006110D02*
X006072Y006110D01*
X006072Y006011D02*
X005994Y006011D01*
X006072Y005913D02*
X017686Y005913D01*
X017518Y005814D02*
X006443Y005814D01*
X006416Y005716D02*
X006792Y005716D01*
X006815Y005732D02*
X006762Y005694D01*
X006716Y005648D01*
X006677Y005595D01*
X006648Y005536D01*
X006628Y005474D01*
X006618Y005415D01*
X006994Y005415D01*
X006994Y005338D01*
X006618Y005338D01*
X006628Y005279D01*
X006648Y005217D01*
X006677Y005159D01*
X006716Y005106D01*
X006762Y005060D01*
X006815Y005021D01*
X006873Y004992D01*
X006936Y004971D01*
X006994Y004962D01*
X006994Y005338D01*
X007072Y005338D01*
X007072Y005415D01*
X007448Y005415D01*
X007439Y005474D01*
X007418Y005536D01*
X007389Y005595D01*
X007350Y005648D01*
X007304Y005694D01*
X007251Y005732D01*
X007193Y005762D01*
X007130Y005782D01*
X007072Y005792D01*
X007072Y005415D01*
X006994Y005415D01*
X006994Y005792D01*
X006936Y005782D01*
X006873Y005762D01*
X006815Y005732D01*
X006994Y005716D02*
X007072Y005716D01*
X007274Y005716D02*
X017445Y005716D01*
X017407Y005617D02*
X007372Y005617D01*
X007424Y005519D02*
X017407Y005519D01*
X017430Y005420D02*
X007447Y005420D01*
X007448Y005338D02*
X007072Y005338D01*
X007072Y004962D01*
X007130Y004971D01*
X007193Y004992D01*
X007251Y005021D01*
X007304Y005060D01*
X007350Y005106D01*
X007389Y005159D01*
X007418Y005217D01*
X007439Y005279D01*
X007448Y005338D01*
X007445Y005322D02*
X017482Y005322D01*
X017599Y005223D02*
X016619Y005223D01*
X016179Y005223D02*
X007420Y005223D01*
X007072Y005223D02*
X006994Y005223D01*
X006994Y005322D02*
X007072Y005322D01*
X007072Y005420D02*
X006994Y005420D01*
X006994Y005519D02*
X007072Y005519D01*
X007072Y005617D02*
X006994Y005617D01*
X006694Y005617D02*
X006356Y005617D01*
X006238Y005519D02*
X006642Y005519D01*
X006619Y005420D02*
X005794Y005420D01*
X005795Y005322D02*
X006621Y005322D01*
X006646Y005223D02*
X006278Y005223D01*
X006076Y005223D02*
X005998Y005223D01*
X005998Y005125D02*
X006076Y005125D01*
X006076Y005026D02*
X005998Y005026D01*
X005998Y004928D02*
X006076Y004928D01*
X006076Y004829D02*
X005998Y004829D01*
X005998Y004731D02*
X006076Y004731D01*
X006424Y004731D02*
X006842Y004731D01*
X006449Y004829D02*
X009221Y004829D01*
X009123Y004731D02*
X007240Y004731D01*
X007353Y004632D02*
X009024Y004632D01*
X009320Y004928D02*
X006451Y004928D01*
X006428Y005026D02*
X006808Y005026D01*
X006702Y005125D02*
X006376Y005125D01*
X006994Y005125D02*
X007072Y005125D01*
X007072Y005026D02*
X006994Y005026D01*
X007258Y005026D02*
X016043Y005026D01*
X016083Y005125D02*
X007364Y005125D01*
X006072Y005519D02*
X005994Y005519D01*
X005994Y005617D02*
X006072Y005617D01*
X005828Y005519D02*
X005793Y005519D01*
X005994Y005716D02*
X006072Y005716D01*
X006072Y005814D02*
X005994Y005814D01*
X003244Y005519D02*
X000415Y005519D01*
X000415Y005617D02*
X003016Y005617D01*
X002918Y005716D02*
X000415Y005716D01*
X000415Y005814D02*
X002819Y005814D01*
X002750Y005913D02*
X000415Y005913D01*
X000415Y006011D02*
X002709Y006011D01*
X002668Y006110D02*
X000415Y006110D01*
X000415Y006208D02*
X002633Y006208D01*
X002633Y006307D02*
X000415Y006307D01*
X000415Y006405D02*
X002633Y006405D01*
X002633Y006504D02*
X000415Y006504D01*
X000415Y006602D02*
X002654Y006602D01*
X002695Y006701D02*
X000415Y006701D01*
X000415Y006799D02*
X002736Y006799D01*
X002786Y006898D02*
X000415Y006898D01*
X000415Y006996D02*
X002884Y006996D01*
X002983Y007095D02*
X000415Y007095D01*
X000415Y007193D02*
X003163Y007193D01*
X003903Y007193D02*
X024519Y007193D01*
X024361Y007095D02*
X004083Y007095D01*
X005998Y004632D02*
X006076Y004632D01*
X006076Y004534D02*
X005998Y004534D01*
X005813Y004534D02*
X005805Y004534D01*
X005806Y004435D02*
X006645Y004435D01*
X006645Y004337D02*
X005807Y004337D01*
X005814Y004238D02*
X005852Y004238D01*
X006214Y004238D02*
X006673Y004238D01*
X006726Y004140D02*
X006338Y004140D01*
X006397Y004041D02*
X006836Y004041D01*
X006674Y004534D02*
X006261Y004534D01*
X006367Y004632D02*
X006729Y004632D01*
X006653Y003450D02*
X000415Y003450D01*
X000415Y003352D02*
X006653Y003352D01*
X006683Y003253D02*
X006196Y003253D01*
X006331Y003155D02*
X006739Y003155D01*
X005870Y003253D02*
X000415Y003253D01*
X000415Y003155D02*
X005736Y003155D01*
X005673Y003056D02*
X000415Y003056D01*
X000415Y002958D02*
X005637Y002958D01*
X005637Y002859D02*
X000415Y002859D01*
X000415Y002761D02*
X003297Y002761D01*
X003354Y002784D02*
X003023Y002647D01*
X002770Y002394D01*
X002633Y002064D01*
X002633Y001706D01*
X002770Y001375D01*
X003023Y001122D01*
X003354Y000985D01*
X003712Y000985D01*
X004043Y001122D01*
X004296Y001375D01*
X004433Y001706D01*
X004433Y002064D01*
X004296Y002394D01*
X004043Y002647D01*
X003712Y002784D01*
X003354Y002784D01*
X003059Y002662D02*
X000415Y002662D01*
X000415Y002564D02*
X002940Y002564D01*
X002841Y002465D02*
X000415Y002465D01*
X000415Y002367D02*
X002759Y002367D01*
X002718Y002268D02*
X000415Y002268D01*
X000415Y002170D02*
X002677Y002170D01*
X002637Y002071D02*
X000415Y002071D01*
X000415Y001973D02*
X002633Y001973D01*
X002633Y001874D02*
X000415Y001874D01*
X000415Y001776D02*
X002633Y001776D01*
X002645Y001677D02*
X000415Y001677D01*
X000415Y001579D02*
X002686Y001579D01*
X002727Y001480D02*
X000415Y001480D01*
X000415Y001382D02*
X002768Y001382D01*
X002862Y001283D02*
X000415Y001283D01*
X000415Y001185D02*
X002961Y001185D01*
X003110Y001086D02*
X000415Y001086D01*
X000415Y000988D02*
X003348Y000988D01*
X003718Y000988D02*
X006874Y000988D01*
X006792Y001086D02*
X003956Y001086D01*
X004105Y001185D02*
X006759Y001185D01*
X006759Y001283D02*
X004204Y001283D01*
X004298Y001382D02*
X006759Y001382D01*
X006759Y001480D02*
X004339Y001480D01*
X004380Y001579D02*
X006759Y001579D01*
X006759Y001677D02*
X004421Y001677D01*
X004433Y001776D02*
X006759Y001776D01*
X006759Y001874D02*
X004433Y001874D01*
X004433Y001973D02*
X006759Y001973D01*
X006759Y002071D02*
X004430Y002071D01*
X004389Y002170D02*
X006711Y002170D01*
X006670Y002268D02*
X004348Y002268D01*
X004307Y002367D02*
X006653Y002367D01*
X006653Y002465D02*
X004225Y002465D01*
X004126Y002564D02*
X005802Y002564D01*
X005704Y002662D02*
X004007Y002662D01*
X003769Y002761D02*
X005659Y002761D01*
X006264Y002564D02*
X006693Y002564D01*
X008185Y002268D02*
X008491Y002268D01*
X008642Y002170D02*
X008185Y002170D01*
X008185Y002071D02*
X009495Y002071D01*
X009593Y002170D02*
X009117Y002170D01*
X009268Y002268D02*
X009653Y002268D01*
X008930Y002268D02*
X008830Y002268D01*
X008830Y002170D02*
X008930Y002170D01*
X009396Y001973D02*
X008185Y001973D01*
X008265Y001874D02*
X009298Y001874D01*
X006973Y000889D02*
X000415Y000889D01*
X000415Y000791D02*
X007071Y000791D01*
X007170Y000692D02*
X000415Y000692D01*
X000415Y000594D02*
X007268Y000594D01*
X007367Y000495D02*
X000415Y000495D01*
X000415Y000397D02*
X007465Y000397D01*
X018097Y003746D02*
X021050Y003746D01*
X021788Y003746D02*
X022251Y003746D01*
X021100Y004101D02*
X018600Y006601D01*
X018854Y006602D02*
X024042Y006602D01*
X024027Y006504D02*
X018952Y006504D01*
X018797Y006701D02*
X024082Y006701D01*
X024123Y006799D02*
X018699Y006799D01*
X021372Y006110D02*
X021450Y006110D01*
X021450Y006011D02*
X021372Y006011D01*
X021372Y005814D02*
X021450Y005814D01*
X021450Y005716D02*
X021372Y005716D01*
X021372Y005617D02*
X021450Y005617D01*
X021450Y005519D02*
X021372Y005519D01*
X021792Y005716D02*
X022181Y005716D01*
X022388Y005716D02*
X022465Y005716D01*
X022673Y005716D02*
X024327Y005716D01*
X024229Y005814D02*
X021821Y005814D01*
X021739Y005125D02*
X022099Y005125D01*
X022207Y005026D02*
X021797Y005026D01*
X021823Y004928D02*
X028131Y004928D01*
X028131Y005026D02*
X022646Y005026D01*
X022755Y005125D02*
X028131Y005125D01*
X022465Y005125D02*
X022388Y005125D01*
X022388Y005026D02*
X022465Y005026D01*
X021450Y005026D02*
X021372Y005026D01*
X021372Y004928D02*
X021450Y004928D01*
X021450Y004829D02*
X021372Y004829D01*
X021372Y004731D02*
X021450Y004731D01*
X021450Y004632D02*
X021372Y004632D01*
X021372Y004534D02*
X021450Y004534D01*
X021165Y004534D02*
X020922Y004534D01*
X020824Y004632D02*
X021069Y004632D01*
X021019Y004731D02*
X020725Y004731D01*
X020627Y004829D02*
X020996Y004829D01*
X020999Y004928D02*
X020528Y004928D01*
X020430Y005026D02*
X021025Y005026D01*
X021083Y005125D02*
X020331Y005125D01*
X021372Y005125D02*
X021450Y005125D01*
X021229Y004238D02*
X021218Y004238D01*
X021789Y003056D02*
X022196Y003056D01*
X022281Y002761D02*
X021799Y002761D01*
X021752Y002662D02*
X022137Y002662D01*
X022069Y002564D02*
X021729Y002564D01*
X021729Y002465D02*
X022031Y002465D01*
X022031Y002367D02*
X021729Y002367D01*
X021729Y002268D02*
X022050Y002268D01*
X022091Y002170D02*
X021729Y002170D01*
X021688Y001874D02*
X022133Y001874D01*
X022133Y001776D02*
X021594Y001776D01*
X021496Y001677D02*
X022133Y001677D01*
X022133Y001579D02*
X021397Y001579D01*
X025483Y001185D02*
X028131Y001185D01*
X028131Y001283D02*
X025582Y001283D01*
X025680Y001382D02*
X028131Y001382D01*
X028131Y001480D02*
X025726Y001480D01*
X025767Y001579D02*
X028131Y001579D01*
X028131Y001677D02*
X025808Y001677D01*
X025826Y001776D02*
X028131Y001776D01*
X028131Y001874D02*
X025826Y001874D01*
X025826Y001973D02*
X028131Y001973D01*
X028131Y002071D02*
X025826Y002071D01*
X025789Y002170D02*
X028131Y002170D01*
X028131Y002268D02*
X025748Y002268D01*
X025707Y002367D02*
X028131Y002367D01*
X028131Y002465D02*
X025634Y002465D01*
X025536Y002564D02*
X028131Y002564D01*
X028131Y002662D02*
X025437Y002662D01*
X016164Y004632D02*
X013825Y004632D01*
X013714Y004731D02*
X016077Y004731D01*
D15*
X017226Y001243D03*
X020100Y001243D03*
D16*
X015923Y001184D03*
D17*
X013880Y000534D02*
X021754Y000534D01*
X022423Y001204D01*
X022423Y002389D01*
X022427Y002393D01*
X021439Y002030D02*
X021439Y002885D01*
X021427Y002897D01*
X022423Y003389D02*
X017939Y003389D01*
X017777Y003550D01*
X012360Y003550D01*
X011439Y004471D01*
X011242Y004471D01*
X011006Y004708D01*
X009509Y004708D01*
X008565Y003763D01*
X008053Y003763D01*
X007698Y003408D01*
X007053Y003408D01*
X007049Y003404D01*
X007663Y002893D02*
X007895Y002660D01*
X007895Y001834D01*
X008171Y001558D01*
X009391Y001558D01*
X009943Y002109D01*
X009943Y002660D01*
X010218Y002936D01*
X016383Y002936D01*
X016399Y002920D01*
X017399Y002920D01*
X017659Y002660D01*
X017856Y002463D01*
X018407Y002463D01*
X019076Y001794D01*
X021202Y001794D01*
X021439Y002030D01*
X013880Y000534D02*
X013525Y000889D01*
X013525Y002408D01*
X013525Y000849D01*
X013210Y000534D01*
X007738Y000534D01*
X007049Y001223D01*
X007049Y002389D01*
D18*
X007663Y002893D02*
X006033Y002893D01*
D19*
X015600Y002101D02*
X016100Y002601D01*
X017600Y002601D01*
X017659Y002660D01*
D20*
X015600Y002101D03*
M02*
