%
M48
M72
T01C0.0236
T02C0.0240
T03C0.0320
T04C0.0354
T05C0.0433
T06C0.1299
%
T01
X20100Y1243
X17226Y1243
X15600Y2101
T02
X15923Y1184
T03
X17777Y3550
X16399Y2920
X13525Y2408
X13525Y4408
X16399Y4920
X17777Y5550
T04
X6033Y2893
X7049Y2389
X7049Y3404
X6033Y3885
X7041Y4385
X6037Y4885
X7033Y5377
X6033Y5881
X21411Y5885
X22427Y5381
X21411Y4869
X22427Y4389
X21419Y3889
X22423Y3389
X21427Y2897
X22427Y2393
T05
X10769Y1519
X8880Y2700
X10769Y3881
T06
X24927Y1900
X24927Y6389
X3533Y6373
X3533Y1885
M30
