G75*
%MOIN*%
%OFA0B0*%
%FSLAX24Y24*%
%IPPOS*%
%LPD*%
%AMOC8*
5,1,8,0,0,1.08239X$1,22.5*
%
%ADD10C,0.0040*%
%ADD11C,0.0000*%
%ADD12C,0.0050*%
%ADD13C,0.0080*%
%ADD14R,0.0059X0.0118*%
%ADD15R,0.0118X0.0118*%
%ADD16R,0.0118X0.0059*%
%ADD17C,0.0060*%
%ADD18C,0.0039*%
D10*
X001026Y000515D02*
X001026Y000975D01*
X001256Y000975D01*
X001332Y000899D01*
X001332Y000745D01*
X001256Y000668D01*
X001026Y000668D01*
X001486Y000592D02*
X001563Y000515D01*
X001716Y000515D01*
X001793Y000592D01*
X001793Y000745D01*
X001716Y000822D01*
X001563Y000822D01*
X001486Y000745D01*
X001486Y000592D01*
X001946Y000592D02*
X002023Y000515D01*
X002100Y000592D01*
X002176Y000515D01*
X002253Y000592D01*
X002253Y000822D01*
X002407Y000745D02*
X002483Y000822D01*
X002637Y000822D01*
X002714Y000745D01*
X002714Y000668D01*
X002407Y000668D01*
X002407Y000592D02*
X002407Y000745D01*
X002407Y000592D02*
X002483Y000515D01*
X002637Y000515D01*
X002867Y000515D02*
X002867Y000822D01*
X003021Y000822D02*
X003097Y000822D01*
X003021Y000822D02*
X002867Y000668D01*
X003711Y000515D02*
X003865Y000515D01*
X003788Y000515D02*
X003788Y000975D01*
X003711Y000975D02*
X003865Y000975D01*
X004018Y000822D02*
X004248Y000822D01*
X004325Y000745D01*
X004325Y000515D01*
X004555Y000361D02*
X004632Y000438D01*
X004632Y000822D01*
X004632Y000975D02*
X004632Y001052D01*
X004862Y000822D02*
X005016Y000822D01*
X005092Y000745D01*
X005092Y000668D01*
X004785Y000668D01*
X004785Y000592D02*
X004785Y000745D01*
X004862Y000822D01*
X005246Y000745D02*
X005246Y000592D01*
X005323Y000515D01*
X005553Y000515D01*
X005783Y000592D02*
X005860Y000515D01*
X005783Y000592D02*
X005783Y000899D01*
X005706Y000822D02*
X005860Y000822D01*
X006013Y000745D02*
X006013Y000592D01*
X006090Y000515D01*
X006243Y000515D01*
X006320Y000592D01*
X006320Y000745D01*
X006243Y000822D01*
X006090Y000822D01*
X006013Y000745D01*
X006473Y000668D02*
X006627Y000822D01*
X006704Y000822D01*
X006473Y000822D02*
X006473Y000515D01*
X007318Y000515D02*
X007318Y000822D01*
X007471Y000822D02*
X007548Y000822D01*
X007471Y000822D02*
X007318Y000668D01*
X007701Y000668D02*
X008008Y000668D01*
X008008Y000745D01*
X007931Y000822D01*
X007778Y000822D01*
X007701Y000745D01*
X007701Y000592D01*
X007778Y000515D01*
X007931Y000515D01*
X008162Y000822D02*
X008315Y000515D01*
X008469Y000822D01*
X009082Y000745D02*
X009313Y000745D01*
X009389Y000668D01*
X009389Y000592D01*
X009313Y000515D01*
X009082Y000515D01*
X009082Y000975D01*
X009313Y000975D01*
X009389Y000899D01*
X009389Y000822D01*
X009313Y000745D01*
X005553Y000822D02*
X005323Y000822D01*
X005246Y000745D01*
X004862Y000515D02*
X004785Y000592D01*
X004862Y000515D02*
X005016Y000515D01*
X004555Y000361D02*
X004478Y000361D01*
X004018Y000515D02*
X004018Y000822D01*
X001946Y000822D02*
X001946Y000592D01*
X013138Y000700D02*
X013138Y001160D01*
X013368Y001160D01*
X013445Y001084D01*
X013445Y000930D01*
X013368Y000853D01*
X013138Y000853D01*
X013291Y000853D02*
X013445Y000700D01*
X013598Y000700D02*
X013905Y000700D01*
X013752Y000700D02*
X013752Y001160D01*
X013598Y001007D01*
X013790Y001235D02*
X013790Y001696D01*
X014020Y001696D01*
X014097Y001619D01*
X014097Y001466D01*
X014020Y001389D01*
X013790Y001389D01*
X014251Y001235D02*
X014404Y001389D01*
X014558Y001235D01*
X014558Y001696D01*
X014711Y001696D02*
X014941Y001696D01*
X015018Y001619D01*
X015018Y001466D01*
X014941Y001389D01*
X014711Y001389D01*
X014864Y001389D02*
X015018Y001235D01*
X015171Y001235D02*
X015478Y001235D01*
X015325Y001235D02*
X015325Y001696D01*
X015171Y001542D01*
X014711Y001696D02*
X014711Y001235D01*
X014251Y001235D02*
X014251Y001696D01*
X016024Y001708D02*
X016024Y001247D01*
X016177Y001401D02*
X016331Y001247D01*
X016484Y001247D02*
X016791Y001554D01*
X016791Y001631D01*
X016715Y001708D01*
X016561Y001708D01*
X016484Y001631D01*
X016331Y001631D02*
X016331Y001477D01*
X016254Y001401D01*
X016024Y001401D01*
X016254Y001708D02*
X016331Y001631D01*
X016254Y001708D02*
X016024Y001708D01*
X016484Y001247D02*
X016791Y001247D01*
X018124Y001278D02*
X018124Y001508D01*
X018200Y001585D01*
X018354Y001585D01*
X018430Y001508D01*
X018430Y001278D01*
X018584Y001278D02*
X018124Y001278D01*
X018124Y001125D02*
X018584Y001125D01*
X018430Y000971D01*
X018584Y000818D01*
X018124Y000818D01*
X018200Y000664D02*
X018354Y000664D01*
X018430Y000588D01*
X018430Y000357D01*
X018584Y000357D02*
X018124Y000357D01*
X018124Y000588D01*
X018200Y000664D01*
X019963Y000670D02*
X020039Y000594D01*
X020269Y000594D01*
X020269Y000517D02*
X020269Y000901D01*
X020039Y000901D01*
X019963Y000824D01*
X019963Y000670D01*
X020193Y000440D02*
X020269Y000517D01*
X020193Y000440D02*
X020116Y000440D01*
X020423Y000594D02*
X020423Y000901D01*
X020576Y000901D02*
X020653Y000901D01*
X020576Y000901D02*
X020423Y000747D01*
X020807Y000670D02*
X020883Y000594D01*
X021037Y000594D01*
X021114Y000670D01*
X021114Y000824D01*
X021037Y000901D01*
X020883Y000901D01*
X020807Y000824D01*
X020807Y000670D01*
X021267Y000670D02*
X021267Y000824D01*
X021344Y000901D01*
X021574Y000901D01*
X021574Y001054D02*
X021574Y000594D01*
X021344Y000594D01*
X021267Y000670D01*
X021727Y000670D02*
X021804Y000594D01*
X022034Y000594D01*
X022034Y000824D01*
X021958Y000901D01*
X021804Y000901D01*
X022188Y000901D02*
X022418Y000901D01*
X022495Y000824D01*
X022495Y000594D01*
X022648Y000594D02*
X022878Y000594D01*
X022955Y000670D01*
X022878Y000747D01*
X022725Y000747D01*
X022648Y000824D01*
X022725Y000901D01*
X022955Y000901D01*
X023109Y000901D02*
X023339Y000901D01*
X023415Y000824D01*
X023415Y000670D01*
X023339Y000594D01*
X023109Y000594D01*
X023109Y000440D02*
X023109Y000901D01*
X023569Y000670D02*
X023646Y000747D01*
X023876Y000747D01*
X023876Y000824D02*
X023876Y000594D01*
X023646Y000594D01*
X023569Y000670D01*
X023799Y000901D02*
X023876Y000824D01*
X023799Y000901D02*
X023646Y000901D01*
X024029Y000901D02*
X024029Y000594D01*
X024413Y000670D02*
X024490Y000747D01*
X024720Y000747D01*
X024720Y000824D02*
X024720Y000594D01*
X024490Y000594D01*
X024413Y000670D01*
X024183Y000901D02*
X024029Y000747D01*
X024183Y000901D02*
X024260Y000901D01*
X024490Y000901D02*
X024643Y000901D01*
X024720Y000824D01*
X024873Y000824D02*
X024950Y000901D01*
X025180Y000901D01*
X025180Y001054D02*
X025180Y000594D01*
X024950Y000594D01*
X024873Y000670D01*
X024873Y000824D01*
X025334Y000901D02*
X025410Y000901D01*
X025410Y000594D01*
X025334Y000594D02*
X025487Y000594D01*
X025641Y000594D02*
X025871Y000594D01*
X025948Y000670D01*
X025871Y000747D01*
X025717Y000747D01*
X025641Y000824D01*
X025717Y000901D01*
X025948Y000901D01*
X025410Y001054D02*
X025410Y001131D01*
X026331Y000824D02*
X026331Y000670D01*
X026408Y000594D01*
X026638Y000594D01*
X026792Y000670D02*
X026868Y000594D01*
X027022Y000594D01*
X027099Y000670D01*
X027099Y000824D01*
X027022Y000901D01*
X026868Y000901D01*
X026792Y000824D01*
X026792Y000670D01*
X026408Y000901D02*
X026331Y000824D01*
X026408Y000901D02*
X026638Y000901D01*
X027252Y000901D02*
X027329Y000901D01*
X027406Y000824D01*
X027482Y000901D01*
X027559Y000824D01*
X027559Y000594D01*
X027406Y000594D02*
X027406Y000824D01*
X027252Y000901D02*
X027252Y000594D01*
X026178Y000594D02*
X026101Y000594D01*
X026101Y000670D01*
X026178Y000670D01*
X026178Y000594D01*
X022188Y000594D02*
X022188Y000901D01*
X022034Y000747D02*
X021804Y000747D01*
X021727Y000670D01*
X018584Y001585D02*
X018430Y001432D01*
X018584Y001739D02*
X018277Y002046D01*
X018200Y002046D01*
X018124Y001969D01*
X018124Y001815D01*
X018200Y001739D01*
X018584Y001739D02*
X018584Y002046D01*
X018053Y002586D02*
X018053Y003046D01*
X017823Y002816D01*
X018130Y002816D01*
X017670Y002816D02*
X017670Y002969D01*
X017593Y003046D01*
X017363Y003046D01*
X017363Y002586D01*
X017516Y002739D02*
X017670Y002586D01*
X017593Y002739D02*
X017363Y002739D01*
X017593Y002739D02*
X017670Y002816D01*
X018751Y003125D02*
X018751Y003586D01*
X018981Y003586D01*
X019058Y003509D01*
X019058Y003355D01*
X018981Y003279D01*
X018751Y003279D01*
X019211Y003125D02*
X019365Y003279D01*
X019518Y003125D01*
X019518Y003586D01*
X019672Y003586D02*
X019902Y003586D01*
X019979Y003509D01*
X019979Y003355D01*
X019902Y003279D01*
X019672Y003279D01*
X019825Y003279D02*
X019979Y003125D01*
X020132Y003202D02*
X020209Y003125D01*
X020362Y003125D01*
X020439Y003202D01*
X020439Y003279D01*
X020362Y003355D01*
X020286Y003355D01*
X020362Y003355D02*
X020439Y003432D01*
X020439Y003509D01*
X020362Y003586D01*
X020209Y003586D01*
X020132Y003509D01*
X019672Y003586D02*
X019672Y003125D01*
X019211Y003125D02*
X019211Y003586D01*
X017190Y003540D02*
X016840Y003540D01*
X016840Y003773D01*
X016898Y003899D02*
X016840Y003957D01*
X016840Y004074D01*
X016898Y004132D01*
X016956Y004132D01*
X017190Y003899D01*
X017190Y004132D01*
X018217Y004209D02*
X018217Y004442D01*
X018393Y004326D02*
X018393Y004209D01*
X018568Y004209D02*
X018217Y004209D01*
X019408Y004336D02*
X019485Y004259D01*
X019561Y004259D01*
X019638Y004336D01*
X019638Y004719D01*
X019561Y004719D02*
X019715Y004719D01*
X019868Y004643D02*
X019945Y004719D01*
X020098Y004719D01*
X020175Y004643D01*
X020175Y004566D01*
X020098Y004489D01*
X020175Y004413D01*
X020175Y004336D01*
X020098Y004259D01*
X019945Y004259D01*
X019868Y004336D01*
X020022Y004489D02*
X020098Y004489D01*
X018568Y004568D02*
X018568Y004801D01*
X018568Y004685D02*
X018217Y004685D01*
X018334Y004568D01*
X017015Y003656D02*
X017015Y003540D01*
X014395Y003562D02*
X014395Y003445D01*
X014336Y003387D01*
X014219Y003504D02*
X014219Y003562D01*
X014278Y003620D01*
X014336Y003620D01*
X014395Y003562D01*
X014219Y003562D02*
X014161Y003620D01*
X014103Y003620D01*
X014044Y003562D01*
X014044Y003445D01*
X014103Y003387D01*
X014044Y003261D02*
X014044Y003028D01*
X014395Y003028D01*
X014219Y003028D02*
X014219Y003144D01*
X014210Y005181D02*
X013903Y005181D01*
X014057Y005181D02*
X014057Y005641D01*
X013903Y005488D01*
X013750Y005564D02*
X013673Y005641D01*
X013443Y005641D01*
X013443Y005181D01*
X013673Y005181D01*
X013750Y005257D01*
X013750Y005564D01*
X013249Y005876D02*
X013173Y005799D01*
X013249Y005876D02*
X013249Y005952D01*
X013173Y006029D01*
X012789Y006029D01*
X012789Y005952D02*
X012789Y006106D01*
X013019Y006259D02*
X013019Y006566D01*
X012789Y006489D02*
X013019Y006259D01*
X013249Y006489D02*
X012789Y006489D01*
X013903Y005918D02*
X015683Y005918D01*
X019226Y005869D02*
X019226Y006099D01*
X019303Y006176D01*
X019456Y006176D01*
X019533Y006099D01*
X019533Y005869D01*
X019686Y005869D02*
X019226Y005869D01*
X019226Y006330D02*
X019686Y006330D01*
X019533Y006483D01*
X019686Y006637D01*
X019226Y006637D01*
X019226Y006790D02*
X019226Y007020D01*
X019303Y007097D01*
X019456Y007097D01*
X019533Y007020D01*
X019533Y006790D01*
X019686Y006790D02*
X019226Y006790D01*
X019533Y006944D02*
X019686Y007097D01*
X017972Y007253D02*
X017895Y007176D01*
X017742Y007176D01*
X017665Y007253D01*
X017512Y007176D02*
X017358Y007330D01*
X017435Y007330D02*
X017205Y007330D01*
X017435Y007330D02*
X017512Y007407D01*
X017512Y007560D01*
X017435Y007637D01*
X017205Y007637D01*
X017205Y007176D01*
X017895Y007407D02*
X017972Y007330D01*
X017972Y007253D01*
X017895Y007407D02*
X017819Y007407D01*
X017895Y007407D02*
X017972Y007483D01*
X017972Y007560D01*
X017895Y007637D01*
X017742Y007637D01*
X017665Y007560D01*
X015683Y007418D02*
X013903Y007418D01*
X008820Y007166D02*
X008820Y007090D01*
X008513Y006783D01*
X008820Y006783D01*
X008283Y006859D02*
X008283Y007243D01*
X008207Y007243D02*
X008360Y007243D01*
X008513Y007166D02*
X008590Y007243D01*
X008744Y007243D01*
X008820Y007166D01*
X008283Y006859D02*
X008207Y006783D01*
X008130Y006783D01*
X008053Y006859D01*
D11*
X000100Y000101D02*
X028446Y000101D01*
X028446Y007975D01*
X000100Y007975D01*
X000100Y000101D01*
X002883Y001885D02*
X002885Y001935D01*
X002891Y001985D01*
X002901Y002035D01*
X002914Y002083D01*
X002931Y002131D01*
X002952Y002177D01*
X002976Y002221D01*
X003004Y002263D01*
X003035Y002303D01*
X003069Y002340D01*
X003106Y002375D01*
X003145Y002406D01*
X003186Y002435D01*
X003230Y002460D01*
X003276Y002482D01*
X003323Y002500D01*
X003371Y002514D01*
X003420Y002525D01*
X003470Y002532D01*
X003520Y002535D01*
X003571Y002534D01*
X003621Y002529D01*
X003671Y002520D01*
X003719Y002508D01*
X003767Y002491D01*
X003813Y002471D01*
X003858Y002448D01*
X003901Y002421D01*
X003941Y002391D01*
X003979Y002358D01*
X004014Y002322D01*
X004047Y002283D01*
X004076Y002242D01*
X004102Y002199D01*
X004125Y002154D01*
X004144Y002107D01*
X004159Y002059D01*
X004171Y002010D01*
X004179Y001960D01*
X004183Y001910D01*
X004183Y001860D01*
X004179Y001810D01*
X004171Y001760D01*
X004159Y001711D01*
X004144Y001663D01*
X004125Y001616D01*
X004102Y001571D01*
X004076Y001528D01*
X004047Y001487D01*
X004014Y001448D01*
X003979Y001412D01*
X003941Y001379D01*
X003901Y001349D01*
X003858Y001322D01*
X003813Y001299D01*
X003767Y001279D01*
X003719Y001262D01*
X003671Y001250D01*
X003621Y001241D01*
X003571Y001236D01*
X003520Y001235D01*
X003470Y001238D01*
X003420Y001245D01*
X003371Y001256D01*
X003323Y001270D01*
X003276Y001288D01*
X003230Y001310D01*
X003186Y001335D01*
X003145Y001364D01*
X003106Y001395D01*
X003069Y001430D01*
X003035Y001467D01*
X003004Y001507D01*
X002976Y001549D01*
X002952Y001593D01*
X002931Y001639D01*
X002914Y001687D01*
X002901Y001735D01*
X002891Y001785D01*
X002885Y001835D01*
X002883Y001885D01*
X002883Y006373D02*
X002885Y006423D01*
X002891Y006473D01*
X002901Y006523D01*
X002914Y006571D01*
X002931Y006619D01*
X002952Y006665D01*
X002976Y006709D01*
X003004Y006751D01*
X003035Y006791D01*
X003069Y006828D01*
X003106Y006863D01*
X003145Y006894D01*
X003186Y006923D01*
X003230Y006948D01*
X003276Y006970D01*
X003323Y006988D01*
X003371Y007002D01*
X003420Y007013D01*
X003470Y007020D01*
X003520Y007023D01*
X003571Y007022D01*
X003621Y007017D01*
X003671Y007008D01*
X003719Y006996D01*
X003767Y006979D01*
X003813Y006959D01*
X003858Y006936D01*
X003901Y006909D01*
X003941Y006879D01*
X003979Y006846D01*
X004014Y006810D01*
X004047Y006771D01*
X004076Y006730D01*
X004102Y006687D01*
X004125Y006642D01*
X004144Y006595D01*
X004159Y006547D01*
X004171Y006498D01*
X004179Y006448D01*
X004183Y006398D01*
X004183Y006348D01*
X004179Y006298D01*
X004171Y006248D01*
X004159Y006199D01*
X004144Y006151D01*
X004125Y006104D01*
X004102Y006059D01*
X004076Y006016D01*
X004047Y005975D01*
X004014Y005936D01*
X003979Y005900D01*
X003941Y005867D01*
X003901Y005837D01*
X003858Y005810D01*
X003813Y005787D01*
X003767Y005767D01*
X003719Y005750D01*
X003671Y005738D01*
X003621Y005729D01*
X003571Y005724D01*
X003520Y005723D01*
X003470Y005726D01*
X003420Y005733D01*
X003371Y005744D01*
X003323Y005758D01*
X003276Y005776D01*
X003230Y005798D01*
X003186Y005823D01*
X003145Y005852D01*
X003106Y005883D01*
X003069Y005918D01*
X003035Y005955D01*
X003004Y005995D01*
X002976Y006037D01*
X002952Y006081D01*
X002931Y006127D01*
X002914Y006175D01*
X002901Y006223D01*
X002891Y006273D01*
X002885Y006323D01*
X002883Y006373D01*
X024277Y006389D02*
X024279Y006439D01*
X024285Y006489D01*
X024295Y006539D01*
X024308Y006587D01*
X024325Y006635D01*
X024346Y006681D01*
X024370Y006725D01*
X024398Y006767D01*
X024429Y006807D01*
X024463Y006844D01*
X024500Y006879D01*
X024539Y006910D01*
X024580Y006939D01*
X024624Y006964D01*
X024670Y006986D01*
X024717Y007004D01*
X024765Y007018D01*
X024814Y007029D01*
X024864Y007036D01*
X024914Y007039D01*
X024965Y007038D01*
X025015Y007033D01*
X025065Y007024D01*
X025113Y007012D01*
X025161Y006995D01*
X025207Y006975D01*
X025252Y006952D01*
X025295Y006925D01*
X025335Y006895D01*
X025373Y006862D01*
X025408Y006826D01*
X025441Y006787D01*
X025470Y006746D01*
X025496Y006703D01*
X025519Y006658D01*
X025538Y006611D01*
X025553Y006563D01*
X025565Y006514D01*
X025573Y006464D01*
X025577Y006414D01*
X025577Y006364D01*
X025573Y006314D01*
X025565Y006264D01*
X025553Y006215D01*
X025538Y006167D01*
X025519Y006120D01*
X025496Y006075D01*
X025470Y006032D01*
X025441Y005991D01*
X025408Y005952D01*
X025373Y005916D01*
X025335Y005883D01*
X025295Y005853D01*
X025252Y005826D01*
X025207Y005803D01*
X025161Y005783D01*
X025113Y005766D01*
X025065Y005754D01*
X025015Y005745D01*
X024965Y005740D01*
X024914Y005739D01*
X024864Y005742D01*
X024814Y005749D01*
X024765Y005760D01*
X024717Y005774D01*
X024670Y005792D01*
X024624Y005814D01*
X024580Y005839D01*
X024539Y005868D01*
X024500Y005899D01*
X024463Y005934D01*
X024429Y005971D01*
X024398Y006011D01*
X024370Y006053D01*
X024346Y006097D01*
X024325Y006143D01*
X024308Y006191D01*
X024295Y006239D01*
X024285Y006289D01*
X024279Y006339D01*
X024277Y006389D01*
X024277Y001900D02*
X024279Y001950D01*
X024285Y002000D01*
X024295Y002050D01*
X024308Y002098D01*
X024325Y002146D01*
X024346Y002192D01*
X024370Y002236D01*
X024398Y002278D01*
X024429Y002318D01*
X024463Y002355D01*
X024500Y002390D01*
X024539Y002421D01*
X024580Y002450D01*
X024624Y002475D01*
X024670Y002497D01*
X024717Y002515D01*
X024765Y002529D01*
X024814Y002540D01*
X024864Y002547D01*
X024914Y002550D01*
X024965Y002549D01*
X025015Y002544D01*
X025065Y002535D01*
X025113Y002523D01*
X025161Y002506D01*
X025207Y002486D01*
X025252Y002463D01*
X025295Y002436D01*
X025335Y002406D01*
X025373Y002373D01*
X025408Y002337D01*
X025441Y002298D01*
X025470Y002257D01*
X025496Y002214D01*
X025519Y002169D01*
X025538Y002122D01*
X025553Y002074D01*
X025565Y002025D01*
X025573Y001975D01*
X025577Y001925D01*
X025577Y001875D01*
X025573Y001825D01*
X025565Y001775D01*
X025553Y001726D01*
X025538Y001678D01*
X025519Y001631D01*
X025496Y001586D01*
X025470Y001543D01*
X025441Y001502D01*
X025408Y001463D01*
X025373Y001427D01*
X025335Y001394D01*
X025295Y001364D01*
X025252Y001337D01*
X025207Y001314D01*
X025161Y001294D01*
X025113Y001277D01*
X025065Y001265D01*
X025015Y001256D01*
X024965Y001251D01*
X024914Y001250D01*
X024864Y001253D01*
X024814Y001260D01*
X024765Y001271D01*
X024717Y001285D01*
X024670Y001303D01*
X024624Y001325D01*
X024580Y001350D01*
X024539Y001379D01*
X024500Y001410D01*
X024463Y001445D01*
X024429Y001482D01*
X024398Y001522D01*
X024370Y001564D01*
X024346Y001608D01*
X024325Y001654D01*
X024308Y001702D01*
X024295Y001750D01*
X024285Y001800D01*
X024279Y001850D01*
X024277Y001900D01*
D12*
X027427Y001109D02*
X027427Y007180D01*
X020588Y007180D01*
X020588Y001109D01*
X027446Y001109D01*
X007872Y001093D02*
X007872Y007164D01*
X001013Y007164D01*
X001033Y007164D02*
X001033Y001093D01*
X007872Y001093D01*
D13*
X014717Y006274D02*
X014717Y007062D01*
X015120Y006668D01*
X014717Y006274D01*
D14*
X018635Y006428D03*
X019108Y006428D03*
X019864Y002208D03*
X020336Y002208D03*
X018053Y001696D03*
X017580Y001696D03*
D15*
X017817Y001696D03*
X020100Y002208D03*
X014805Y000849D03*
X018872Y006428D03*
D16*
X014805Y001086D03*
X014805Y000613D03*
D17*
X013875Y002808D02*
X013875Y002908D01*
X013825Y002958D01*
X013825Y003858D01*
X013875Y003908D01*
X013875Y004008D01*
X013873Y004025D01*
X013869Y004042D01*
X013862Y004058D01*
X013852Y004072D01*
X013839Y004085D01*
X013825Y004095D01*
X013809Y004102D01*
X013792Y004106D01*
X013775Y004108D01*
X013275Y004108D02*
X013258Y004106D01*
X013241Y004102D01*
X013225Y004095D01*
X013211Y004085D01*
X013198Y004072D01*
X013188Y004058D01*
X013181Y004042D01*
X013177Y004025D01*
X013175Y004008D01*
X013175Y003908D01*
X013225Y003858D01*
X013225Y002958D01*
X013175Y002908D01*
X013175Y002808D01*
X013177Y002791D01*
X013181Y002774D01*
X013188Y002758D01*
X013198Y002744D01*
X013211Y002731D01*
X013225Y002721D01*
X013241Y002714D01*
X013258Y002710D01*
X013275Y002708D01*
X013775Y002708D02*
X013792Y002710D01*
X013809Y002714D01*
X013825Y002721D01*
X013839Y002731D01*
X013852Y002744D01*
X013862Y002758D01*
X013869Y002774D01*
X013873Y002791D01*
X013875Y002808D01*
X016049Y003320D02*
X016049Y003420D01*
X016099Y003470D01*
X016099Y004370D01*
X016049Y004420D01*
X016049Y004520D01*
X016051Y004537D01*
X016055Y004554D01*
X016062Y004570D01*
X016072Y004584D01*
X016085Y004597D01*
X016099Y004607D01*
X016115Y004614D01*
X016132Y004618D01*
X016149Y004620D01*
X016649Y004620D02*
X016666Y004618D01*
X016683Y004614D01*
X016699Y004607D01*
X016713Y004597D01*
X016726Y004584D01*
X016736Y004570D01*
X016743Y004554D01*
X016747Y004537D01*
X016749Y004520D01*
X016749Y004420D01*
X016699Y004370D01*
X016699Y003470D01*
X016749Y003420D01*
X016749Y003320D01*
X016747Y003303D01*
X016743Y003286D01*
X016736Y003270D01*
X016726Y003256D01*
X016713Y003243D01*
X016699Y003233D01*
X016683Y003226D01*
X016666Y003222D01*
X016649Y003220D01*
X016149Y003220D02*
X016132Y003222D01*
X016115Y003226D01*
X016099Y003233D01*
X016085Y003243D01*
X016072Y003256D01*
X016062Y003270D01*
X016055Y003286D01*
X016051Y003303D01*
X016049Y003320D01*
X017427Y003950D02*
X017427Y004050D01*
X017477Y004100D01*
X017477Y005000D01*
X017427Y005050D01*
X017427Y005150D01*
X017429Y005167D01*
X017433Y005184D01*
X017440Y005200D01*
X017450Y005214D01*
X017463Y005227D01*
X017477Y005237D01*
X017493Y005244D01*
X017510Y005248D01*
X017527Y005250D01*
X018027Y005250D02*
X018044Y005248D01*
X018061Y005244D01*
X018077Y005237D01*
X018091Y005227D01*
X018104Y005214D01*
X018114Y005200D01*
X018121Y005184D01*
X018125Y005167D01*
X018127Y005150D01*
X018127Y005050D01*
X018077Y005000D01*
X018077Y004100D01*
X018127Y004050D01*
X018127Y003950D01*
X018125Y003933D01*
X018121Y003916D01*
X018114Y003900D01*
X018104Y003886D01*
X018091Y003873D01*
X018077Y003863D01*
X018061Y003856D01*
X018044Y003852D01*
X018027Y003850D01*
X017527Y003850D02*
X017510Y003852D01*
X017493Y003856D01*
X017477Y003863D01*
X017463Y003873D01*
X017450Y003886D01*
X017440Y003900D01*
X017433Y003916D01*
X017429Y003933D01*
X017427Y003950D01*
D18*
X012029Y003782D02*
X012029Y003389D01*
X011793Y003389D01*
X011399Y003389D02*
X011163Y003389D01*
X010376Y003389D01*
X010139Y003389D01*
X009746Y003389D02*
X009509Y003389D01*
X009509Y003782D01*
X008998Y003708D02*
X008998Y006932D01*
X009509Y006932D01*
X009509Y006538D01*
X009509Y006932D02*
X012029Y006932D01*
X012029Y006538D01*
X012029Y006932D02*
X012541Y006932D01*
X012541Y002208D01*
X012344Y002208D01*
X009694Y002208D01*
X009844Y001617D02*
X009194Y001617D01*
X009194Y001420D01*
X009844Y001420D01*
X011694Y001420D02*
X012344Y001420D01*
X012344Y001617D01*
X011694Y001617D01*
X012344Y001617D02*
X012344Y002208D01*
X012344Y005554D01*
X012541Y005554D01*
X012344Y005554D02*
X008998Y005554D01*
X009509Y005751D02*
X009509Y006145D01*
X010375Y006145D02*
X010377Y006184D01*
X010383Y006222D01*
X010392Y006259D01*
X010405Y006296D01*
X010422Y006331D01*
X010441Y006364D01*
X010464Y006395D01*
X010490Y006424D01*
X010519Y006450D01*
X010550Y006473D01*
X010583Y006492D01*
X010618Y006509D01*
X010655Y006522D01*
X010692Y006531D01*
X010730Y006537D01*
X010769Y006539D01*
X010808Y006537D01*
X010846Y006531D01*
X010883Y006522D01*
X010920Y006509D01*
X010955Y006492D01*
X010988Y006473D01*
X011019Y006450D01*
X011048Y006424D01*
X011074Y006395D01*
X011097Y006364D01*
X011116Y006331D01*
X011133Y006296D01*
X011146Y006259D01*
X011155Y006222D01*
X011161Y006184D01*
X011163Y006145D01*
X012029Y006145D02*
X012029Y005751D01*
X012029Y005357D02*
X012029Y004963D01*
X012029Y004570D02*
X012029Y004176D01*
X009509Y004176D02*
X009509Y004570D01*
X009509Y004963D02*
X009509Y005357D01*
M02*
